<svg width="1440" height="623" viewBox="0 0 1440 623" fill="none" xmlns="http://www.w3.org/2000/svg">
<path fill-rule="evenodd" clip-rule="evenodd" d="M519 111H1439V2H519V111ZM518 112H1440V1H518V112ZM110 512H258.268C283.485 512 304 491.6 304 466.524V412.476C304 387.4 283.485 367 258.268 367H110V512ZM258.239 514H109V366H258.239C284.023 366 305 386.999 305 412.81V467.19C305 493.001 284.023 514 258.239 514ZM1 622H258.068C343.498 622 413 552.349 413 466.738V412.483C413 375.671 399.825 339.929 375.903 311.842L375.611 311.501L375.903 311.159C385.735 299.613 393.807 286.761 399.891 272.954C408.591 253.219 413 232.212 413 210.517V156.262C413 70.6507 343.498 1 258.068 1H1V109.56H258.068C283.765 109.56 304.672 130.51 304.672 156.262V210.517C304.672 236.269 283.765 257.221 258.068 257.221H1V622ZM258.055 623H0V256.177H258.055C283.167 256.177 303.596 235.702 303.596 210.534V156.289C303.596 131.123 283.167 110.649 258.055 110.649H0V0H258.055C344.043 0 414 70.1107 414 156.289V210.534C414 232.373 409.561 253.52 400.805 273.387C394.741 287.147 386.716 299.969 376.951 311.501C400.846 339.721 414 375.558 414 412.466V466.711C414 552.889 344.043 623 258.055 623ZM519 257V466.644C519 552.307 588.522 622 673.978 622H774.023C859.478 622 929 552.307 929 466.644V257H820.639V466.644C820.639 492.412 799.727 513.375 774.023 513.375H673.978C648.273 513.375 627.361 492.412 627.361 466.644V257H519ZM774.01 623H673.991C587.977 623 518 552.856 518 466.636V256H628.437V466.636C628.437 491.815 648.872 512.299 673.991 512.299H774.01C799.128 512.299 819.563 491.815 819.563 466.636V256H930V466.636C930 552.856 860.023 623 774.01 623ZM1330.64 622H1439V412.356C1439 383.029 1430.77 354.45 1415.2 329.708C1400.05 305.633 1378.66 286.171 1353.34 273.423C1331.69 262.526 1308.37 257 1284.02 257H1183.98C1159.63 257 1136.31 262.526 1114.66 273.422C1089.34 286.17 1067.95 305.631 1052.8 329.707C1037.23 354.449 1029 383.029 1029 412.356V622H1137.36V412.356C1137.36 386.588 1158.27 365.625 1183.98 365.625H1284.02C1309.73 365.625 1330.64 386.588 1330.64 412.356V622ZM1440 623H1329.56V412.364C1329.56 387.185 1309.13 366.701 1284.01 366.701H1183.99C1158.87 366.701 1138.44 387.185 1138.44 412.364V623H1028V412.364C1028 382.847 1036.28 354.081 1051.95 329.176C1067.2 304.947 1088.73 285.359 1114.22 272.529C1136.01 261.561 1159.48 256 1183.99 256H1284.01C1308.52 256 1331.99 261.562 1353.78 272.53C1379.27 285.36 1400.8 304.948 1416.05 329.177C1431.72 354.081 1440 382.847 1440 412.364V623Z" fill="white"/>
</svg>
