<svg width="68" height="29" viewBox="0 0 68 29" fill="none" xmlns="http://www.w3.org/2000/svg">
<path fill-rule="evenodd" clip-rule="evenodd" d="M38.9962 11.9414V21.7359C38.9962 22.9252 38.0147 23.8889 36.804 23.8889H32.0468C30.8357 23.8889 29.8538 22.9248 29.8538 21.7352V11.9414H24.65V21.7359C24.65 25.7479 27.9612 29.0002 32.0461 29.0002H36.804C40.8889 29.0002 44.2 25.7479 44.2 21.7359V11.9414H38.9962Z" fill="black"/>
<path fill-rule="evenodd" clip-rule="evenodd" d="M53.6538 29.0002V19.2057C53.6538 18.0165 54.6353 17.0527 55.8461 17.0527H60.6047C61.815 17.0527 62.7962 18.0165 62.7962 19.2054V29.0002H68V19.2057C68 15.1937 64.6889 11.9414 60.6039 11.9414H55.8461C51.7611 11.9414 48.45 15.1937 48.45 19.2057V29.0002H53.6538Z" fill="#161616"/>
<path fill-rule="evenodd" clip-rule="evenodd" d="M14.3729 21.7373C14.3729 22.9241 13.3947 23.8901 12.1919 23.8901H5.17708V17.0551H12.1919C13.3947 17.0551 14.3729 18.0208 14.3729 19.208V21.7373ZM19.55 7.26273C19.55 3.25792 16.2491 0 12.1919 0H0V5.11021H12.1919C13.3947 5.11021 14.3729 6.07586 14.3729 7.26273V9.79238C14.3729 10.9792 13.3947 11.9449 12.1919 11.9449H0V23.8901V29H12.1919C16.2491 29 19.55 25.7421 19.55 21.7373V19.208C19.55 17.4129 18.8855 15.7689 17.788 14.5002C18.8855 13.2311 19.55 11.5874 19.55 9.79238V7.26273Z" fill="black"/>
<path fill-rule="evenodd" clip-rule="evenodd" d="M24.65 5.11765H68V0H24.65V5.11765Z" fill="#009FE3"/>
</svg>
