<svg width="101" height="94" viewBox="0 0 101 94" fill="none" xmlns="http://www.w3.org/2000/svg">
<path fill-rule="evenodd" clip-rule="evenodd" d="M31.7867 16.7322C30.9401 16.7075 30.4747 16.1644 30.4301 15.2658C30.5737 14.4709 31.0193 13.9229 31.8906 13.9674C32.7323 14.0118 33.2373 14.5203 33.2076 15.4041C33.1828 16.2977 32.6135 16.7568 31.7867 16.7322Z" fill="white"/>
<path fill-rule="evenodd" clip-rule="evenodd" d="M34.4453 11.0396C34.3957 11.8987 33.9155 12.4319 33.0689 12.4319C32.2421 12.4319 31.6926 11.9283 31.6778 11.0495C31.6629 10.1559 32.2124 9.66708 33.0442 9.66215C33.8759 9.65721 34.4056 10.1312 34.4453 11.0396Z" fill="white"/>
<path fill-rule="evenodd" clip-rule="evenodd" d="M34.4453 19.7191C34.371 20.5831 33.866 21.0965 33.0244 21.0669C32.2026 21.0422 31.658 20.5386 31.6778 19.645C31.6926 18.7514 32.2471 18.2873 33.0838 18.3021C33.9254 18.3219 34.4205 18.8304 34.4453 19.7191Z" fill="white"/>
<path fill-rule="evenodd" clip-rule="evenodd" d="M33.8561 6.68518C33.8561 5.80637 34.4106 5.31266 35.2522 5.32747C36.0939 5.34722 36.6286 5.87056 36.6137 6.73949C36.6038 7.60349 36.0592 8.03796 35.2423 8.10214C34.3264 8.03796 33.8512 7.54424 33.8561 6.68518Z" fill="white"/>
<path fill-rule="evenodd" clip-rule="evenodd" d="M36.183 16.7422C35.2522 16.6483 34.7621 16.1596 34.7968 15.3005C34.8314 14.4513 35.3612 13.928 36.2226 13.9626C37.0791 13.9971 37.594 14.5501 37.5593 15.3993C37.5296 16.2435 36.985 16.6977 36.183 16.7422Z" fill="white"/>
<path fill-rule="evenodd" clip-rule="evenodd" d="M38.7871 11.0447C38.7822 11.879 38.2475 12.4271 37.386 12.432C36.5147 12.432 36.0048 11.8642 35.9998 11.0348C35.9949 10.1955 36.5197 9.70671 37.4009 9.64746C38.2524 9.72646 38.797 10.2103 38.7871 11.0447Z" fill="white"/>
<path fill-rule="evenodd" clip-rule="evenodd" d="M38.7871 19.6744C38.7871 20.5039 38.2723 21.0618 37.4009 21.0717C36.5246 21.0766 36.0097 20.5236 35.9998 19.6893C35.9899 18.8549 36.5048 18.3513 37.391 18.2871C38.2376 18.3612 38.7921 18.8302 38.7871 19.6744Z" fill="white"/>
<path fill-rule="evenodd" clip-rule="evenodd" d="M39.4703 8.08743C38.594 8.04299 38.1237 7.45054 38.1633 6.62604C38.2079 5.77685 38.7871 5.2782 39.6387 5.32757C40.5051 5.37201 40.916 5.94965 40.9506 6.76921C40.8417 7.67271 40.3219 8.13186 39.4703 8.08743Z" fill="white"/>
<path fill-rule="evenodd" clip-rule="evenodd" d="M43.1092 11.0885C43.025 11.9575 42.5002 12.4561 41.6734 12.4265C40.8417 12.3969 40.3219 11.8637 40.3417 10.9898C40.3615 10.0962 40.9259 9.64689 41.7626 9.66664C42.619 9.68639 43.0795 10.2147 43.1092 11.0885Z" fill="white"/>
<mask id="mask0_0_38" style="mask-type:alpha" maskUnits="userSpaceOnUse" x="24" y="0" width="30" height="29">
<path fill-rule="evenodd" clip-rule="evenodd" d="M24.5436 0H53.2534V28.6949H24.5436V0Z" fill="white"/>
</mask>
<g mask="url(#mask0_0_38)">
<path fill-rule="evenodd" clip-rule="evenodd" d="M38.8069 26.9814C31.8758 26.9419 26.2022 21.2001 26.2368 14.2733C26.2715 7.34154 31.9847 1.64902 38.9158 1.64409C45.8965 1.63915 51.6295 7.39091 51.5998 14.3769C51.5751 21.3729 45.8371 27.0209 38.8069 26.9814ZM38.8663 2.29589e-05C30.9995 0.00989722 24.5535 6.42817 24.5436 14.2486C24.5387 22.2072 31.0688 28.744 38.9753 28.6946C46.847 28.6453 53.2484 22.2369 53.2534 14.3967C53.2583 6.34424 46.9065 -0.0098513 38.8663 2.29589e-05Z" fill="white"/>
</g>
<path fill-rule="evenodd" clip-rule="evenodd" d="M72.5319 37.4872C71.6754 37.428 71.1209 36.9639 71.111 36.1196C71.0961 35.2902 71.5962 34.7224 72.4725 34.7027C73.3438 34.6829 73.8735 35.226 73.8983 36.0554C73.923 36.8948 73.4032 37.3983 72.5319 37.4872Z" fill="white"/>
<path fill-rule="evenodd" clip-rule="evenodd" d="M75.1162 40.3658C75.0469 41.2051 74.6459 41.7778 73.7696 41.8025C72.9032 41.8272 72.3685 41.3039 72.3338 40.4646C72.2942 39.6203 72.8141 39.0772 73.6706 39.0427C74.5369 39.0081 75.0122 39.5166 75.1162 40.3658Z" fill="white"/>
<path fill-rule="evenodd" clip-rule="evenodd" d="M72.3288 31.7158C72.3684 30.8765 72.9229 30.4272 73.7646 30.3877C74.6409 30.4963 75.136 30.9802 75.0963 31.8343C75.0518 32.6884 74.5121 33.2068 73.6606 33.1673C72.814 33.1229 72.2942 32.56 72.3288 31.7158Z" fill="white"/>
<path fill-rule="evenodd" clip-rule="evenodd" d="M75.8736 28.8332C75.0469 28.8233 74.4973 28.3197 74.5072 27.4409C74.5122 26.5571 75.0766 26.0684 75.8984 26.0684C76.7351 26.0684 77.2054 26.6114 77.2698 27.352C77.2252 28.3543 76.7054 28.843 75.8736 28.8332Z" fill="white"/>
<path fill-rule="evenodd" clip-rule="evenodd" d="M79.458 31.8244C79.364 32.6489 78.8788 33.1772 78.0371 33.1624C77.2005 33.1476 76.6856 32.6391 76.6905 31.7553C76.6905 30.8518 77.2549 30.3877 78.0768 30.3976C78.9085 30.4026 79.4036 30.9259 79.458 31.8244Z" fill="white"/>
<path fill-rule="evenodd" clip-rule="evenodd" d="M79.4333 40.4306C79.4135 41.2946 78.8936 41.8179 78.0421 41.8031C77.2004 41.7883 76.7202 41.2699 76.6757 40.4306C76.7103 39.5024 77.25 39.0235 78.0718 39.0334C78.8986 39.0432 79.4531 39.5518 79.4333 40.4306Z" fill="white"/>
<path fill-rule="evenodd" clip-rule="evenodd" d="M81.6116 27.4895C81.5819 28.3239 81.0522 28.7929 80.2254 28.8373C79.3145 28.7633 78.8243 28.2696 78.8441 27.4154C78.8639 26.5613 79.4135 26.038 80.2601 26.0676C81.0968 26.0923 81.6364 26.6354 81.6116 27.4895Z" fill="white"/>
<path fill-rule="evenodd" clip-rule="evenodd" d="M79.5224 47.2187C72.5269 47.2187 66.7889 41.4719 66.8285 34.5007C66.8632 27.6134 72.616 21.9061 79.5372 21.8863C86.4585 21.8616 92.1866 27.5838 92.1915 34.5204C92.1915 41.5707 86.5624 47.2187 79.5224 47.2187ZM79.5224 20.2373C71.6011 20.2472 65.1403 26.6852 65.1304 34.5748C65.1254 42.41 71.6605 48.9319 79.5372 48.9418C87.3892 48.9566 93.8748 42.484 93.9243 34.5748C93.9738 26.7395 87.4288 20.2275 79.5224 20.2373Z" fill="white"/>
<mask id="mask1_0_38" style="mask-type:alpha" maskUnits="userSpaceOnUse" x="0" y="39" width="101" height="55">
<path fill-rule="evenodd" clip-rule="evenodd" d="M0 39.6025H101V93.9998H0V39.6025Z" fill="white"/>
</mask>
<g mask="url(#mask1_0_38)">
<path fill-rule="evenodd" clip-rule="evenodd" d="M96.568 71.2179C81.369 77.3448 66.18 83.5064 50.9859 89.663C47.3966 91.1145 43.827 91.1046 40.3516 89.3618C32.7867 85.5652 25.2516 81.7043 17.6868 77.9077C17.0135 77.572 16.86 77.1622 16.86 76.4759C16.8798 67.9248 16.8847 59.3688 16.855 50.8127C16.8501 49.9833 17.0135 49.6772 17.9195 49.7068C25.9546 50.003 32.762 52.7629 37.6583 59.3885C38.0297 59.8872 38.4356 59.8872 38.9257 59.8872C43.0102 59.8822 47.0946 59.8872 51.179 59.8872C57.5606 59.8872 62.3777 63.6098 64.0808 70.0033H58.8082C51.3424 70.0033 43.8815 70.0033 36.4157 70.0083C36.0048 70.0083 35.579 69.9836 35.1879 70.0823C34.3908 70.2798 33.9007 70.8032 33.8858 71.6622C33.8759 72.5756 34.3958 73.1187 35.2473 73.3211C35.6384 73.41 36.0642 73.3754 36.4751 73.3754C45.4262 73.3803 54.3772 73.3754 63.3233 73.3754C66.7245 73.3754 68.1108 71.5437 67.185 68.2753C66.7196 66.6313 66.7245 66.6214 68.4425 66.6362C75.2053 66.6905 81.9681 66.4437 88.726 66.7646C91.7311 66.9028 94.5729 67.6779 96.8453 69.87C97.5334 70.5365 97.5532 70.818 96.568 71.2179ZM13.5875 82.6226C13.5875 83.3533 13.34 83.5163 12.6617 83.5064C9.93875 83.4768 7.21581 83.457 4.49781 83.5163C3.62647 83.536 3.40368 83.2793 3.40863 82.4202C3.44329 76.0513 3.42844 69.6775 3.42844 63.3037C3.42844 56.9298 3.45319 50.5609 3.40368 44.1871C3.39378 43.1799 3.70568 42.9824 4.63643 43.0022C7.31482 43.0614 9.99321 43.0417 12.6716 43.0071C13.3598 42.9972 13.5925 43.175 13.5875 43.8958C13.5677 56.8064 13.5677 69.717 13.5875 82.6226ZM99.2316 67.4607C99.1127 67.3422 98.984 67.2435 98.8603 67.1299C95.7165 64.2861 91.8499 63.3975 87.7952 63.3283C80.5819 63.2098 73.3636 63.2493 66.1503 63.2839C65.1452 63.2888 64.5165 62.9975 63.8778 62.2175C61.1796 58.9145 57.6497 56.9891 53.397 56.6385C49.2878 56.2979 45.1588 56.5497 41.0348 56.5348C40.1882 56.5299 39.5991 56.3225 39.0099 55.6758C33.8017 49.9833 27.3508 46.8828 19.6077 46.4532C18.7215 46.4039 17.4937 46.8136 17.0234 46.1619C16.5827 45.5596 16.8798 44.4191 16.8748 43.5206C16.8649 40.8693 15.6272 39.6252 12.934 39.6104C10.0081 39.5956 7.07718 39.6054 4.15125 39.6104C1.25998 39.6153 0.00742622 40.8595 0.00247541 43.7181V69.87C0.00247541 74.348 -0.00742622 78.8309 0.012377 83.3138C0.0173278 85.3381 1.24513 86.7846 3.2007 86.834C6.74548 86.9179 10.2952 86.913 13.835 86.8192C15.6421 86.7698 16.8352 85.3578 16.8699 83.5607C16.8847 82.8695 16.8748 82.1783 16.8748 81.3044C17.5828 81.6451 18.1026 81.8771 18.6126 82.1339C25.0981 85.4171 31.5985 88.6706 38.0594 91.9983C42.9112 94.4964 47.7827 94.6199 52.8128 92.571C67.7989 86.4736 82.8048 80.4256 97.8008 74.3579C101.489 72.8669 102.019 70.3242 99.2316 67.4607Z" fill="white"/>
</g>
<mask id="mask2_0_38" style="mask-type:alpha" maskUnits="userSpaceOnUse" x="0" y="39" width="101" height="55">
<path fill-rule="evenodd" clip-rule="evenodd" d="M0 39.6025H101V93.9998H0V39.6025Z" fill="white"/>
</mask>
<g mask="url(#mask2_0_38)">
<path fill-rule="evenodd" clip-rule="evenodd" d="M96.568 71.2179C81.369 77.3448 66.18 83.5064 50.9859 89.663C47.3966 91.1145 43.827 91.1046 40.3516 89.3618C32.7867 85.5652 25.2516 81.7043 17.6868 77.9077C17.0135 77.572 16.86 77.1622 16.86 76.4759C16.8798 67.9248 16.8847 59.3688 16.855 50.8127C16.8501 49.9833 17.0135 49.6772 17.9195 49.7068C25.9546 50.003 32.762 52.7629 37.6583 59.3885C38.0297 59.8872 38.4356 59.8872 38.9257 59.8872C43.0102 59.8822 47.0946 59.8872 51.179 59.8872C57.5606 59.8872 62.3777 63.6098 64.0808 70.0033H58.8082C51.3424 70.0033 43.8815 70.0033 36.4157 70.0083C36.0048 70.0083 35.579 69.9836 35.1879 70.0823C34.3908 70.2798 33.9007 70.8032 33.8858 71.6622C33.8759 72.5756 34.3958 73.1187 35.2473 73.3211C35.6384 73.41 36.0642 73.3754 36.4751 73.3754C45.4262 73.3803 54.3772 73.3754 63.3233 73.3754C66.7245 73.3754 68.1108 71.5437 67.185 68.2753C66.7196 66.6313 66.7245 66.6214 68.4425 66.6362C75.2053 66.6905 81.9681 66.4437 88.726 66.7646C91.7311 66.9028 94.5729 67.6779 96.8453 69.87C97.5334 70.5365 97.5532 70.818 96.568 71.2179ZM13.5875 82.6226C13.5875 83.3533 13.34 83.5163 12.6617 83.5064C9.93875 83.4768 7.21581 83.457 4.49781 83.5163C3.62647 83.536 3.40368 83.2793 3.40863 82.4202C3.44329 76.0513 3.42844 69.6775 3.42844 63.3037C3.42844 56.9298 3.45319 50.5609 3.40368 44.1871C3.39378 43.1799 3.70568 42.9824 4.63643 43.0022C7.31482 43.0614 9.99321 43.0417 12.6716 43.0071C13.3598 42.9972 13.5925 43.175 13.5875 43.8958C13.5677 56.8064 13.5677 69.717 13.5875 82.6226ZM99.2316 67.4607C99.1127 67.3422 98.984 67.2435 98.8603 67.1299C95.7165 64.2861 91.8499 63.3975 87.7952 63.3283C80.5819 63.2098 73.3636 63.2493 66.1503 63.2839C65.1452 63.2888 64.5165 62.9975 63.8778 62.2175C61.1796 58.9145 57.6497 56.9891 53.397 56.6385C49.2878 56.2979 45.1588 56.5497 41.0348 56.5348C40.1882 56.5299 39.5991 56.3225 39.0099 55.6758C33.8017 49.9833 27.3508 46.8828 19.6077 46.4532C18.7215 46.4039 17.4937 46.8136 17.0234 46.1619C16.5827 45.5596 16.8798 44.4191 16.8748 43.5206C16.8649 40.8693 15.6272 39.6252 12.934 39.6104C10.0081 39.5956 7.07718 39.6054 4.15125 39.6104C1.25998 39.6153 0.00742622 40.8595 0.00247541 43.7181V69.87C0.00247541 74.348 -0.00742622 78.8309 0.012377 83.3138C0.0173278 85.3381 1.24513 86.7846 3.2007 86.834C6.74548 86.9179 10.2952 86.913 13.835 86.8192C15.6421 86.7698 16.8352 85.3578 16.8699 83.5607C16.8847 82.8695 16.8748 82.1783 16.8748 81.3044C17.5828 81.6451 18.1026 81.8771 18.6126 82.1339C25.0981 85.4171 31.5985 88.6706 38.0594 91.9983C42.9112 94.4964 47.7827 94.6199 52.8128 92.571C67.7989 86.4736 82.8048 80.4256 97.8008 74.3579C101.489 72.8669 102.019 70.3242 99.2316 67.4607Z" fill="white"/>
</g>
<path fill-rule="evenodd" clip-rule="evenodd" d="M72.5319 37.4872C71.6754 37.428 71.1209 36.9639 71.111 36.1196C71.0961 35.2902 71.5962 34.7224 72.4725 34.7027C73.3438 34.6829 73.8735 35.226 73.8983 36.0554C73.923 36.8948 73.4032 37.3983 72.5319 37.4872Z" fill="white"/>
<path fill-rule="evenodd" clip-rule="evenodd" d="M75.1162 40.3658C75.0469 41.2051 74.6459 41.7778 73.7696 41.8025C72.9032 41.8272 72.3685 41.3039 72.3338 40.4646C72.2942 39.6203 72.8141 39.0772 73.6706 39.0427C74.5369 39.0081 75.0122 39.5166 75.1162 40.3658Z" fill="white"/>
<path fill-rule="evenodd" clip-rule="evenodd" d="M72.3288 31.7158C72.3684 30.8765 72.9229 30.4272 73.7646 30.3877C74.6409 30.4963 75.136 30.9802 75.0963 31.8343C75.0518 32.6884 74.5121 33.2068 73.6606 33.1673C72.814 33.1229 72.2942 32.56 72.3288 31.7158Z" fill="white"/>
<path fill-rule="evenodd" clip-rule="evenodd" d="M75.8736 28.8332C75.0469 28.8233 74.4973 28.3197 74.5072 27.4409C74.5122 26.5571 75.0766 26.0684 75.8984 26.0684C76.7351 26.0684 77.2054 26.6114 77.2698 27.352C77.2252 28.3543 76.7054 28.843 75.8736 28.8332Z" fill="white"/>
<path fill-rule="evenodd" clip-rule="evenodd" d="M79.458 31.8244C79.364 32.6489 78.8788 33.1772 78.0371 33.1624C77.2005 33.1476 76.6856 32.6391 76.6905 31.7553C76.6905 30.8518 77.2549 30.3877 78.0768 30.3976C78.9085 30.4026 79.4036 30.9259 79.458 31.8244Z" fill="white"/>
<path fill-rule="evenodd" clip-rule="evenodd" d="M79.4333 40.4306C79.4135 41.2946 78.8936 41.8179 78.0421 41.8031C77.2004 41.7883 76.7202 41.2699 76.6757 40.4306C76.7103 39.5024 77.25 39.0235 78.0718 39.0334C78.8986 39.0432 79.4531 39.5518 79.4333 40.4306Z" fill="white"/>
<path fill-rule="evenodd" clip-rule="evenodd" d="M81.6116 27.4895C81.5819 28.3239 81.0522 28.7929 80.2254 28.8373C79.3145 28.7633 78.8243 28.2696 78.8441 27.4154C78.8639 26.5613 79.4135 26.038 80.2601 26.0676C81.0968 26.0923 81.6364 26.6354 81.6116 27.4895Z" fill="white"/>
<path fill-rule="evenodd" clip-rule="evenodd" d="M79.5224 47.2187C72.5269 47.2187 66.7889 41.4719 66.8285 34.5007C66.8632 27.6134 72.616 21.9061 79.5372 21.8863C86.4585 21.8616 92.1866 27.5838 92.1915 34.5204C92.1915 41.5707 86.5624 47.2187 79.5224 47.2187ZM79.5224 20.2373C71.6011 20.2472 65.1403 26.6852 65.1304 34.5748C65.1254 42.41 71.6605 48.9319 79.5372 48.9418C87.3892 48.9566 93.8748 42.484 93.9243 34.5748C93.9738 26.7395 87.4288 20.2275 79.5224 20.2373Z" fill="white"/>
<path fill-rule="evenodd" clip-rule="evenodd" d="M31.7867 16.7322C30.9401 16.7075 30.4747 16.1644 30.4301 15.2658C30.5737 14.4709 31.0193 13.9229 31.8906 13.9674C32.7323 14.0118 33.2373 14.5203 33.2076 15.4041C33.1828 16.2977 32.6135 16.7568 31.7867 16.7322Z" fill="white"/>
<path fill-rule="evenodd" clip-rule="evenodd" d="M34.4453 11.0396C34.3957 11.8987 33.9155 12.4319 33.0689 12.4319C32.2421 12.4319 31.6926 11.9283 31.6778 11.0495C31.6629 10.1559 32.2124 9.66708 33.0442 9.66215C33.8759 9.65721 34.4056 10.1312 34.4453 11.0396Z" fill="white"/>
<path fill-rule="evenodd" clip-rule="evenodd" d="M34.4453 19.7191C34.371 20.5831 33.866 21.0965 33.0244 21.0669C32.2026 21.0422 31.658 20.5386 31.6778 19.645C31.6926 18.7514 32.2471 18.2873 33.0838 18.3021C33.9254 18.3219 34.4205 18.8304 34.4453 19.7191Z" fill="white"/>
<path fill-rule="evenodd" clip-rule="evenodd" d="M33.8561 6.68518C33.8561 5.80637 34.4106 5.31266 35.2522 5.32747C36.0939 5.34722 36.6286 5.87056 36.6137 6.73949C36.6038 7.60349 36.0592 8.03796 35.2423 8.10214C34.3264 8.03796 33.8512 7.54424 33.8561 6.68518Z" fill="white"/>
<path fill-rule="evenodd" clip-rule="evenodd" d="M36.183 16.7422C35.2522 16.6483 34.7621 16.1596 34.7968 15.3005C34.8314 14.4513 35.3612 13.928 36.2226 13.9626C37.0791 13.9971 37.594 14.5501 37.5593 15.3993C37.5296 16.2435 36.985 16.6977 36.183 16.7422Z" fill="white"/>
<path fill-rule="evenodd" clip-rule="evenodd" d="M38.7871 11.0447C38.7822 11.879 38.2475 12.4271 37.386 12.432C36.5147 12.432 36.0048 11.8642 35.9998 11.0348C35.9949 10.1955 36.5197 9.70671 37.4009 9.64746C38.2524 9.72646 38.797 10.2103 38.7871 11.0447Z" fill="white"/>
<path fill-rule="evenodd" clip-rule="evenodd" d="M38.7871 19.6744C38.7871 20.5039 38.2723 21.0618 37.4009 21.0717C36.5246 21.0766 36.0097 20.5236 35.9998 19.6893C35.9899 18.8549 36.5048 18.3513 37.391 18.2871C38.2376 18.3612 38.7921 18.8302 38.7871 19.6744Z" fill="white"/>
<path fill-rule="evenodd" clip-rule="evenodd" d="M39.4703 8.08743C38.594 8.04299 38.1237 7.45054 38.1633 6.62604C38.2079 5.77685 38.7871 5.2782 39.6387 5.32757C40.5051 5.37201 40.916 5.94965 40.9506 6.76921C40.8417 7.67271 40.3219 8.13186 39.4703 8.08743Z" fill="white"/>
<path fill-rule="evenodd" clip-rule="evenodd" d="M43.1092 11.0885C43.025 11.9575 42.5002 12.4561 41.6734 12.4265C40.8417 12.3969 40.3219 11.8637 40.3417 10.9898C40.3615 10.0962 40.9259 9.64689 41.7626 9.66664C42.619 9.68639 43.0795 10.2147 43.1092 11.0885Z" fill="white"/>
<mask id="mask3_0_38" style="mask-type:alpha" maskUnits="userSpaceOnUse" x="24" y="0" width="30" height="29">
<path fill-rule="evenodd" clip-rule="evenodd" d="M24.5436 0H53.2534V28.6949H24.5436V0Z" fill="white"/>
</mask>
<g mask="url(#mask3_0_38)">
<path fill-rule="evenodd" clip-rule="evenodd" d="M38.8069 26.9814C31.8758 26.9419 26.2022 21.2001 26.2368 14.2733C26.2715 7.34154 31.9847 1.64902 38.9158 1.64409C45.8965 1.63915 51.6295 7.39091 51.5998 14.3769C51.5751 21.3729 45.8371 27.0209 38.8069 26.9814ZM38.8663 2.29589e-05C30.9995 0.00989722 24.5535 6.42817 24.5436 14.2486C24.5387 22.2072 31.0688 28.744 38.9753 28.6946C46.847 28.6453 53.2484 22.2369 53.2534 14.3967C53.2583 6.34424 46.9065 -0.0098513 38.8663 2.29589e-05Z" fill="white"/>
</g>
<path fill-rule="evenodd" clip-rule="evenodd" d="M72.5319 37.4872C71.6754 37.428 71.1209 36.9639 71.111 36.1196C71.0961 35.2902 71.5962 34.7224 72.4725 34.7027C73.3438 34.6829 73.8735 35.226 73.8983 36.0554C73.923 36.8948 73.4032 37.3983 72.5319 37.4872Z" fill="white"/>
<path fill-rule="evenodd" clip-rule="evenodd" d="M75.1162 40.3658C75.0469 41.2051 74.6459 41.7778 73.7696 41.8025C72.9032 41.8272 72.3685 41.3039 72.3338 40.4646C72.2942 39.6203 72.8141 39.0772 73.6706 39.0427C74.5369 39.0081 75.0122 39.5166 75.1162 40.3658Z" fill="white"/>
<path fill-rule="evenodd" clip-rule="evenodd" d="M72.3288 31.7158C72.3684 30.8765 72.9229 30.4272 73.7646 30.3877C74.6409 30.4963 75.136 30.9802 75.0963 31.8343C75.0518 32.6884 74.5121 33.2068 73.6606 33.1673C72.814 33.1229 72.2942 32.56 72.3288 31.7158Z" fill="white"/>
<path fill-rule="evenodd" clip-rule="evenodd" d="M75.8736 28.8332C75.0469 28.8233 74.4973 28.3197 74.5072 27.4409C74.5122 26.5571 75.0766 26.0684 75.8984 26.0684C76.7351 26.0684 77.2054 26.6114 77.2698 27.352C77.2252 28.3543 76.7054 28.843 75.8736 28.8332Z" fill="white"/>
<path fill-rule="evenodd" clip-rule="evenodd" d="M79.458 31.8244C79.364 32.6489 78.8788 33.1772 78.0371 33.1624C77.2005 33.1476 76.6856 32.6391 76.6905 31.7553C76.6905 30.8518 77.2549 30.3877 78.0768 30.3976C78.9085 30.4026 79.4036 30.9259 79.458 31.8244Z" fill="white"/>
<path fill-rule="evenodd" clip-rule="evenodd" d="M79.4333 40.4306C79.4135 41.2946 78.8936 41.8179 78.0421 41.8031C77.2004 41.7883 76.7202 41.2699 76.6757 40.4306C76.7103 39.5024 77.25 39.0235 78.0718 39.0334C78.8986 39.0432 79.4531 39.5518 79.4333 40.4306Z" fill="white"/>
<path fill-rule="evenodd" clip-rule="evenodd" d="M81.6116 27.4895C81.5819 28.3239 81.0522 28.7929 80.2254 28.8373C79.3145 28.7633 78.8243 28.2696 78.8441 27.4154C78.8639 26.5613 79.4135 26.038 80.2601 26.0676C81.0968 26.0923 81.6364 26.6354 81.6116 27.4895Z" fill="white"/>
<path fill-rule="evenodd" clip-rule="evenodd" d="M31.7867 16.7322C30.9401 16.7075 30.4747 16.1644 30.4301 15.2658C30.5737 14.4709 31.0193 13.9229 31.8906 13.9674C32.7323 14.0118 33.2373 14.5203 33.2076 15.4041C33.1828 16.2977 32.6135 16.7568 31.7867 16.7322Z" fill="white"/>
<path fill-rule="evenodd" clip-rule="evenodd" d="M34.4453 11.0396C34.3957 11.8987 33.9155 12.4319 33.0689 12.4319C32.2421 12.4319 31.6926 11.9283 31.6778 11.0495C31.6629 10.1559 32.2124 9.66708 33.0442 9.66215C33.8759 9.65721 34.4056 10.1312 34.4453 11.0396Z" fill="white"/>
<path fill-rule="evenodd" clip-rule="evenodd" d="M34.4453 19.7191C34.371 20.5831 33.866 21.0965 33.0244 21.0669C32.2026 21.0422 31.658 20.5386 31.6778 19.645C31.6926 18.7514 32.2471 18.2873 33.0838 18.3021C33.9254 18.3219 34.4205 18.8304 34.4453 19.7191Z" fill="white"/>
<path fill-rule="evenodd" clip-rule="evenodd" d="M33.8561 6.68518C33.8561 5.80637 34.4106 5.31266 35.2522 5.32747C36.0939 5.34722 36.6286 5.87056 36.6137 6.73949C36.6038 7.60349 36.0592 8.03796 35.2423 8.10214C34.3264 8.03796 33.8512 7.54424 33.8561 6.68518Z" fill="white"/>
<path fill-rule="evenodd" clip-rule="evenodd" d="M36.183 16.7422C35.2522 16.6483 34.7621 16.1596 34.7968 15.3005C34.8314 14.4513 35.3612 13.928 36.2226 13.9626C37.0791 13.9971 37.594 14.5501 37.5593 15.3993C37.5296 16.2435 36.985 16.6977 36.183 16.7422Z" fill="white"/>
<path fill-rule="evenodd" clip-rule="evenodd" d="M38.7871 11.0447C38.7822 11.879 38.2475 12.4271 37.386 12.432C36.5147 12.432 36.0048 11.8642 35.9998 11.0348C35.9949 10.1955 36.5197 9.70671 37.4009 9.64746C38.2524 9.72646 38.797 10.2103 38.7871 11.0447Z" fill="white"/>
<path fill-rule="evenodd" clip-rule="evenodd" d="M38.7871 19.6744C38.7871 20.5039 38.2723 21.0618 37.4009 21.0717C36.5246 21.0766 36.0097 20.5236 35.9998 19.6893C35.9899 18.8549 36.5048 18.3513 37.391 18.2871C38.2376 18.3612 38.7921 18.8302 38.7871 19.6744Z" fill="white"/>
<path fill-rule="evenodd" clip-rule="evenodd" d="M39.4703 8.08743C38.594 8.04299 38.1237 7.45054 38.1633 6.62604C38.2079 5.77685 38.7871 5.2782 39.6387 5.32757C40.5051 5.37201 40.916 5.94965 40.9506 6.76921C40.8417 7.67271 40.3219 8.13186 39.4703 8.08743Z" fill="white"/>
<path fill-rule="evenodd" clip-rule="evenodd" d="M43.1092 11.0885C43.025 11.9575 42.5002 12.4561 41.6734 12.4265C40.8417 12.3969 40.3219 11.8637 40.3417 10.9898C40.3615 10.0962 40.9259 9.64689 41.7626 9.66664C42.619 9.68639 43.0795 10.2147 43.1092 11.0885Z" fill="white"/>
<path fill-rule="evenodd" clip-rule="evenodd" d="M73.8983 36.0554C73.923 36.8948 73.4032 37.3983 72.5319 37.4872C71.6754 37.428 71.1209 36.9639 71.111 36.1196C71.0961 35.2902 71.5962 34.7224 72.4725 34.7027C73.3438 34.6829 73.8735 35.226 73.8983 36.0554Z" fill="white"/>
<path fill-rule="evenodd" clip-rule="evenodd" d="M77.2698 27.352C77.2252 28.3543 76.7054 28.843 75.8736 28.8332C75.0469 28.8233 74.4973 28.3197 74.5072 27.4409C74.5122 26.5571 75.0766 26.0684 75.8984 26.0684C76.7351 26.0684 77.2054 26.6114 77.2698 27.352Z" fill="white"/>
<path fill-rule="evenodd" clip-rule="evenodd" d="M81.6116 27.4895C81.5819 28.3239 81.0522 28.7929 80.2254 28.8373C79.3145 28.7633 78.8243 28.2696 78.8441 27.4154C78.8639 26.5613 79.4135 26.038 80.2601 26.0676C81.0968 26.0923 81.6364 26.6354 81.6116 27.4895Z" fill="white"/>
<path fill-rule="evenodd" clip-rule="evenodd" d="M79.458 31.8244C79.364 32.6489 78.8788 33.1772 78.0371 33.1624C77.2005 33.1476 76.6856 32.6391 76.6905 31.7553C76.6905 30.8518 77.2549 30.3877 78.0768 30.3976C78.9085 30.4026 79.4036 30.9259 79.458 31.8244Z" fill="white"/>
<path fill-rule="evenodd" clip-rule="evenodd" d="M75.0963 31.8343C75.0518 32.6884 74.5121 33.2068 73.6606 33.1673C72.814 33.1229 72.2942 32.56 72.3288 31.7158C72.3684 30.8765 72.9229 30.4272 73.7646 30.3877C74.6409 30.4963 75.136 30.9802 75.0963 31.8343Z" fill="white"/>
<path fill-rule="evenodd" clip-rule="evenodd" d="M79.4333 40.4306C79.4135 41.2946 78.8936 41.8179 78.0421 41.8031C77.2004 41.7883 76.7202 41.2699 76.6757 40.4306C76.7103 39.5024 77.25 39.0235 78.0718 39.0334C78.8986 39.0432 79.4531 39.5518 79.4333 40.4306Z" fill="white"/>
<path fill-rule="evenodd" clip-rule="evenodd" d="M75.1162 40.3658C75.0469 41.2051 74.6459 41.7778 73.7696 41.8025C72.9032 41.8272 72.3685 41.3039 72.3338 40.4646C72.2942 39.6203 72.8141 39.0772 73.6706 39.0427C74.5369 39.0081 75.0122 39.5166 75.1162 40.3658Z" fill="white"/>
<path fill-rule="evenodd" clip-rule="evenodd" d="M34.4453 11.0396C34.3957 11.8987 33.9155 12.4319 33.0689 12.4319C32.2421 12.4319 31.6926 11.9283 31.6778 11.0495C31.6629 10.1559 32.2124 9.66708 33.0442 9.66215C33.8759 9.65721 34.4056 10.1312 34.4453 11.0396Z" fill="white"/>
<path fill-rule="evenodd" clip-rule="evenodd" d="M43.1092 11.0885C43.025 11.9575 42.5002 12.4561 41.6734 12.4265C40.8417 12.3969 40.3219 11.8637 40.3417 10.9898C40.3615 10.0962 40.9259 9.64689 41.7626 9.66664C42.619 9.68639 43.0795 10.2147 43.1092 11.0885Z" fill="white"/>
<path fill-rule="evenodd" clip-rule="evenodd" d="M37.5593 15.3993C37.5296 16.2435 36.985 16.6977 36.183 16.7422C35.2522 16.6483 34.7621 16.1596 34.7968 15.3005C34.8314 14.4513 35.3612 13.928 36.2226 13.9626C37.0791 13.9971 37.594 14.5501 37.5593 15.3993Z" fill="white"/>
<path fill-rule="evenodd" clip-rule="evenodd" d="M34.4453 19.7191C34.371 20.5831 33.866 21.0965 33.0244 21.0669C32.2026 21.0422 31.658 20.5386 31.6778 19.645C31.6926 18.7514 32.2471 18.2873 33.0838 18.3021C33.9254 18.3219 34.4205 18.8304 34.4453 19.7191Z" fill="white"/>
<path fill-rule="evenodd" clip-rule="evenodd" d="M36.6137 6.73949C36.6038 7.60349 36.0592 8.03796 35.2423 8.10214C34.3264 8.03796 33.8512 7.54424 33.8561 6.68518C33.8561 5.80637 34.4106 5.31266 35.2522 5.32747C36.0939 5.34722 36.6286 5.87056 36.6137 6.73949Z" fill="white"/>
<path fill-rule="evenodd" clip-rule="evenodd" d="M40.9506 6.76921C40.8417 7.67271 40.3219 8.13186 39.4703 8.08743C38.594 8.04299 38.1237 7.45054 38.1633 6.62604C38.2079 5.77685 38.7871 5.2782 39.6387 5.32757C40.5051 5.37201 40.916 5.94965 40.9506 6.76921Z" fill="white"/>
<path fill-rule="evenodd" clip-rule="evenodd" d="M38.7871 11.0447C38.7822 11.879 38.2475 12.4271 37.386 12.432C36.5147 12.432 36.0048 11.8642 35.9998 11.0348C35.9949 10.1955 36.5197 9.70671 37.4009 9.64746C38.2524 9.72646 38.797 10.2103 38.7871 11.0447Z" fill="white"/>
<path fill-rule="evenodd" clip-rule="evenodd" d="M33.2076 15.4041C33.1828 16.2977 32.6135 16.7568 31.7867 16.7322C30.9401 16.7075 30.4747 16.1644 30.4301 15.2658C30.5737 14.4709 31.0193 13.9229 31.8906 13.9674C32.7323 14.0118 33.2373 14.5203 33.2076 15.4041Z" fill="white"/>
<path fill-rule="evenodd" clip-rule="evenodd" d="M38.7871 19.6744C38.7871 20.5039 38.2723 21.0618 37.4009 21.0717C36.5246 21.0766 36.0097 20.5236 35.9998 19.6893C35.9899 18.8549 36.5048 18.3513 37.391 18.2871C38.2376 18.3612 38.7921 18.8302 38.7871 19.6744Z" fill="white"/>
</svg>
