<svg width="101" height="87" viewBox="0 0 101 87" fill="none" xmlns="http://www.w3.org/2000/svg">
<path fill-rule="evenodd" clip-rule="evenodd" d="M6.00043 71.3729C5.37607 71.3481 4.91028 70.9466 4.94992 70.2428C4.98957 69.5736 5.36616 69.1821 6.06485 69.2019C6.76849 69.2217 7.07571 69.653 7.14013 70.2874C7.05093 70.9863 6.63965 71.4027 6.00043 71.3729Z" fill="#1E1E1C"/>
<path fill-rule="evenodd" clip-rule="evenodd" d="M7.94289 74.0643C7.83883 74.6144 7.44737 74.9912 6.77346 74.9168C6.10946 74.8375 5.7626 74.3864 5.83197 73.7173C5.90134 73.0432 6.34236 72.6615 7.0014 72.7408C7.65549 72.8152 7.99244 73.2613 7.94289 74.0643Z" fill="#1E1E1C"/>
<path fill-rule="evenodd" clip-rule="evenodd" d="M10.8764 77.6732C10.8714 78.3573 10.4453 78.6943 9.8556 78.7786C9.13214 78.7042 8.69112 78.3721 8.68617 77.6831C8.68121 76.9942 9.12718 76.6075 9.77631 76.6026C10.4354 76.5976 10.8764 76.9793 10.8764 77.6732Z" fill="#1E1E1C"/>
<path fill-rule="evenodd" clip-rule="evenodd" d="M11.362 74.2776C11.2876 74.9468 10.9259 75.3978 10.2817 75.4077C9.58801 75.4127 9.13213 74.9963 9.16186 74.2528C9.18664 73.5787 9.61279 73.2119 10.2669 73.2119C10.9457 73.2119 11.2579 73.663 11.362 74.2776Z" fill="#1E1E1C"/>
<path fill-rule="evenodd" clip-rule="evenodd" d="M14.0775 79.7996C13.9041 80.4391 13.6266 80.9397 12.9279 80.905C12.2193 80.8752 11.7882 80.4837 11.8476 79.7253C11.9022 79.0462 12.3531 78.6844 12.9923 78.7191C13.6315 78.7538 13.9784 79.2048 14.0775 79.7996Z" fill="#1E1E1C"/>
<path fill-rule="evenodd" clip-rule="evenodd" d="M17.2686 81.1977C17.2686 81.8867 16.8573 82.3823 16.124 82.3476C15.4748 82.3179 15.0883 81.9065 15.0982 81.2225C15.1081 80.5335 15.5194 80.2162 16.1438 80.1221C16.8276 80.1865 17.2637 80.5483 17.2686 81.1977Z" fill="#1E1E1C"/>
<path fill-rule="evenodd" clip-rule="evenodd" d="M17.7542 77.8812C17.6403 78.4958 17.3529 78.9568 16.6344 78.937C15.9406 78.9171 15.5591 78.5305 15.5591 77.8465C15.5541 77.1525 16.0001 76.7511 16.6443 76.7461C17.3033 76.7461 17.6551 77.217 17.7542 77.8812Z" fill="#1E1E1C"/>
<path fill-rule="evenodd" clip-rule="evenodd" d="M20.7719 80.7808C20.7521 81.4302 20.3259 81.7969 19.6669 81.8812C19.0524 81.7623 18.5668 81.4748 18.5767 80.7858C18.5817 80.0671 19.0079 79.6309 19.7363 79.6606C20.3953 79.6854 20.7967 80.1216 20.7719 80.7808Z" fill="#1E1E1C"/>
<mask id="mask0_0_264" style="mask-type:alpha" maskUnits="userSpaceOnUse" x="0" y="53" width="56" height="34">
<path fill-rule="evenodd" clip-rule="evenodd" d="M0 53.0098H55.6378V86.9996H0V53.0098Z" fill="white"/>
</mask>
<g mask="url(#mask0_0_264)">
<path fill-rule="evenodd" clip-rule="evenodd" d="M16.7979 84.3096C9.00335 84.2601 2.64582 77.7916 2.67059 69.9302C2.69537 61.9648 9.13714 55.6103 17.1398 55.6549C24.9393 55.6946 31.2919 62.1581 31.2671 70.0195C31.2374 77.9799 24.7807 84.3542 16.7979 84.3096ZM54.7151 69.2809C54.4228 69.2759 54.1354 69.2809 53.848 69.2809C47.5747 69.2809 41.3063 69.266 35.038 69.2958C34.27 69.2958 33.9479 69.2115 33.8339 68.2896C32.823 60.2448 26.9115 54.1184 19.33 53.1568C7.7249 51.6896 -1.62557 61.4146 0.237585 73.0133C1.68946 82.0395 11.0598 88.5327 19.9692 86.6839C27.6944 85.0779 32.8528 79.5215 33.8388 71.6403C33.9429 70.8175 34.1956 70.6589 34.9439 70.6688C38.1647 70.7035 41.3807 70.6837 44.5966 70.6837H52.6439C53.3425 70.6837 54.0462 70.6837 54.7449 70.6787C55.1958 70.6737 55.612 70.535 55.6368 70.0244C55.6616 69.4296 55.2107 69.2958 54.7151 69.2809Z" fill="#1E1E1C"/>
</g>
<path fill-rule="evenodd" clip-rule="evenodd" d="M42.9713 8.56626C42.8821 9.31968 42.4659 9.72613 41.8217 9.69639C41.1924 9.66665 40.7761 9.25524 40.8059 8.55139C40.8406 7.84754 41.237 7.49562 41.9158 7.51544C42.6145 7.53527 42.9019 7.99624 42.9713 8.56626Z" fill="#1E1E1C"/>
<path fill-rule="evenodd" clip-rule="evenodd" d="M44.3438 7.15375C43.7046 7.1488 43.2537 6.76713 43.2636 6.06328C43.2735 5.38421 43.665 4.96289 44.3389 4.96289C45.0128 4.96289 45.3795 5.38421 45.434 6.07815C45.3894 6.73739 44.993 7.15871 44.3438 7.15375Z" fill="#1E1E1C"/>
<path fill-rule="evenodd" clip-rule="evenodd" d="M47.1088 9.06245C47.0841 9.63743 46.7719 10.0488 46.0682 10.0736C45.3547 10.0984 44.9979 9.67708 44.9583 9.02775C44.9186 8.33877 45.3597 7.93232 46.0088 7.91745C46.648 7.90258 47.094 8.24955 47.1088 9.06245Z" fill="#1E1E1C"/>
<path fill-rule="evenodd" clip-rule="evenodd" d="M48.8284 5.26566C48.7639 5.93482 48.3626 6.3264 47.7035 6.28179C47.0494 6.23718 46.6431 5.80099 46.6927 5.12192C46.7373 4.46268 47.1337 4.05623 47.8225 4.09093C48.5162 4.12562 48.8135 4.57668 48.8284 5.26566Z" fill="#1E1E1C"/>
<path fill-rule="evenodd" clip-rule="evenodd" d="M51.5289 6.0488C50.8649 6.02897 50.4933 5.60766 50.4833 4.94346C50.4734 4.25448 50.9244 3.95212 51.5041 3.82324C52.2028 3.89264 52.6438 4.28917 52.6636 4.9038C52.6785 5.57296 52.2672 6.07359 51.5289 6.0488Z" fill="#1E1E1C"/>
<path fill-rule="evenodd" clip-rule="evenodd" d="M54.3336 7.86282C54.3732 8.5518 53.9372 8.89381 53.288 9.02764C52.6885 8.91364 52.2177 8.66084 52.2078 7.93717C52.2029 7.24323 52.5596 6.85165 53.2335 6.81695C53.9322 6.7773 54.294 7.21349 54.3336 7.86282Z" fill="#1E1E1C"/>
<path fill-rule="evenodd" clip-rule="evenodd" d="M57.2126 10.2572C57.1432 10.8471 56.8211 11.2684 56.1373 11.2634C55.3891 11.2585 55.0026 10.7925 55.0372 10.0936C55.0719 9.44928 55.5278 9.02796 56.172 9.07257C56.7914 9.11222 57.2076 9.49884 57.2126 10.2572Z" fill="#1E1E1C"/>
<path fill-rule="evenodd" clip-rule="evenodd" d="M57.2968 6.17761C57.3067 6.81702 56.9548 7.28295 56.2463 7.29287C55.5624 7.30278 55.1512 6.89633 55.1313 6.23709C55.1165 5.57785 55.5377 5.19618 56.2017 5.07227C56.8409 5.16149 57.2868 5.51837 57.2968 6.17761Z" fill="#1E1E1C"/>
<path fill-rule="evenodd" clip-rule="evenodd" d="M59.0162 9.56821C58.3176 9.52856 57.941 9.09732 57.9757 8.44304C58.0054 7.7838 58.4811 7.34761 59.1203 7.38726C59.7397 7.42692 60.1659 7.84824 60.1807 8.58678C60.0469 9.17663 59.7347 9.60787 59.0162 9.56821Z" fill="#1E1E1C"/>
<path fill-rule="evenodd" clip-rule="evenodd" d="M60.6762 10.3414C61.3898 10.2869 61.8555 10.733 61.8704 11.4368C61.8853 12.0763 61.4839 12.4777 60.805 12.5471C60.141 12.5174 59.7347 12.1704 59.6901 11.5062C59.6455 10.8371 60.0419 10.3959 60.6762 10.3414Z" fill="#1E1E1C"/>
<path fill-rule="evenodd" clip-rule="evenodd" d="M50.5973 31.2931C42.3171 31.3278 35.5434 24.5917 35.5335 16.3189C35.5285 8.07096 42.1635 1.38933 50.4338 1.31498C58.6941 1.24558 65.4629 7.97183 65.4976 16.2793C65.5323 24.4628 58.7932 31.2535 50.5973 31.2931ZM61.4492 4.23943C53.3227 -3.44346 39.458 -0.226559 35.4195 10.2023C32.7486 17.0922 34.6316 24.324 40.3896 28.9932C41.1775 29.6326 41.2022 30.0192 40.672 30.847C38.0458 34.9313 35.4988 39.0702 32.927 43.1892C32.6644 43.6105 32.4166 44.0368 32.1441 44.4482C31.9112 44.8001 31.827 45.1521 32.2234 45.4148C32.6347 45.6923 33.0014 45.5684 33.259 45.1421C33.4771 44.7902 33.705 44.4482 33.923 44.0963C36.5642 39.8732 39.2201 35.6649 41.8266 31.417C42.2775 30.6785 42.6095 30.4753 43.4321 30.9164C45.647 32.111 48.0652 32.567 50.5725 32.5323C51.1077 32.5323 51.6528 32.5967 52.178 32.5224C58.8229 31.5707 63.6047 28.0812 65.8346 21.7168C68.1734 15.045 66.5778 9.09204 61.4492 4.23943Z" fill="#1E1E1C"/>
<path fill-rule="evenodd" clip-rule="evenodd" d="M79.7736 79.9486C79.7538 80.6673 79.3573 81.0639 78.7033 81.0886C78.0293 81.1134 77.5933 80.6624 77.5834 80.018C77.5685 79.3786 77.9649 78.9226 78.6587 78.9027C79.3524 78.8879 79.6993 79.3042 79.7736 79.9486Z" fill="#1E1E1C"/>
<path fill-rule="evenodd" clip-rule="evenodd" d="M83.2075 81.3658C83.0737 82.0002 82.7417 82.4265 82.0381 82.3918C81.3493 82.3571 80.9628 81.9556 80.9975 81.2765C81.0272 80.6024 81.4831 80.1861 82.1273 80.2208C82.7517 80.2555 83.1629 80.6768 83.2075 81.3658Z" fill="#1E1E1C"/>
<path fill-rule="evenodd" clip-rule="evenodd" d="M81.0075 77.9857C80.9678 77.3264 81.3643 76.9348 82.0233 76.8506C82.7121 76.8605 83.1481 77.2075 83.1878 77.8667C83.2274 78.5359 82.831 78.9572 82.1571 78.9968C81.4782 79.0365 81.0471 78.64 81.0075 77.9857Z" fill="#1E1E1C"/>
<path fill-rule="evenodd" clip-rule="evenodd" d="M86.6018 81.2567C86.5176 81.9258 86.2252 82.3918 85.5166 82.4017C84.8328 82.4116 84.4463 82.0399 84.4166 81.3509C84.3869 80.6421 84.813 80.2455 85.4522 80.2207C86.1113 80.196 86.4978 80.6272 86.6018 81.2567Z" fill="#1E1E1C"/>
<path fill-rule="evenodd" clip-rule="evenodd" d="M86.6019 77.956C86.582 78.6053 86.1509 79.0217 85.477 79.0019C84.8081 78.9771 84.4117 78.5855 84.4265 77.8965C84.4463 77.2026 84.8725 76.8854 85.5563 76.8457C86.2253 76.9002 86.6167 77.3116 86.6019 77.956Z" fill="#1E1E1C"/>
<path fill-rule="evenodd" clip-rule="evenodd" d="M86.146 66.4063C86.1212 65.7074 86.5226 65.3158 87.1767 65.296C87.8456 65.2712 88.2123 65.6875 88.2817 66.3666C88.2421 67.0259 87.8902 67.4571 87.2262 67.4769C86.5573 67.4967 86.1708 67.0953 86.146 66.4063Z" fill="#1E1E1C"/>
<path fill-rule="evenodd" clip-rule="evenodd" d="M87.1816 74.2624C86.5424 74.2129 86.1509 73.8857 86.146 73.1868C86.141 72.483 86.5523 72.1211 87.2064 72.1211C87.8654 72.1162 88.2866 72.5028 88.2767 73.1868C88.2718 73.856 87.8952 74.2277 87.1816 74.2624Z" fill="#1E1E1C"/>
<path fill-rule="evenodd" clip-rule="evenodd" d="M89.9863 79.9683C89.9219 80.6325 89.5849 81.0786 88.911 81.0836C88.2421 81.0935 87.8209 80.6771 87.8159 80.008C87.811 79.3487 88.1876 78.9225 88.8764 78.9076C89.575 78.8927 89.8872 79.3339 89.9863 79.9683Z" fill="#1E1E1C"/>
<path fill-rule="evenodd" clip-rule="evenodd" d="M87.8258 62.9714C87.8208 62.3022 88.2569 61.8759 88.9159 61.8809C89.5651 61.8859 89.9516 62.3072 90.0061 63.011C89.907 63.6157 89.6097 64.0519 88.9011 64.0519C88.1776 64.0519 87.8307 63.6157 87.8258 62.9714Z" fill="#1E1E1C"/>
<path fill-rule="evenodd" clip-rule="evenodd" d="M89.9912 76.5632C89.9962 77.1977 89.6443 77.6636 88.9357 77.6735C88.242 77.6884 87.8506 77.2869 87.8307 76.6227C87.8109 75.9585 88.2222 75.5818 88.8713 75.4678C89.5304 75.552 89.9813 75.904 89.9912 76.5632Z" fill="#1E1E1C"/>
<path fill-rule="evenodd" clip-rule="evenodd" d="M90.6453 74.2534C89.9516 74.2831 89.5601 73.8915 89.5304 73.2273C89.4957 72.5532 89.8921 72.1319 90.5561 72.117C91.2052 72.0972 91.6314 72.4442 91.6809 73.1877C91.6661 73.8271 91.3341 74.2236 90.6453 74.2534Z" fill="#1E1E1C"/>
<path fill-rule="evenodd" clip-rule="evenodd" d="M90.6354 65.2911C91.2994 65.3158 91.6711 65.7173 91.6711 66.4113C91.6711 67.1449 91.1756 67.3679 90.6602 67.5216C89.9268 67.3927 89.5007 67.0209 89.5255 66.3567C89.5453 65.6975 89.9566 65.2663 90.6354 65.2911Z" fill="#1E1E1C"/>
<path fill-rule="evenodd" clip-rule="evenodd" d="M92.6571 69.7222C92.6274 70.4706 92.2211 70.8672 91.5769 70.887C90.9079 70.9068 90.4719 70.4459 90.4669 69.8015C90.457 69.1621 90.8386 68.7061 91.5472 68.7061C92.231 68.7061 92.5927 69.0927 92.6571 69.7222Z" fill="#1E1E1C"/>
<path fill-rule="evenodd" clip-rule="evenodd" d="M93.4103 76.5727C93.3112 77.3211 92.9346 77.7127 92.2508 77.678C91.562 77.6433 91.1706 77.1922 91.2102 76.538C91.2498 75.8985 91.6909 75.4624 92.3648 75.497C93.0337 75.5268 93.3608 75.9828 93.4103 76.5727Z" fill="#1E1E1C"/>
<path fill-rule="evenodd" clip-rule="evenodd" d="M91.2102 63.0261C91.1755 62.3668 91.6165 61.9158 92.2557 61.8811C92.8999 61.8464 93.3657 62.2281 93.3905 62.917C93.4153 63.5961 93.0188 63.9629 92.4837 64.062C91.6562 64.067 91.2498 63.6754 91.2102 63.0261Z" fill="#1E1E1C"/>
<path fill-rule="evenodd" clip-rule="evenodd" d="M94.0495 65.2666C94.664 65.3657 95.0951 65.6929 95.0951 66.367C95.1 67.1155 94.6293 67.507 93.9355 67.4773C93.2815 67.4476 92.89 66.9866 92.9148 66.3372C92.9445 65.6879 93.3607 65.3211 94.0495 65.2666Z" fill="#1E1E1C"/>
<path fill-rule="evenodd" clip-rule="evenodd" d="M95.0951 73.172C95.11 73.8709 94.6739 74.1882 94.0198 74.2774C93.3657 74.2229 92.9346 73.8808 92.9198 73.2067C92.9049 72.5326 93.3311 72.1212 93.9901 72.1163C94.6343 72.1113 95.0803 72.4731 95.0951 73.172Z" fill="#1E1E1C"/>
<path fill-rule="evenodd" clip-rule="evenodd" d="M95.0207 68.7112C95.7244 68.7409 96.0217 69.187 96.0911 69.8462C95.9622 70.4906 95.5609 70.9218 94.9167 70.8871C94.2725 70.8525 93.8414 70.4113 93.8761 69.7322C93.9058 69.0482 94.3369 68.6864 95.0207 68.7112Z" fill="#1E1E1C"/>
<mask id="mask1_0_264" style="mask-type:alpha" maskUnits="userSpaceOnUse" x="64" y="39" width="37" height="48">
<path fill-rule="evenodd" clip-rule="evenodd" d="M64.6166 39.6455H101V86.8679H64.6166V39.6455Z" fill="white"/>
</mask>
<g mask="url(#mask1_0_264)">
<path fill-rule="evenodd" clip-rule="evenodd" d="M84.1045 84.3102C76.2108 84.3301 69.7988 77.9508 69.7492 70.025C69.6997 62.1538 76.1365 55.6654 84.0103 55.6555C91.9188 55.6407 98.3259 62.015 98.3606 69.9308C98.3953 77.8219 91.9832 84.2904 84.1045 84.3102ZM100.863 67.8639C99.426 56.5378 87.5582 49.8165 77.1969 54.5105C76.305 54.917 76.0225 54.6543 75.6013 53.9703C72.9156 49.6183 70.2001 45.2911 67.4896 40.9589C67.2914 40.6466 67.0982 40.3195 66.8504 40.0568C66.3896 39.571 65.8049 39.5363 65.2598 39.8437C64.6999 40.1609 64.4967 40.7259 64.685 41.3356C64.8039 41.7222 65.0517 42.0692 65.2697 42.4162C67.9703 46.7533 70.6511 51.1003 73.3963 55.4027C73.8918 56.171 73.7976 56.523 73.1237 57.088C67.7126 61.5887 65.7553 69.1378 68.1982 75.8244C70.6015 82.387 76.9987 86.8629 83.9954 86.8679C94.2676 86.8828 102.146 78.0053 100.863 67.8639Z" fill="#1E1E1C"/>
</g>
<path fill-rule="evenodd" clip-rule="evenodd" d="M79.7736 79.9486C79.7538 80.6673 79.3573 81.0639 78.7033 81.0886C78.0293 81.1134 77.5933 80.6624 77.5834 80.018C77.5685 79.3786 77.9649 78.9226 78.6587 78.9027C79.3524 78.8879 79.6993 79.3042 79.7736 79.9486Z" fill="#FEFEFE"/>
<path fill-rule="evenodd" clip-rule="evenodd" d="M83.2075 81.3658C83.0737 82.0002 82.7417 82.4265 82.0381 82.3918C81.3493 82.3571 80.9628 81.9556 80.9975 81.2765C81.0272 80.6024 81.4831 80.1861 82.1273 80.2208C82.7517 80.2555 83.1629 80.6768 83.2075 81.3658Z" fill="#FEFEFE"/>
<path fill-rule="evenodd" clip-rule="evenodd" d="M81.0075 77.9857C80.9678 77.3264 81.3643 76.9348 82.0233 76.8506C82.7121 76.8605 83.1481 77.2075 83.1878 77.8667C83.2274 78.5359 82.831 78.9572 82.1571 78.9968C81.4782 79.0365 81.0471 78.64 81.0075 77.9857Z" fill="#FEFEFE"/>
<path fill-rule="evenodd" clip-rule="evenodd" d="M86.6018 81.2567C86.5176 81.9258 86.2252 82.3918 85.5166 82.4017C84.8328 82.4116 84.4463 82.0399 84.4166 81.3509C84.3869 80.6421 84.813 80.2455 85.4522 80.2207C86.1113 80.196 86.4978 80.6272 86.6018 81.2567Z" fill="#FEFEFE"/>
<path fill-rule="evenodd" clip-rule="evenodd" d="M86.6019 77.956C86.582 78.6053 86.1509 79.0217 85.477 79.0019C84.8081 78.9771 84.4117 78.5855 84.4265 77.8965C84.4463 77.2026 84.8725 76.8854 85.5563 76.8457C86.2253 76.9002 86.6167 77.3116 86.6019 77.956Z" fill="#FEFEFE"/>
<path fill-rule="evenodd" clip-rule="evenodd" d="M86.146 66.4063C86.1212 65.7074 86.5226 65.3158 87.1767 65.296C87.8456 65.2712 88.2123 65.6875 88.2817 66.3666C88.2421 67.0259 87.8902 67.4571 87.2262 67.4769C86.5573 67.4967 86.1708 67.0953 86.146 66.4063Z" fill="#FEFEFE"/>
<path fill-rule="evenodd" clip-rule="evenodd" d="M87.1816 74.2624C86.5424 74.2129 86.1509 73.8857 86.146 73.1868C86.141 72.483 86.5523 72.1211 87.2064 72.1211C87.8654 72.1162 88.2866 72.5028 88.2767 73.1868C88.2718 73.856 87.8952 74.2277 87.1816 74.2624Z" fill="#FEFEFE"/>
<path fill-rule="evenodd" clip-rule="evenodd" d="M89.9863 79.9683C89.9219 80.6325 89.5849 81.0786 88.911 81.0836C88.2421 81.0935 87.8209 80.6771 87.8159 80.008C87.811 79.3487 88.1876 78.9225 88.8764 78.9076C89.575 78.8927 89.8872 79.3339 89.9863 79.9683Z" fill="#FEFEFE"/>
<path fill-rule="evenodd" clip-rule="evenodd" d="M87.8258 62.9714C87.8208 62.3022 88.2569 61.8759 88.9159 61.8809C89.5651 61.8859 89.9516 62.3072 90.0061 63.011C89.907 63.6157 89.6097 64.0519 88.9011 64.0519C88.1776 64.0519 87.8307 63.6157 87.8258 62.9714Z" fill="#FEFEFE"/>
<path fill-rule="evenodd" clip-rule="evenodd" d="M89.9912 76.5632C89.9962 77.1977 89.6443 77.6636 88.9357 77.6735C88.242 77.6884 87.8506 77.2869 87.8307 76.6227C87.8109 75.9585 88.2222 75.5818 88.8713 75.4678C89.5304 75.552 89.9813 75.904 89.9912 76.5632Z" fill="#FEFEFE"/>
<path fill-rule="evenodd" clip-rule="evenodd" d="M90.6453 74.2534C89.9516 74.2831 89.5601 73.8915 89.5304 73.2273C89.4957 72.5532 89.8921 72.1319 90.5561 72.117C91.2052 72.0972 91.6314 72.4442 91.6809 73.1877C91.6661 73.8271 91.3341 74.2236 90.6453 74.2534Z" fill="#FEFEFE"/>
<path fill-rule="evenodd" clip-rule="evenodd" d="M90.6354 65.2911C91.2994 65.3158 91.6711 65.7173 91.6711 66.4113C91.6711 67.1449 91.1756 67.3679 90.6602 67.5216C89.9268 67.3927 89.5007 67.0209 89.5255 66.3567C89.5453 65.6975 89.9566 65.2663 90.6354 65.2911Z" fill="#FEFEFE"/>
<path fill-rule="evenodd" clip-rule="evenodd" d="M92.6571 69.7222C92.6274 70.4706 92.2211 70.8672 91.5769 70.887C90.9079 70.9068 90.4719 70.4459 90.4669 69.8015C90.457 69.1621 90.8386 68.7061 91.5472 68.7061C92.231 68.7061 92.5927 69.0927 92.6571 69.7222Z" fill="#FEFEFE"/>
<path fill-rule="evenodd" clip-rule="evenodd" d="M93.4103 76.5727C93.3112 77.3211 92.9346 77.7127 92.2508 77.678C91.562 77.6433 91.1706 77.1922 91.2102 76.538C91.2498 75.8985 91.6909 75.4624 92.3648 75.497C93.0337 75.5268 93.3608 75.9828 93.4103 76.5727Z" fill="#FEFEFE"/>
<path fill-rule="evenodd" clip-rule="evenodd" d="M91.2102 63.0261C91.1755 62.3668 91.6165 61.9158 92.2557 61.8811C92.8999 61.8464 93.3657 62.2281 93.3905 62.917C93.4153 63.5961 93.0188 63.9629 92.4837 64.062C91.6562 64.067 91.2498 63.6754 91.2102 63.0261Z" fill="#FEFEFE"/>
<path fill-rule="evenodd" clip-rule="evenodd" d="M94.0495 65.2666C94.664 65.3657 95.0951 65.6929 95.0951 66.367C95.1 67.1155 94.6293 67.507 93.9355 67.4773C93.2815 67.4476 92.89 66.9866 92.9148 66.3372C92.9445 65.6879 93.3607 65.3211 94.0495 65.2666Z" fill="#FEFEFE"/>
<path fill-rule="evenodd" clip-rule="evenodd" d="M95.0951 73.172C95.11 73.8709 94.6739 74.1882 94.0198 74.2774C93.3657 74.2229 92.9346 73.8808 92.9198 73.2067C92.9049 72.5326 93.3311 72.1212 93.9901 72.1163C94.6343 72.1113 95.0803 72.4731 95.0951 73.172Z" fill="#FEFEFE"/>
<path fill-rule="evenodd" clip-rule="evenodd" d="M95.0207 68.7112C95.7244 68.7409 96.0217 69.187 96.0911 69.8462C95.9622 70.4906 95.5609 70.9218 94.9167 70.8871C94.2725 70.8525 93.8414 70.4113 93.8761 69.7322C93.9058 69.0482 94.3369 68.6864 95.0207 68.7112Z" fill="#FEFEFE"/>
<mask id="mask2_0_264" style="mask-type:alpha" maskUnits="userSpaceOnUse" x="64" y="39" width="37" height="48">
<path fill-rule="evenodd" clip-rule="evenodd" d="M64.6166 39.6455H101V86.8679H64.6166V39.6455Z" fill="white"/>
</mask>
<g mask="url(#mask2_0_264)">
<path fill-rule="evenodd" clip-rule="evenodd" d="M84.1045 84.3102C76.2108 84.3301 69.7988 77.9508 69.7492 70.025C69.6997 62.1538 76.1365 55.6654 84.0103 55.6555C91.9188 55.6407 98.3259 62.015 98.3606 69.9308C98.3953 77.8219 91.9832 84.2904 84.1045 84.3102ZM100.863 67.8639C99.426 56.5378 87.5582 49.8165 77.1969 54.5105C76.305 54.917 76.0225 54.6543 75.6013 53.9703C72.9156 49.6183 70.2001 45.2911 67.4896 40.9589C67.2914 40.6466 67.0982 40.3195 66.8504 40.0568C66.3896 39.571 65.8049 39.5363 65.2598 39.8437C64.6999 40.1609 64.4967 40.7259 64.685 41.3356C64.8039 41.7222 65.0517 42.0692 65.2697 42.4162C67.9703 46.7533 70.6511 51.1003 73.3963 55.4027C73.8918 56.171 73.7976 56.523 73.1237 57.088C67.7126 61.5887 65.7553 69.1378 68.1982 75.8244C70.6015 82.387 76.9987 86.8629 83.9954 86.8679C94.2676 86.8828 102.146 78.0053 100.863 67.8639Z" fill="#FEFEFE"/>
</g>
<path fill-rule="evenodd" clip-rule="evenodd" d="M6.00043 71.3729C5.37607 71.3481 4.91028 70.9466 4.94992 70.2428C4.98957 69.5736 5.36616 69.1821 6.06485 69.2019C6.76849 69.2217 7.07571 69.653 7.14013 70.2874C7.05093 70.9863 6.63965 71.4027 6.00043 71.3729Z" fill="#FEFEFE"/>
<path fill-rule="evenodd" clip-rule="evenodd" d="M7.94289 74.0643C7.83883 74.6144 7.44737 74.9912 6.77346 74.9168C6.10946 74.8375 5.7626 74.3864 5.83197 73.7173C5.90134 73.0432 6.34236 72.6615 7.0014 72.7408C7.65549 72.8152 7.99244 73.2613 7.94289 74.0643Z" fill="#FEFEFE"/>
<path fill-rule="evenodd" clip-rule="evenodd" d="M10.8764 77.6732C10.8714 78.3573 10.4453 78.6943 9.8556 78.7786C9.13214 78.7042 8.69112 78.3721 8.68617 77.6831C8.68121 76.9942 9.12718 76.6075 9.77631 76.6026C10.4354 76.5976 10.8764 76.9793 10.8764 77.6732Z" fill="#FEFEFE"/>
<path fill-rule="evenodd" clip-rule="evenodd" d="M11.362 74.2776C11.2876 74.9468 10.9259 75.3978 10.2817 75.4077C9.58801 75.4127 9.13213 74.9963 9.16186 74.2528C9.18664 73.5787 9.61279 73.2119 10.2669 73.2119C10.9457 73.2119 11.2579 73.663 11.362 74.2776Z" fill="#FEFEFE"/>
<path fill-rule="evenodd" clip-rule="evenodd" d="M14.0775 79.7996C13.9041 80.4391 13.6266 80.9397 12.9279 80.905C12.2193 80.8752 11.7882 80.4837 11.8476 79.7253C11.9022 79.0462 12.3531 78.6844 12.9923 78.7191C13.6315 78.7538 13.9784 79.2048 14.0775 79.7996Z" fill="#FEFEFE"/>
<path fill-rule="evenodd" clip-rule="evenodd" d="M17.2686 81.1977C17.2686 81.8867 16.8573 82.3823 16.124 82.3476C15.4748 82.3179 15.0883 81.9065 15.0982 81.2225C15.1081 80.5335 15.5194 80.2162 16.1438 80.1221C16.8276 80.1865 17.2637 80.5483 17.2686 81.1977Z" fill="#FEFEFE"/>
<path fill-rule="evenodd" clip-rule="evenodd" d="M17.7542 77.8812C17.6403 78.4958 17.3529 78.9568 16.6344 78.937C15.9406 78.9171 15.5591 78.5305 15.5591 77.8465C15.5541 77.1525 16.0001 76.7511 16.6443 76.7461C17.3033 76.7461 17.6551 77.217 17.7542 77.8812Z" fill="#FEFEFE"/>
<path fill-rule="evenodd" clip-rule="evenodd" d="M20.7719 80.7808C20.7521 81.4302 20.3259 81.7969 19.6669 81.8812C19.0524 81.7623 18.5668 81.4748 18.5767 80.7858C18.5817 80.0671 19.0079 79.6309 19.7363 79.6606C20.3953 79.6854 20.7967 80.1216 20.7719 80.7808Z" fill="#FEFEFE"/>
<mask id="mask3_0_264" style="mask-type:alpha" maskUnits="userSpaceOnUse" x="0" y="53" width="56" height="34">
<path fill-rule="evenodd" clip-rule="evenodd" d="M0 53.0098H55.6378V86.9996H0V53.0098Z" fill="white"/>
</mask>
<g mask="url(#mask3_0_264)">
<path fill-rule="evenodd" clip-rule="evenodd" d="M16.7979 84.3096C9.00335 84.2601 2.64582 77.7916 2.67059 69.9302C2.69537 61.9648 9.13714 55.6103 17.1398 55.6549C24.9393 55.6946 31.2919 62.1581 31.2671 70.0195C31.2374 77.9799 24.7807 84.3542 16.7979 84.3096ZM54.7151 69.2809C54.4228 69.2759 54.1354 69.2809 53.848 69.2809C47.5747 69.2809 41.3063 69.266 35.038 69.2958C34.27 69.2958 33.9479 69.2115 33.8339 68.2896C32.823 60.2448 26.9115 54.1184 19.33 53.1568C7.7249 51.6896 -1.62557 61.4146 0.237585 73.0133C1.68946 82.0395 11.0598 88.5327 19.9692 86.6839C27.6944 85.0779 32.8528 79.5215 33.8388 71.6403C33.9429 70.8175 34.1956 70.6589 34.9439 70.6688C38.1647 70.7035 41.3807 70.6837 44.5966 70.6837H52.6439C53.3425 70.6837 54.0462 70.6837 54.7449 70.6787C55.1958 70.6737 55.612 70.535 55.6368 70.0244C55.6616 69.4296 55.2107 69.2958 54.7151 69.2809Z" fill="#FEFEFE"/>
</g>
<path fill-rule="evenodd" clip-rule="evenodd" d="M42.9713 8.56626C42.8821 9.31968 42.4659 9.72613 41.8217 9.69639C41.1924 9.66665 40.7761 9.25524 40.8059 8.55139C40.8406 7.84754 41.237 7.49562 41.9158 7.51544C42.6145 7.53527 42.9019 7.99624 42.9713 8.56626Z" fill="#FDFDFD"/>
<path fill-rule="evenodd" clip-rule="evenodd" d="M44.3438 7.15375C43.7046 7.1488 43.2537 6.76713 43.2636 6.06328C43.2735 5.38421 43.665 4.96289 44.3389 4.96289C45.0128 4.96289 45.3795 5.38421 45.434 6.07815C45.3894 6.73739 44.993 7.15871 44.3438 7.15375Z" fill="#FDFDFD"/>
<path fill-rule="evenodd" clip-rule="evenodd" d="M47.1088 9.06245C47.0841 9.63743 46.7719 10.0488 46.0682 10.0736C45.3547 10.0984 44.9979 9.67708 44.9583 9.02775C44.9186 8.33877 45.3597 7.93232 46.0088 7.91745C46.648 7.90258 47.094 8.24955 47.1088 9.06245Z" fill="#FDFDFD"/>
<path fill-rule="evenodd" clip-rule="evenodd" d="M48.8284 5.26566C48.7639 5.93482 48.3626 6.3264 47.7035 6.28179C47.0494 6.23718 46.6431 5.80099 46.6927 5.12192C46.7373 4.46268 47.1337 4.05623 47.8225 4.09093C48.5162 4.12562 48.8135 4.57668 48.8284 5.26566Z" fill="#FDFDFD"/>
<path fill-rule="evenodd" clip-rule="evenodd" d="M51.5289 6.0488C50.8649 6.02897 50.4933 5.60766 50.4833 4.94346C50.4734 4.25448 50.9244 3.95212 51.5041 3.82324C52.2028 3.89264 52.6438 4.28917 52.6636 4.9038C52.6785 5.57296 52.2672 6.07359 51.5289 6.0488Z" fill="#FDFDFD"/>
<path fill-rule="evenodd" clip-rule="evenodd" d="M54.3336 7.86282C54.3732 8.5518 53.9372 8.89381 53.288 9.02764C52.6885 8.91364 52.2177 8.66084 52.2078 7.93717C52.2029 7.24323 52.5596 6.85165 53.2335 6.81695C53.9322 6.7773 54.294 7.21349 54.3336 7.86282Z" fill="#FDFDFD"/>
<path fill-rule="evenodd" clip-rule="evenodd" d="M57.2126 10.2572C57.1432 10.8471 56.8211 11.2684 56.1373 11.2634C55.3891 11.2585 55.0026 10.7925 55.0372 10.0936C55.0719 9.44928 55.5278 9.02796 56.172 9.07257C56.7914 9.11222 57.2076 9.49884 57.2126 10.2572Z" fill="#FDFDFD"/>
<path fill-rule="evenodd" clip-rule="evenodd" d="M57.2968 6.17761C57.3067 6.81702 56.9548 7.28295 56.2463 7.29287C55.5624 7.30278 55.1512 6.89633 55.1313 6.23709C55.1165 5.57785 55.5377 5.19618 56.2017 5.07227C56.8409 5.16149 57.2868 5.51837 57.2968 6.17761Z" fill="#FDFDFD"/>
<path fill-rule="evenodd" clip-rule="evenodd" d="M59.0162 9.56821C58.3176 9.52856 57.941 9.09732 57.9757 8.44304C58.0054 7.7838 58.4811 7.34761 59.1203 7.38726C59.7397 7.42692 60.1659 7.84824 60.1807 8.58678C60.0469 9.17663 59.7347 9.60787 59.0162 9.56821Z" fill="#FDFDFD"/>
<path fill-rule="evenodd" clip-rule="evenodd" d="M60.6762 10.3414C61.3898 10.2869 61.8555 10.733 61.8704 11.4368C61.8853 12.0763 61.4839 12.4777 60.805 12.5471C60.141 12.5174 59.7347 12.1704 59.6901 11.5062C59.6455 10.8371 60.0419 10.3959 60.6762 10.3414Z" fill="#FDFDFD"/>
<path fill-rule="evenodd" clip-rule="evenodd" d="M50.5973 31.2931C42.3171 31.3278 35.5434 24.5917 35.5335 16.3189C35.5285 8.07096 42.1635 1.38933 50.4338 1.31498C58.6941 1.24558 65.4629 7.97183 65.4976 16.2793C65.5323 24.4628 58.7932 31.2535 50.5973 31.2931ZM61.4492 4.23943C53.3227 -3.44346 39.458 -0.226559 35.4195 10.2023C32.7486 17.0922 34.6316 24.324 40.3896 28.9932C41.1775 29.6326 41.2022 30.0192 40.672 30.847C38.0458 34.9313 35.4988 39.0702 32.927 43.1892C32.6644 43.6105 32.4166 44.0368 32.1441 44.4482C31.9112 44.8001 31.827 45.1521 32.2234 45.4148C32.6347 45.6923 33.0014 45.5684 33.259 45.1421C33.4771 44.7902 33.705 44.4482 33.923 44.0963C36.5642 39.8732 39.2201 35.6649 41.8266 31.417C42.2775 30.6785 42.6095 30.4753 43.4321 30.9164C45.647 32.111 48.0652 32.567 50.5725 32.5323C51.1077 32.5323 51.6528 32.5967 52.178 32.5224C58.8229 31.5707 63.6047 28.0812 65.8346 21.7168C68.1734 15.045 66.5778 9.09204 61.4492 4.23943Z" fill="#FDFDFD"/>
<path fill-rule="evenodd" clip-rule="evenodd" d="M79.7736 79.9486C79.7538 80.6673 79.3573 81.0639 78.7033 81.0886C78.0293 81.1134 77.5933 80.6624 77.5834 80.018C77.5685 79.3786 77.9649 78.9226 78.6587 78.9027C79.3524 78.8879 79.6993 79.3042 79.7736 79.9486Z" fill="#1E1E1C"/>
<path fill-rule="evenodd" clip-rule="evenodd" d="M83.2075 81.3658C83.0737 82.0002 82.7417 82.4265 82.0381 82.3918C81.3493 82.3571 80.9628 81.9556 80.9975 81.2765C81.0272 80.6024 81.4831 80.1861 82.1273 80.2208C82.7517 80.2555 83.1629 80.6768 83.2075 81.3658Z" fill="#1E1E1C"/>
<path fill-rule="evenodd" clip-rule="evenodd" d="M81.0075 77.9857C80.9678 77.3264 81.3643 76.9348 82.0233 76.8506C82.7121 76.8605 83.1481 77.2075 83.1878 77.8667C83.2274 78.5359 82.831 78.9572 82.1571 78.9968C81.4782 79.0365 81.0471 78.64 81.0075 77.9857Z" fill="#1E1E1C"/>
<path fill-rule="evenodd" clip-rule="evenodd" d="M86.6018 81.2567C86.5176 81.9258 86.2252 82.3918 85.5166 82.4017C84.8328 82.4116 84.4463 82.0399 84.4166 81.3509C84.3869 80.6421 84.813 80.2455 85.4522 80.2207C86.1113 80.196 86.4978 80.6272 86.6018 81.2567Z" fill="#1E1E1C"/>
<path fill-rule="evenodd" clip-rule="evenodd" d="M86.6019 77.956C86.582 78.6053 86.1509 79.0217 85.477 79.0019C84.8081 78.9771 84.4117 78.5855 84.4265 77.8965C84.4463 77.2026 84.8725 76.8854 85.5563 76.8457C86.2253 76.9002 86.6167 77.3116 86.6019 77.956Z" fill="#1E1E1C"/>
<path fill-rule="evenodd" clip-rule="evenodd" d="M86.146 66.4063C86.1212 65.7074 86.5226 65.3158 87.1767 65.296C87.8456 65.2712 88.2123 65.6875 88.2817 66.3666C88.2421 67.0259 87.8902 67.4571 87.2262 67.4769C86.5573 67.4967 86.1708 67.0953 86.146 66.4063Z" fill="#1E1E1C"/>
<path fill-rule="evenodd" clip-rule="evenodd" d="M87.1816 74.2624C86.5424 74.2129 86.1509 73.8857 86.146 73.1868C86.141 72.483 86.5523 72.1211 87.2064 72.1211C87.8654 72.1162 88.2866 72.5028 88.2767 73.1868C88.2718 73.856 87.8952 74.2277 87.1816 74.2624Z" fill="#1E1E1C"/>
<path fill-rule="evenodd" clip-rule="evenodd" d="M89.9863 79.9683C89.9219 80.6325 89.5849 81.0786 88.911 81.0836C88.2421 81.0935 87.8209 80.6771 87.8159 80.008C87.811 79.3487 88.1876 78.9225 88.8764 78.9076C89.575 78.8927 89.8872 79.3339 89.9863 79.9683Z" fill="#1E1E1C"/>
<path fill-rule="evenodd" clip-rule="evenodd" d="M87.8258 62.9714C87.8208 62.3022 88.2569 61.8759 88.9159 61.8809C89.5651 61.8859 89.9516 62.3072 90.0061 63.011C89.907 63.6157 89.6097 64.0519 88.9011 64.0519C88.1776 64.0519 87.8307 63.6157 87.8258 62.9714Z" fill="#1E1E1C"/>
<path fill-rule="evenodd" clip-rule="evenodd" d="M89.9912 76.5632C89.9962 77.1977 89.6443 77.6636 88.9357 77.6735C88.242 77.6884 87.8506 77.2869 87.8307 76.6227C87.8109 75.9585 88.2222 75.5818 88.8713 75.4678C89.5304 75.552 89.9813 75.904 89.9912 76.5632Z" fill="#1E1E1C"/>
<path fill-rule="evenodd" clip-rule="evenodd" d="M90.6453 74.2534C89.9516 74.2831 89.5601 73.8915 89.5304 73.2273C89.4957 72.5532 89.8921 72.1319 90.5561 72.117C91.2052 72.0972 91.6314 72.4442 91.6809 73.1877C91.6661 73.8271 91.3341 74.2236 90.6453 74.2534Z" fill="#1E1E1C"/>
<path fill-rule="evenodd" clip-rule="evenodd" d="M90.6354 65.2911C91.2994 65.3158 91.6711 65.7173 91.6711 66.4113C91.6711 67.1449 91.1756 67.3679 90.6602 67.5216C89.9268 67.3927 89.5007 67.0209 89.5255 66.3567C89.5453 65.6975 89.9566 65.2663 90.6354 65.2911Z" fill="#1E1E1C"/>
<path fill-rule="evenodd" clip-rule="evenodd" d="M92.6571 69.7222C92.6274 70.4706 92.2211 70.8672 91.5769 70.887C90.9079 70.9068 90.4719 70.4459 90.4669 69.8015C90.457 69.1621 90.8386 68.7061 91.5472 68.7061C92.231 68.7061 92.5927 69.0927 92.6571 69.7222Z" fill="#1E1E1C"/>
<path fill-rule="evenodd" clip-rule="evenodd" d="M93.4103 76.5727C93.3112 77.3211 92.9346 77.7127 92.2508 77.678C91.562 77.6433 91.1706 77.1922 91.2102 76.538C91.2498 75.8985 91.6909 75.4624 92.3648 75.497C93.0337 75.5268 93.3608 75.9828 93.4103 76.5727Z" fill="#1E1E1C"/>
<path fill-rule="evenodd" clip-rule="evenodd" d="M91.2102 63.0261C91.1755 62.3668 91.6165 61.9158 92.2557 61.8811C92.8999 61.8464 93.3657 62.2281 93.3905 62.917C93.4153 63.5961 93.0188 63.9629 92.4837 64.062C91.6562 64.067 91.2498 63.6754 91.2102 63.0261Z" fill="#1E1E1C"/>
<path fill-rule="evenodd" clip-rule="evenodd" d="M94.0495 65.2666C94.664 65.3657 95.0951 65.6929 95.0951 66.367C95.1 67.1155 94.6293 67.507 93.9355 67.4773C93.2815 67.4476 92.89 66.9866 92.9148 66.3372C92.9445 65.6879 93.3607 65.3211 94.0495 65.2666Z" fill="#1E1E1C"/>
<path fill-rule="evenodd" clip-rule="evenodd" d="M95.0951 73.172C95.11 73.8709 94.6739 74.1882 94.0198 74.2774C93.3657 74.2229 92.9346 73.8808 92.9198 73.2067C92.9049 72.5326 93.3311 72.1212 93.9901 72.1163C94.6343 72.1113 95.0803 72.4731 95.0951 73.172Z" fill="#1E1E1C"/>
<path fill-rule="evenodd" clip-rule="evenodd" d="M96.0911 69.8462C95.9622 70.4906 95.5609 70.9218 94.9167 70.8871C94.2725 70.8525 93.8414 70.4113 93.8761 69.7322C93.9058 69.0482 94.3369 68.6864 95.0207 68.7112C95.7244 68.7409 96.0217 69.187 96.0911 69.8462Z" fill="#1E1E1C"/>
<path fill-rule="evenodd" clip-rule="evenodd" d="M6.00043 71.3729C5.37607 71.3481 4.91028 70.9466 4.94992 70.2428C4.98957 69.5736 5.36616 69.1821 6.06485 69.2019C6.76849 69.2217 7.07571 69.653 7.14013 70.2874C7.05093 70.9863 6.63965 71.4027 6.00043 71.3729Z" fill="#1E1E1C"/>
<path fill-rule="evenodd" clip-rule="evenodd" d="M7.94289 74.0643C7.83883 74.6144 7.44737 74.9912 6.77346 74.9168C6.10946 74.8375 5.7626 74.3864 5.83197 73.7173C5.90134 73.0432 6.34236 72.6615 7.0014 72.7408C7.65549 72.8152 7.99244 73.2613 7.94289 74.0643Z" fill="#1E1E1C"/>
<path fill-rule="evenodd" clip-rule="evenodd" d="M10.8764 77.6732C10.8714 78.3573 10.4453 78.6943 9.8556 78.7786C9.13214 78.7042 8.69112 78.3721 8.68617 77.6831C8.68121 76.9942 9.12718 76.6075 9.77631 76.6026C10.4354 76.5976 10.8764 76.9793 10.8764 77.6732Z" fill="#1E1E1C"/>
<path fill-rule="evenodd" clip-rule="evenodd" d="M11.362 74.2776C11.2876 74.9468 10.9259 75.3978 10.2817 75.4077C9.58801 75.4127 9.13213 74.9963 9.16186 74.2528C9.18664 73.5787 9.61279 73.2119 10.2669 73.2119C10.9457 73.2119 11.2579 73.663 11.362 74.2776Z" fill="#1E1E1C"/>
<path fill-rule="evenodd" clip-rule="evenodd" d="M14.0775 79.7996C13.9041 80.4391 13.6266 80.9397 12.9279 80.905C12.2193 80.8752 11.7882 80.4837 11.8476 79.7253C11.9022 79.0462 12.3531 78.6844 12.9923 78.7191C13.6315 78.7538 13.9784 79.2048 14.0775 79.7996Z" fill="#1E1E1C"/>
<path fill-rule="evenodd" clip-rule="evenodd" d="M17.2686 81.1977C17.2686 81.8867 16.8573 82.3823 16.124 82.3476C15.4748 82.3179 15.0883 81.9065 15.0982 81.2225C15.1081 80.5335 15.5194 80.2162 16.1438 80.1221C16.8276 80.1865 17.2637 80.5483 17.2686 81.1977Z" fill="#1E1E1C"/>
<path fill-rule="evenodd" clip-rule="evenodd" d="M17.7542 77.8812C17.6403 78.4958 17.3529 78.9568 16.6344 78.937C15.9406 78.9171 15.5591 78.5305 15.5591 77.8465C15.5541 77.1525 16.0001 76.7511 16.6443 76.7461C17.3033 76.7461 17.6551 77.217 17.7542 77.8812Z" fill="#1E1E1C"/>
<path fill-rule="evenodd" clip-rule="evenodd" d="M20.7719 80.7808C20.7521 81.4302 20.3259 81.7969 19.6669 81.8812C19.0524 81.7623 18.5668 81.4748 18.5767 80.7858C18.5817 80.0671 19.0079 79.6309 19.7363 79.6606C20.3953 79.6854 20.7967 80.1216 20.7719 80.7808Z" fill="#1E1E1C"/>
<path fill-rule="evenodd" clip-rule="evenodd" d="M42.9713 8.56626C42.8821 9.31968 42.4659 9.72613 41.8217 9.69639C41.1924 9.66665 40.7761 9.25524 40.8059 8.55139C40.8406 7.84754 41.237 7.49562 41.9158 7.51544C42.6145 7.53527 42.9019 7.99624 42.9713 8.56626Z" fill="#1E1E1C"/>
<path fill-rule="evenodd" clip-rule="evenodd" d="M44.3438 7.15375C43.7046 7.1488 43.2537 6.76713 43.2636 6.06328C43.2735 5.38421 43.665 4.96289 44.3389 4.96289C45.0128 4.96289 45.3795 5.38421 45.434 6.07815C45.3894 6.73739 44.993 7.15871 44.3438 7.15375Z" fill="#1E1E1C"/>
<path fill-rule="evenodd" clip-rule="evenodd" d="M47.1088 9.06245C47.0841 9.63743 46.7719 10.0488 46.0682 10.0736C45.3547 10.0984 44.9979 9.67708 44.9583 9.02775C44.9186 8.33877 45.3597 7.93232 46.0088 7.91745C46.648 7.90258 47.094 8.24955 47.1088 9.06245Z" fill="#1E1E1C"/>
<path fill-rule="evenodd" clip-rule="evenodd" d="M48.8284 5.26566C48.7639 5.93482 48.3626 6.3264 47.7035 6.28179C47.0494 6.23718 46.6431 5.80099 46.6927 5.12192C46.7373 4.46268 47.1337 4.05623 47.8225 4.09093C48.5162 4.12562 48.8135 4.57668 48.8284 5.26566Z" fill="#1E1E1C"/>
<path fill-rule="evenodd" clip-rule="evenodd" d="M51.5289 6.0488C50.8649 6.02897 50.4933 5.60766 50.4833 4.94346C50.4734 4.25448 50.9244 3.95212 51.5041 3.82324C52.2028 3.89264 52.6438 4.28917 52.6636 4.9038C52.6785 5.57296 52.2672 6.07359 51.5289 6.0488Z" fill="#1E1E1C"/>
<path fill-rule="evenodd" clip-rule="evenodd" d="M54.3336 7.86282C54.3732 8.5518 53.9372 8.89381 53.288 9.02764C52.6885 8.91364 52.2177 8.66084 52.2078 7.93717C52.2029 7.24323 52.5596 6.85165 53.2335 6.81695C53.9322 6.7773 54.294 7.21349 54.3336 7.86282Z" fill="#1E1E1C"/>
<path fill-rule="evenodd" clip-rule="evenodd" d="M57.2126 10.2572C57.1432 10.8471 56.8211 11.2684 56.1373 11.2634C55.3891 11.2585 55.0026 10.7925 55.0372 10.0936C55.0719 9.44928 55.5278 9.02796 56.172 9.07257C56.7914 9.11222 57.2076 9.49884 57.2126 10.2572Z" fill="#1E1E1C"/>
<path fill-rule="evenodd" clip-rule="evenodd" d="M57.2968 6.17761C57.3067 6.81702 56.9548 7.28295 56.2463 7.29287C55.5624 7.30278 55.1512 6.89633 55.1313 6.23709C55.1165 5.57785 55.5377 5.19618 56.2017 5.07227C56.8409 5.16149 57.2868 5.51837 57.2968 6.17761Z" fill="#1E1E1C"/>
<path fill-rule="evenodd" clip-rule="evenodd" d="M59.0162 9.56821C58.3176 9.52856 57.941 9.09732 57.9757 8.44304C58.0054 7.7838 58.4811 7.34761 59.1203 7.38726C59.7397 7.42692 60.1659 7.84824 60.1807 8.58678C60.0469 9.17663 59.7347 9.60787 59.0162 9.56821Z" fill="#1E1E1C"/>
<path fill-rule="evenodd" clip-rule="evenodd" d="M61.8704 11.4368C61.8853 12.0763 61.4839 12.4777 60.805 12.5471C60.141 12.5174 59.7347 12.1704 59.6901 11.5062C59.6455 10.8371 60.0419 10.3959 60.6762 10.3414C61.3898 10.2869 61.8555 10.733 61.8704 11.4368Z" fill="#1E1E1C"/>
<path fill-rule="evenodd" clip-rule="evenodd" d="M95.0951 66.367C95.1001 67.1155 94.6293 67.507 93.9356 67.4773C93.2815 67.4476 92.8901 66.9866 92.9148 66.3372C92.9446 65.6879 93.3608 65.3211 94.0496 65.2666C94.664 65.3657 95.0951 65.6929 95.0951 66.367Z" fill="#F4F4F3"/>
<path fill-rule="evenodd" clip-rule="evenodd" d="M79.7736 79.9486C79.7538 80.6673 79.3573 81.0639 78.7033 81.0886C78.0293 81.1134 77.5933 80.6624 77.5834 80.018C77.5685 79.3786 77.9649 78.9226 78.6587 78.9027C79.3524 78.8879 79.6993 79.3042 79.7736 79.9486Z" fill="#F5F5F5"/>
<path fill-rule="evenodd" clip-rule="evenodd" d="M86.6018 81.2567C86.5176 81.9258 86.2252 82.3918 85.5166 82.4017C84.8328 82.4116 84.4463 82.0399 84.4166 81.3509C84.3869 80.6421 84.813 80.2455 85.4522 80.2207C86.1113 80.196 86.4978 80.6272 86.6018 81.2567Z" fill="#F4F4F4"/>
<path fill-rule="evenodd" clip-rule="evenodd" d="M83.2075 81.3658C83.0737 82.0002 82.7417 82.4265 82.0381 82.3918C81.3493 82.3571 80.9628 81.9556 80.9975 81.2765C81.0272 80.6024 81.4831 80.1861 82.1273 80.2208C82.7517 80.2555 83.1629 80.6768 83.2075 81.3658Z" fill="#F7F7F7"/>
<path fill-rule="evenodd" clip-rule="evenodd" d="M93.3905 62.917C93.4153 63.5961 93.0189 63.9629 92.4837 64.062C91.6562 64.067 91.2499 63.6754 91.2103 63.0261C91.1756 62.3668 91.6166 61.9158 92.2558 61.8811C92.9 61.8464 93.3658 62.2281 93.3905 62.917Z" fill="#F4F4F4"/>
<path fill-rule="evenodd" clip-rule="evenodd" d="M93.4103 76.5727C93.3112 77.3211 92.9346 77.7127 92.2508 77.678C91.562 77.6433 91.1706 77.1922 91.2102 76.538C91.2498 75.8985 91.6909 75.4624 92.3648 75.497C93.0337 75.5268 93.3608 75.9828 93.4103 76.5727Z" fill="#F5F5F5"/>
<path fill-rule="evenodd" clip-rule="evenodd" d="M92.6571 69.7222C92.6274 70.4706 92.2211 70.8672 91.5769 70.887C90.9079 70.9068 90.4719 70.4459 90.4669 69.8015C90.457 69.1621 90.8386 68.7061 91.5472 68.7061C92.231 68.7061 92.5927 69.0927 92.6571 69.7222Z" fill="#F4F4F4"/>
<path fill-rule="evenodd" clip-rule="evenodd" d="M96.0911 69.8462C95.9622 70.4906 95.5609 70.9218 94.9167 70.8871C94.2725 70.8525 93.8414 70.4113 93.8761 69.7322C93.9058 69.0482 94.3369 68.6864 95.0207 68.7112C95.7244 68.7409 96.0217 69.187 96.0911 69.8462Z" fill="#F7F7F7"/>
<path fill-rule="evenodd" clip-rule="evenodd" d="M91.6809 73.1877C91.6661 73.8271 91.3341 74.2236 90.6453 74.2534C89.9516 74.2831 89.5601 73.8915 89.5304 73.2273C89.4957 72.5532 89.8921 72.1319 90.5561 72.117C91.2052 72.0972 91.6314 72.4442 91.6809 73.1877Z" fill="#F9F9F9"/>
<path fill-rule="evenodd" clip-rule="evenodd" d="M89.9912 76.5632C89.9962 77.1977 89.6443 77.6636 88.9357 77.6735C88.242 77.6884 87.8506 77.2869 87.8307 76.6227C87.8109 75.9585 88.2222 75.5818 88.8713 75.4678C89.5304 75.552 89.9813 75.904 89.9912 76.5632Z" fill="#F9F9F9"/>
<path fill-rule="evenodd" clip-rule="evenodd" d="M91.671 66.4113C91.671 67.1449 91.1755 67.3679 90.6602 67.5216C89.9268 67.3927 89.5007 67.0209 89.5254 66.3567C89.5453 65.6975 89.9565 65.2663 90.6354 65.2911C91.2994 65.3158 91.671 65.7173 91.671 66.4113Z" fill="#F8F8F8"/>
<path fill-rule="evenodd" clip-rule="evenodd" d="M88.2767 73.1868C88.2718 73.856 87.8952 74.2277 87.1816 74.2624C86.5424 74.2129 86.1509 73.8857 86.146 73.1868C86.141 72.483 86.5523 72.1211 87.2064 72.1211C87.8654 72.1162 88.2866 72.5028 88.2767 73.1868Z" fill="#F9F9F9"/>
<path fill-rule="evenodd" clip-rule="evenodd" d="M83.1877 77.8667C83.2274 78.5359 82.8309 78.9572 82.157 78.9968C81.4782 79.0365 81.0471 78.64 81.0074 77.9857C80.9678 77.3264 81.3642 76.9348 82.0232 76.8506C82.712 76.8605 83.1481 77.2075 83.1877 77.8667Z" fill="#FAFAFA"/>
<path fill-rule="evenodd" clip-rule="evenodd" d="M86.6019 77.956C86.582 78.6053 86.1509 79.0217 85.477 79.0019C84.8081 78.9771 84.4117 78.5855 84.4265 77.8965C84.4463 77.2026 84.8725 76.8854 85.5563 76.8457C86.2253 76.9002 86.6167 77.3116 86.6019 77.956Z" fill="#F8F8F8"/>
<path fill-rule="evenodd" clip-rule="evenodd" d="M90.0061 63.011C89.907 63.6157 89.6097 64.0519 88.9011 64.0519C88.1776 64.0519 87.8307 63.6157 87.8258 62.9714C87.8208 62.3022 88.2569 61.8759 88.9159 61.8809C89.5651 61.8859 89.9516 62.3072 90.0061 63.011Z" fill="#F8F8F8"/>
<path fill-rule="evenodd" clip-rule="evenodd" d="M89.9863 79.9683C89.9219 80.6325 89.5849 81.0786 88.911 81.0836C88.2421 81.0935 87.8209 80.6771 87.8159 80.008C87.811 79.3487 88.1876 78.9225 88.8764 78.9076C89.575 78.8927 89.8872 79.3339 89.9863 79.9683Z" fill="#FAFAFA"/>
<path fill-rule="evenodd" clip-rule="evenodd" d="M95.0951 73.172C95.11 73.8709 94.6739 74.1882 94.0198 74.2774C93.3657 74.2229 92.9346 73.8808 92.9198 73.2067C92.9049 72.5326 93.3311 72.1212 93.9901 72.1163C94.6343 72.1113 95.0803 72.4731 95.0951 73.172Z" fill="#FAFAFA"/>
<path fill-rule="evenodd" clip-rule="evenodd" d="M88.2817 66.3666C88.2421 67.0259 87.8902 67.4571 87.2262 67.4769C86.5573 67.4967 86.1708 67.0953 86.146 66.4063C86.1212 65.7074 86.5226 65.3158 87.1767 65.296C87.8456 65.2712 88.2123 65.6875 88.2817 66.3666Z" fill="#FBFBFB"/>
<path fill-rule="evenodd" clip-rule="evenodd" d="M20.7719 80.7808C20.7521 81.4302 20.3259 81.7969 19.6669 81.8812C19.0524 81.7623 18.5668 81.4748 18.5767 80.7858C18.5817 80.0671 19.0079 79.6309 19.7363 79.6606C20.3953 79.6854 20.7967 80.1216 20.7719 80.7808Z" fill="#F6F6F6"/>
<path fill-rule="evenodd" clip-rule="evenodd" d="M17.2686 81.1977C17.2686 81.8867 16.8573 82.3823 16.124 82.3476C15.4748 82.3179 15.0883 81.9065 15.0982 81.2225C15.1081 80.5335 15.5194 80.2162 16.1438 80.1221C16.8276 80.1865 17.2637 80.5483 17.2686 81.1977Z" fill="#F5F5F5"/>
<path fill-rule="evenodd" clip-rule="evenodd" d="M11.362 74.2776C11.2876 74.9468 10.9259 75.3978 10.2817 75.4077C9.58801 75.4127 9.13213 74.9963 9.16186 74.2528C9.18664 73.5787 9.61279 73.2119 10.2669 73.2119C10.9457 73.2119 11.2579 73.663 11.362 74.2776Z" fill="#F5F4F4"/>
<path fill-rule="evenodd" clip-rule="evenodd" d="M14.0775 79.7996C13.9041 80.4391 13.6266 80.9397 12.9279 80.905C12.2193 80.8752 11.7882 80.4837 11.8476 79.7253C11.9022 79.0462 12.3531 78.6844 12.9923 78.7191C13.6315 78.7538 13.9784 79.2048 14.0775 79.7996Z" fill="#F5F5F5"/>
<path fill-rule="evenodd" clip-rule="evenodd" d="M7.14019 70.2874C7.05099 70.9863 6.63971 71.4027 6.00049 71.3729C5.37613 71.3481 4.91034 70.9466 4.94999 70.2428C4.98963 69.5736 5.36622 69.1821 6.06491 69.2019C6.76855 69.2217 7.07577 69.653 7.14019 70.2874Z" fill="#F7F7F7"/>
<path fill-rule="evenodd" clip-rule="evenodd" d="M7.94289 74.0643C7.83883 74.6144 7.44737 74.9912 6.77346 74.9168C6.10946 74.8375 5.7626 74.3864 5.83197 73.7173C5.90134 73.0432 6.34236 72.6615 7.0014 72.7408C7.65549 72.8152 7.99244 73.2613 7.94289 74.0643Z" fill="#FAFAFA"/>
<path fill-rule="evenodd" clip-rule="evenodd" d="M10.8764 77.6732C10.8714 78.3573 10.4453 78.6943 9.8556 78.7786C9.13214 78.7042 8.69112 78.3721 8.68617 77.6831C8.68121 76.9942 9.12718 76.6075 9.77631 76.6026C10.4354 76.5976 10.8764 76.9793 10.8764 77.6732Z" fill="#FBFBFB"/>
<path fill-rule="evenodd" clip-rule="evenodd" d="M17.7542 77.8812C17.6403 78.4958 17.3529 78.9568 16.6344 78.937C15.9406 78.9171 15.5591 78.5305 15.5591 77.8465C15.5541 77.1525 16.0001 76.7511 16.6443 76.7461C17.3033 76.7461 17.6551 77.217 17.7542 77.8812Z" fill="#F4F4F4"/>
<path fill-rule="evenodd" clip-rule="evenodd" d="M45.434 6.07815C45.3894 6.73739 44.993 7.15871 44.3438 7.15375C43.7046 7.1488 43.2537 6.76713 43.2636 6.06328C43.2735 5.38421 43.665 4.96289 44.3389 4.96289C45.0128 4.96289 45.3795 5.38421 45.434 6.07815Z" fill="#F6F6F6"/>
<path fill-rule="evenodd" clip-rule="evenodd" d="M57.2126 10.2572C57.1432 10.8471 56.8211 11.2684 56.1373 11.2634C55.3891 11.2585 55.0026 10.7925 55.0372 10.0936C55.0719 9.44928 55.5278 9.02796 56.172 9.07257C56.7914 9.11222 57.2076 9.49884 57.2126 10.2572Z" fill="#F5F5F5"/>
<path fill-rule="evenodd" clip-rule="evenodd" d="M61.8704 11.4368C61.8853 12.0763 61.4839 12.4777 60.805 12.5471C60.141 12.5174 59.7347 12.1704 59.6901 11.5062C59.6455 10.8371 60.0419 10.3959 60.6762 10.3414C61.3898 10.2869 61.8555 10.733 61.8704 11.4368Z" fill="#F5F5F5"/>
<path fill-rule="evenodd" clip-rule="evenodd" d="M47.1088 9.06245C47.0841 9.63743 46.7719 10.0488 46.0682 10.0736C45.3547 10.0984 44.9979 9.67708 44.9583 9.02775C44.9186 8.33877 45.3597 7.93232 46.0088 7.91745C46.648 7.90258 47.094 8.24955 47.1088 9.06245Z" fill="#F9F9F9"/>
<path fill-rule="evenodd" clip-rule="evenodd" d="M52.6637 4.9038C52.6785 5.57296 52.2673 6.07359 51.5289 6.0488C50.8649 6.02897 50.4933 5.60766 50.4834 4.94346C50.4735 4.25448 50.9244 3.95212 51.5041 3.82324C52.2028 3.89264 52.6438 4.28917 52.6637 4.9038Z" fill="#F8F8F8"/>
<path fill-rule="evenodd" clip-rule="evenodd" d="M60.1807 8.58678C60.0469 9.17663 59.7347 9.60787 59.0162 9.56821C58.3175 9.52856 57.9409 9.09732 57.9756 8.44304C58.0054 7.7838 58.4811 7.34761 59.1203 7.38726C59.7397 7.42692 60.1658 7.84824 60.1807 8.58678Z" fill="#F8F8F8"/>
<path fill-rule="evenodd" clip-rule="evenodd" d="M42.9713 8.56626C42.8821 9.31968 42.4659 9.72613 41.8217 9.69639C41.1924 9.66665 40.7761 9.25524 40.8059 8.55139C40.8406 7.84754 41.237 7.49562 41.9158 7.51544C42.6145 7.53527 42.9019 7.99624 42.9713 8.56626Z" fill="#F7F7F6"/>
<path fill-rule="evenodd" clip-rule="evenodd" d="M48.8284 5.26566C48.7639 5.93482 48.3626 6.3264 47.7035 6.28179C47.0494 6.23718 46.6431 5.80099 46.6927 5.12192C46.7373 4.46268 47.1337 4.05623 47.8225 4.09093C48.5162 4.12562 48.8135 4.57668 48.8284 5.26566Z" fill="#FBFBFB"/>
<path fill-rule="evenodd" clip-rule="evenodd" d="M57.2968 6.17761C57.3067 6.81702 56.9548 7.28295 56.2463 7.29287C55.5624 7.30278 55.1512 6.89633 55.1313 6.23709C55.1165 5.57785 55.5377 5.19618 56.2017 5.07227C56.8409 5.16149 57.2868 5.51837 57.2968 6.17761Z" fill="#FBFBFB"/>
<path fill-rule="evenodd" clip-rule="evenodd" d="M54.3336 7.86282C54.3732 8.5518 53.9372 8.89381 53.288 9.02764C52.6885 8.91364 52.2177 8.66084 52.2078 7.93717C52.2029 7.24323 52.5596 6.85165 53.2335 6.81695C53.9322 6.7773 54.294 7.21349 54.3336 7.86282Z" fill="#FAFAFA"/>
</svg>
