<svg width="90" height="90" viewBox="0 0 90 90" fill="none" xmlns="http://www.w3.org/2000/svg">
<path fill-rule="evenodd" clip-rule="evenodd" d="M3.9349 76.2612C3.22888 76.2612 2.77438 75.7979 2.78762 75.0787C2.80086 74.3639 3.23329 73.905 3.96137 73.9182C4.6718 73.9315 5.06894 74.3727 5.11748 75.0699C5.06894 75.8376 4.63209 76.2612 3.9349 76.2612Z" fill="#1E1E1C"/>
<path fill-rule="evenodd" clip-rule="evenodd" d="M4.61003 71.4334C4.61444 70.6921 5.06453 70.2818 5.77496 70.2862C6.49421 70.2862 6.93989 70.7274 6.93106 71.451C6.91783 72.157 6.51187 72.5806 5.70877 72.6027C5.04688 72.5409 4.61003 72.1747 4.61003 71.4334Z" fill="#1E1E1C"/>
<path fill-rule="evenodd" clip-rule="evenodd" d="M6.9311 78.7538C6.91345 79.4731 6.48984 79.8878 5.68674 79.8922C5.0072 79.804 4.57035 79.4245 4.61889 78.67C4.66743 77.9199 5.13517 77.5492 5.86766 77.5934C6.57368 77.6331 6.94433 78.092 6.9311 78.7538Z" fill="#1E1E1C"/>
<path fill-rule="evenodd" clip-rule="evenodd" d="M8.77116 75.0781C8.77557 75.7973 8.32548 76.2562 7.60623 76.265C6.88697 76.2739 6.42806 75.8194 6.41482 75.1002C6.40159 74.3765 6.90021 74.0147 7.51798 73.8779C8.29459 73.975 8.76674 74.3545 8.77116 75.0781Z" fill="#1E1E1C"/>
<path fill-rule="evenodd" clip-rule="evenodd" d="M10.5847 71.4603C10.5759 72.206 10.1214 72.5546 9.45952 72.6076C8.66084 72.5634 8.25047 72.1222 8.25929 71.425C8.26371 70.7191 8.71821 70.269 9.44187 70.2866C10.1567 70.3043 10.5936 70.7235 10.5847 71.4603Z" fill="#1E1E1C"/>
<path fill-rule="evenodd" clip-rule="evenodd" d="M14.2428 71.4734C14.2075 72.1662 13.7971 72.603 12.9322 72.603C12.3145 72.5324 11.9041 72.1485 11.9129 71.4116C11.9218 70.6439 12.4116 70.2732 13.1043 70.2865C13.8148 70.2953 14.2781 70.7542 14.2428 71.4734Z" fill="#1E1E1C"/>
<path fill-rule="evenodd" clip-rule="evenodd" d="M16.3741 87.3318C16.3785 88.2231 16.0917 88.5761 15.1739 88.5716C10.9863 88.5408 6.80314 88.5408 2.61557 88.5716C1.68451 88.5805 1.41093 88.2231 1.42417 87.3362C1.46388 84.2122 1.43741 81.0926 1.43741 77.9686C1.43741 74.8843 1.46388 71.8001 1.42417 68.7158C1.41093 67.7759 1.68893 67.4318 2.67294 67.4406C6.8252 67.4891 10.9731 67.4891 15.1253 67.4406C16.1182 67.4274 16.3785 67.7759 16.3741 68.7158C16.3476 74.9196 16.3476 81.1279 16.3741 87.3318ZM17.7552 68.6187C17.7508 66.7831 16.9742 65.9977 15.1518 65.9933C10.9951 65.9801 6.84285 65.9801 2.69059 65.9933C0.801992 65.9977 0.00330946 66.7964 0.00330946 68.6717C-0.00110315 74.8843 -0.00110315 81.0926 0.00330946 87.3053C0.00330946 89.1806 0.810817 89.988 2.68618 89.9924C6.80314 89.9969 10.9201 89.9969 15.0371 89.9924C17.0139 89.988 17.7552 89.2423 17.7596 87.2523C17.7641 84.1681 17.7596 81.0794 17.7596 77.9907C17.7596 74.8667 17.7685 71.7427 17.7552 68.6187Z" fill="#1E1E1C"/>
<path fill-rule="evenodd" clip-rule="evenodd" d="M30.4547 68.1417C30.4371 67.3916 30.918 66.9901 31.6197 66.9768C32.3433 66.9636 32.7978 67.4225 32.7978 68.1329C32.7934 68.8301 32.3654 69.2581 31.6197 69.3022C30.8872 69.2581 30.468 68.8609 30.4547 68.1417Z" fill="#1E1E1C"/>
<path fill-rule="evenodd" clip-rule="evenodd" d="M32.7935 75.3873C32.8288 76.0933 32.3875 76.5124 31.6771 76.5919C30.9357 76.5698 30.4768 76.2124 30.4504 75.4755C30.4239 74.7386 30.8607 74.3195 31.58 74.2798C32.3169 74.24 32.7626 74.6945 32.7935 75.3873Z" fill="#1E1E1C"/>
<path fill-rule="evenodd" clip-rule="evenodd" d="M30.4547 60.8876C30.4194 60.1507 30.8607 59.7271 31.5799 59.6874C32.3257 59.6521 32.7713 60.1198 32.7978 60.8082C32.8287 61.5053 32.3918 61.9422 31.6549 62.0172C30.9357 61.9819 30.4856 61.6024 30.4547 60.8876Z" fill="#1E1E1C"/>
<path fill-rule="evenodd" clip-rule="evenodd" d="M34.6467 64.3961C34.5673 65.2036 34.1613 65.6669 33.4553 65.6713C32.7493 65.6757 32.2639 65.2168 32.2639 64.502C32.2683 63.8048 32.6963 63.3239 33.4332 63.3195C34.1745 63.3106 34.5187 63.8004 34.6467 64.3961Z" fill="#1E1E1C"/>
<path fill-rule="evenodd" clip-rule="evenodd" d="M32.2683 57.1907C32.2859 56.5024 32.7007 56.017 33.4465 56.0346C34.1745 56.0523 34.607 56.4847 34.6158 57.2039C34.6246 57.954 34.1172 58.2806 33.4376 58.3953C32.7449 58.285 32.2462 57.9099 32.2683 57.1907Z" fill="#1E1E1C"/>
<path fill-rule="evenodd" clip-rule="evenodd" d="M34.6202 71.7597C34.629 72.4965 34.1701 72.9334 33.4685 72.9554C32.7449 72.9819 32.2815 72.5098 32.2639 71.8038C32.2462 71.0846 32.714 70.6875 33.4465 70.5771C34.1172 70.6742 34.607 71.0184 34.6202 71.7597Z" fill="#1E1E1C"/>
<path fill-rule="evenodd" clip-rule="evenodd" d="M36.4338 60.879C36.3632 61.5673 36.0058 62.0041 35.2601 61.9953C34.5144 61.9909 34.1084 61.5497 34.1084 60.8349C34.1084 60.1156 34.5541 59.6788 35.2733 59.6876C35.9882 59.6965 36.3985 60.1112 36.4338 60.879Z" fill="#1E1E1C"/>
<path fill-rule="evenodd" clip-rule="evenodd" d="M37.1222 58.3685C36.4382 58.3773 35.9705 57.9669 35.9175 57.1815C35.9572 56.4888 36.3411 56.0608 37.0648 56.0343C37.8149 56.0078 38.2253 56.4579 38.2474 57.1683C38.2739 57.9008 37.8238 58.3641 37.1222 58.3685Z" fill="#1E1E1C"/>
<path fill-rule="evenodd" clip-rule="evenodd" d="M40.1183 60.8836C39.9859 61.541 39.6373 62.022 38.896 61.9999C38.1723 61.9823 37.7399 61.5366 37.7443 60.8262C37.7443 60.1026 38.2032 59.6746 38.9269 59.6878C39.6505 59.6966 40.03 60.1511 40.1183 60.8836Z" fill="#1E1E1C"/>
<path fill-rule="evenodd" clip-rule="evenodd" d="M41.9054 57.2258C41.8966 57.9847 41.3803 58.2892 40.7405 58.4039C40.0124 58.2804 39.527 57.8788 39.5623 57.1684C39.5932 56.4933 40.0036 55.9947 40.767 56.0344C41.4995 56.0697 41.9098 56.4933 41.9054 57.2258Z" fill="#1E1E1C"/>
<path fill-rule="evenodd" clip-rule="evenodd" d="M42.7174 88.5762C38.6004 88.5365 34.4835 88.5409 30.3665 88.5718C29.4222 88.5806 29.0957 88.2894 29.0957 87.3054C29.131 76.3538 29.1266 65.3978 29.1001 54.4461C29.0957 53.4931 29.3781 53.1401 30.3489 53.1445C34.5011 53.1842 38.6578 53.1798 42.8101 53.1489C43.7323 53.1401 44.0235 53.471 44.0191 54.3756C43.9882 59.9264 44.0015 65.4772 44.0015 71.028C44.0015 76.4288 43.9794 81.834 44.0235 87.2348C44.0324 88.2452 43.7323 88.5894 42.7174 88.5762ZM42.8321 51.8031C38.7152 51.7987 34.6026 51.7987 30.4901 51.8031C28.3411 51.8031 27.6836 52.4562 27.6836 54.6271C27.6792 65.4639 27.6792 76.2964 27.6836 87.1333C27.6836 89.2601 28.4073 89.9881 30.5121 89.9926C34.5541 89.997 38.596 89.997 42.638 89.9926C44.7031 89.9881 45.44 89.2645 45.44 87.226V70.9177C45.44 65.411 45.4444 59.8999 45.44 54.3888C45.4356 52.54 44.6942 51.8031 42.8321 51.8031Z" fill="#1E1E1C"/>
<path fill-rule="evenodd" clip-rule="evenodd" d="M52.4339 24.2559C52.4163 24.9575 51.9574 25.4031 51.2249 25.3767C50.5012 25.3546 50.0732 24.9222 50.082 24.1941C50.0952 23.4573 50.585 23.1175 51.2469 23.0381C52.0059 23.1263 52.4472 23.5543 52.4339 24.2559Z" fill="#1E1E1C"/>
<path fill-rule="evenodd" clip-rule="evenodd" d="M55.0418 21.3838C55.0241 22.0942 54.6005 22.5045 53.8415 22.5398C53.1444 22.4648 52.7075 22.0986 52.7163 21.3573C52.7252 20.616 53.1752 20.2101 53.8901 20.2189C54.6093 20.2233 55.055 20.6645 55.0418 21.3838Z" fill="#1E1E1C"/>
<path fill-rule="evenodd" clip-rule="evenodd" d="M57.8834 18.5596C57.8658 19.2258 57.4863 19.6627 56.7759 19.6671C56.0301 19.6759 55.5889 19.292 55.5757 18.5419C55.5624 17.783 56.0081 17.4211 56.7494 17.3594C57.4775 17.4211 57.9011 17.8315 57.8834 18.5596Z" fill="#1E1E1C"/>
<path fill-rule="evenodd" clip-rule="evenodd" d="M57.8834 24.2037C57.8879 24.9141 57.4863 25.3377 56.745 25.3994C56.039 25.3332 55.5845 24.9935 55.5712 24.2434C55.5536 23.4889 56.0081 23.0873 56.7097 23.0653C57.4245 23.0432 57.8834 23.4712 57.8834 24.2037Z" fill="#1E1E1C"/>
<path fill-rule="evenodd" clip-rule="evenodd" d="M58.4262 15.656C58.435 14.8927 58.8851 14.5132 59.622 14.5309C60.3192 14.5441 60.7207 14.9545 60.7296 15.6384C60.7384 16.3708 60.3324 16.7856 59.5779 16.8341C58.8366 16.79 58.4174 16.4061 58.4262 15.656Z" fill="#1E1E1C"/>
<path fill-rule="evenodd" clip-rule="evenodd" d="M59.5647 22.0936C58.7925 22.0098 58.4042 21.595 58.4307 20.8537C58.4527 20.1433 58.9072 19.7638 59.5647 19.755C60.2884 19.7462 60.7473 20.1874 60.734 20.9287C60.7208 21.6612 60.2707 22.0406 59.5647 22.0936Z" fill="#1E1E1C"/>
<path fill-rule="evenodd" clip-rule="evenodd" d="M62.1769 24.2785C62.1372 25.0021 61.6651 25.3595 60.9458 25.4081C60.2354 25.2978 59.7985 24.8874 59.8294 24.1682C59.8603 23.4445 60.3501 23.0254 61.0605 23.0607C61.7666 23.096 62.2166 23.5416 62.1769 24.2785Z" fill="#1E1E1C"/>
<path fill-rule="evenodd" clip-rule="evenodd" d="M63.589 12.8326C63.536 13.5827 63.1213 13.9887 62.3888 13.971C61.7136 13.9578 61.2856 13.5739 61.2768 12.8635C61.268 12.1222 61.6563 11.6854 62.4108 11.6722C63.1698 11.6589 63.5316 12.1002 63.589 12.8326Z" fill="#1E1E1C"/>
<path fill-rule="evenodd" clip-rule="evenodd" d="M63.3551 18.1054C63.311 18.8423 62.8874 19.235 62.1549 19.2218C61.3959 19.2041 61.0253 18.7276 61.0517 17.9951C61.0738 17.2936 61.5327 16.9053 62.1902 16.9053C62.9006 16.9097 63.3463 17.3156 63.3551 18.1054Z" fill="#1E1E1C"/>
<path fill-rule="evenodd" clip-rule="evenodd" d="M66.4352 9.91121C66.4131 10.7231 65.9939 11.1334 65.2658 11.129C64.5289 11.1246 64.1053 10.6701 64.1274 9.93327C64.145 9.24935 64.5466 8.83458 65.2394 8.81693C65.9895 8.79928 66.3734 9.22729 66.4352 9.91121Z" fill="#1E1E1C"/>
<path fill-rule="evenodd" clip-rule="evenodd" d="M66.7396 13.0796C67.4633 13.0929 67.8251 13.5871 67.9045 14.271C67.781 14.9902 67.3882 15.4579 66.6602 15.4226C65.963 15.3873 65.5041 14.9461 65.5261 14.2092C65.5526 13.4724 66.0336 13.062 66.7396 13.0796Z" fill="#1E1E1C"/>
<mask id="mask0_0_132" style="mask-type:alpha" maskUnits="userSpaceOnUse" x="41" y="0" width="49" height="90">
<path fill-rule="evenodd" clip-rule="evenodd" d="M41.4184 0H90V90H41.4184V0Z" fill="white"/>
</mask>
<g mask="url(#mask0_0_132)">
<path fill-rule="evenodd" clip-rule="evenodd" d="M85.9344 27.8258C81.8572 27.839 77.7799 27.8699 73.6983 27.8081C72.6922 27.7949 72.4319 28.0596 72.4363 29.0701C72.4672 47.9905 72.4495 66.9154 72.4848 85.8358C72.4848 86.8727 72.2774 87.1772 71.1919 87.1551C67.4809 87.0757 63.7699 87.0933 60.0589 87.1463C59.1587 87.1595 58.9072 86.9565 58.9072 86.0211C58.9381 67.0963 58.9205 48.1758 58.9558 29.2554C58.9558 28.1523 58.7484 27.7772 57.5526 27.8037C53.365 27.8876 49.1774 27.8346 44.9854 27.8346C44.8178 27.8346 44.6457 27.8125 44.3015 27.7905C46.5607 25.1519 48.7229 22.628 50.8851 20.1041C55.6375 14.5577 60.3943 9.01567 65.1422 3.46485C65.4688 3.08538 65.6453 2.73239 66.1704 3.35013C73.0761 11.4469 80.0127 19.5216 86.9582 27.6184C86.6581 28.0023 86.2654 27.8258 85.9344 27.8258ZM89.0144 25.624C82.0558 17.5184 75.1059 9.40396 68.1472 1.29835C66.6602 -0.435724 64.7495 -0.431311 63.2581 1.30277C56.2729 9.43484 49.301 17.5802 42.3114 25.7122C41.4377 26.7315 41.1376 27.817 41.7157 29.0568C42.2805 30.2659 43.291 30.685 44.5883 30.6762C48.0434 30.6453 51.4985 30.7027 54.9535 30.6409C55.8713 30.6233 56.092 30.8571 56.0876 31.7749C56.0479 40.8865 56.0655 50.0026 56.0655 59.1142C56.0655 68.1199 56.0611 77.1213 56.0655 86.127C56.0655 86.5285 56.0655 86.9345 56.1185 87.336C56.3303 88.9245 57.376 89.9526 58.9866 89.9702C63.4699 90.0099 67.9575 90.0099 72.4407 89.9702C74.0557 89.957 75.0883 88.9112 75.2603 87.3095C75.3133 86.8374 75.3265 86.3565 75.3265 85.8799C75.331 67.9479 75.3398 50.0114 75.3045 32.0794C75.3001 30.9851 75.4898 30.5968 76.69 30.6321C79.9951 30.7292 83.3045 30.6409 86.614 30.6762C87.9731 30.6939 89.0718 30.3497 89.7028 29.048C90.3338 27.7331 89.8926 26.6477 89.0144 25.624Z" fill="#1E1E1C"/>
</g>
<path fill-rule="evenodd" clip-rule="evenodd" d="M52.4339 24.2559C52.4163 24.9575 51.9574 25.4031 51.2249 25.3767C50.5012 25.3546 50.0732 24.9222 50.082 24.1941C50.0952 23.4573 50.585 23.1175 51.2469 23.0381C52.0059 23.1263 52.4472 23.5543 52.4339 24.2559Z" fill="#FEFEFE"/>
<path fill-rule="evenodd" clip-rule="evenodd" d="M55.0418 21.3838C55.0241 22.0942 54.6005 22.5045 53.8415 22.5398C53.1444 22.4648 52.7075 22.0986 52.7163 21.3573C52.7252 20.616 53.1752 20.2101 53.8901 20.2189C54.6093 20.2233 55.055 20.6645 55.0418 21.3838Z" fill="#FEFEFE"/>
<path fill-rule="evenodd" clip-rule="evenodd" d="M57.8834 18.5596C57.8658 19.2258 57.4863 19.6627 56.7759 19.6671C56.0301 19.6759 55.5889 19.292 55.5757 18.5419C55.5624 17.783 56.0081 17.4211 56.7494 17.3594C57.4775 17.4211 57.9011 17.8315 57.8834 18.5596Z" fill="#FEFEFE"/>
<path fill-rule="evenodd" clip-rule="evenodd" d="M57.8834 24.2037C57.8879 24.9141 57.4863 25.3377 56.745 25.3994C56.039 25.3332 55.5845 24.9935 55.5712 24.2434C55.5536 23.4889 56.0081 23.0873 56.7097 23.0653C57.4245 23.0432 57.8834 23.4712 57.8834 24.2037Z" fill="#FEFEFE"/>
<path fill-rule="evenodd" clip-rule="evenodd" d="M58.4262 15.656C58.435 14.8927 58.8851 14.5132 59.622 14.5309C60.3192 14.5441 60.7207 14.9545 60.7296 15.6384C60.7384 16.3708 60.3324 16.7856 59.5779 16.8341C58.8366 16.79 58.4174 16.4061 58.4262 15.656Z" fill="#FEFEFE"/>
<path fill-rule="evenodd" clip-rule="evenodd" d="M59.5647 22.0936C58.7925 22.0098 58.4042 21.595 58.4307 20.8537C58.4527 20.1433 58.9072 19.7638 59.5647 19.755C60.2884 19.7462 60.7473 20.1874 60.734 20.9287C60.7208 21.6612 60.2707 22.0406 59.5647 22.0936Z" fill="#FEFEFE"/>
<path fill-rule="evenodd" clip-rule="evenodd" d="M62.1769 24.2785C62.1372 25.0021 61.6651 25.3595 60.9458 25.4081C60.2354 25.2978 59.7985 24.8874 59.8294 24.1682C59.8603 23.4445 60.3501 23.0254 61.0605 23.0607C61.7666 23.096 62.2166 23.5416 62.1769 24.2785Z" fill="#FEFEFE"/>
<path fill-rule="evenodd" clip-rule="evenodd" d="M63.589 12.8326C63.536 13.5827 63.1213 13.9887 62.3888 13.971C61.7136 13.9578 61.2856 13.5739 61.2768 12.8635C61.268 12.1222 61.6563 11.6854 62.4108 11.6722C63.1698 11.6589 63.5316 12.1002 63.589 12.8326Z" fill="#FEFEFE"/>
<path fill-rule="evenodd" clip-rule="evenodd" d="M63.3551 18.1054C63.311 18.8423 62.8874 19.235 62.1549 19.2218C61.3959 19.2041 61.0253 18.7276 61.0517 17.9951C61.0738 17.2936 61.5327 16.9053 62.1902 16.9053C62.9006 16.9097 63.3463 17.3156 63.3551 18.1054Z" fill="#FEFEFE"/>
<path fill-rule="evenodd" clip-rule="evenodd" d="M66.4352 9.91121C66.4131 10.7231 65.9939 11.1334 65.2658 11.129C64.5289 11.1246 64.1053 10.6701 64.1274 9.93327C64.145 9.24935 64.5466 8.83458 65.2394 8.81693C65.9895 8.79928 66.3734 9.22729 66.4352 9.91121Z" fill="#FEFEFE"/>
<path fill-rule="evenodd" clip-rule="evenodd" d="M66.7396 13.0796C67.4633 13.0929 67.8251 13.5871 67.9045 14.271C67.781 14.9902 67.3882 15.4579 66.6602 15.4226C65.963 15.3873 65.5041 14.9461 65.5261 14.2092C65.5526 13.4724 66.0336 13.062 66.7396 13.0796Z" fill="#FEFEFE"/>
<mask id="mask1_0_132" style="mask-type:alpha" maskUnits="userSpaceOnUse" x="41" y="0" width="49" height="90">
<path fill-rule="evenodd" clip-rule="evenodd" d="M41.4184 0H90V90H41.4184V0Z" fill="white"/>
</mask>
<g mask="url(#mask1_0_132)">
<path fill-rule="evenodd" clip-rule="evenodd" d="M85.9344 27.8258C81.8572 27.839 77.7799 27.8699 73.6983 27.8081C72.6922 27.7949 72.4319 28.0596 72.4363 29.0701C72.4672 47.9905 72.4495 66.9154 72.4848 85.8358C72.4848 86.8727 72.2774 87.1772 71.1919 87.1551C67.4809 87.0757 63.7699 87.0933 60.0589 87.1463C59.1587 87.1595 58.9072 86.9565 58.9072 86.0211C58.9381 67.0963 58.9205 48.1758 58.9558 29.2554C58.9558 28.1523 58.7484 27.7772 57.5526 27.8037C53.365 27.8876 49.1774 27.8346 44.9854 27.8346C44.8178 27.8346 44.6457 27.8125 44.3015 27.7905C46.5607 25.1519 48.7229 22.628 50.8851 20.1041C55.6375 14.5577 60.3943 9.01567 65.1422 3.46485C65.4688 3.08538 65.6453 2.73239 66.1704 3.35013C73.0761 11.4469 80.0127 19.5216 86.9582 27.6184C86.6581 28.0023 86.2654 27.8258 85.9344 27.8258ZM89.0144 25.624C82.0558 17.5184 75.1059 9.40396 68.1472 1.29835C66.6602 -0.435724 64.7495 -0.431311 63.2581 1.30277C56.2729 9.43484 49.301 17.5802 42.3114 25.7122C41.4377 26.7315 41.1376 27.817 41.7157 29.0568C42.2805 30.2659 43.291 30.685 44.5883 30.6762C48.0434 30.6453 51.4985 30.7027 54.9535 30.6409C55.8713 30.6233 56.092 30.8571 56.0876 31.7749C56.0479 40.8865 56.0655 50.0026 56.0655 59.1142C56.0655 68.1199 56.0611 77.1213 56.0655 86.127C56.0655 86.5285 56.0655 86.9345 56.1185 87.336C56.3303 88.9245 57.376 89.9526 58.9866 89.9702C63.4699 90.0099 67.9575 90.0099 72.4407 89.9702C74.0557 89.957 75.0883 88.9112 75.2603 87.3095C75.3133 86.8374 75.3265 86.3565 75.3265 85.8799C75.331 67.9479 75.3398 50.0114 75.3045 32.0794C75.3001 30.9851 75.4898 30.5968 76.69 30.6321C79.9951 30.7292 83.3045 30.6409 86.614 30.6762C87.9731 30.6939 89.0718 30.3497 89.7028 29.048C90.3338 27.7331 89.8926 26.6477 89.0144 25.624Z" fill="#FEFEFE"/>
</g>
<path fill-rule="evenodd" clip-rule="evenodd" d="M30.4547 68.1417C30.4371 67.3916 30.918 66.9901 31.6197 66.9768C32.3433 66.9636 32.7978 67.4225 32.7978 68.1329C32.7934 68.8301 32.3654 69.2581 31.6197 69.3022C30.8872 69.2581 30.468 68.8609 30.4547 68.1417Z" fill="#FDFDFD"/>
<path fill-rule="evenodd" clip-rule="evenodd" d="M32.7935 75.3873C32.8288 76.0933 32.3875 76.5124 31.6771 76.5919C30.9357 76.5698 30.4768 76.2124 30.4504 75.4755C30.4239 74.7386 30.8607 74.3195 31.58 74.2798C32.3169 74.24 32.7626 74.6945 32.7935 75.3873Z" fill="#FDFDFD"/>
<path fill-rule="evenodd" clip-rule="evenodd" d="M30.4547 60.8876C30.4194 60.1507 30.8607 59.7271 31.5799 59.6874C32.3257 59.6521 32.7713 60.1198 32.7978 60.8082C32.8287 61.5053 32.3918 61.9422 31.6549 62.0172C30.9357 61.9819 30.4856 61.6024 30.4547 60.8876Z" fill="#FDFDFD"/>
<path fill-rule="evenodd" clip-rule="evenodd" d="M34.6467 64.3961C34.5673 65.2036 34.1613 65.6669 33.4553 65.6713C32.7493 65.6757 32.2639 65.2168 32.2639 64.502C32.2683 63.8048 32.6963 63.3239 33.4332 63.3195C34.1745 63.3106 34.5187 63.8004 34.6467 64.3961Z" fill="#FDFDFD"/>
<path fill-rule="evenodd" clip-rule="evenodd" d="M32.2683 57.1907C32.2859 56.5024 32.7007 56.017 33.4465 56.0346C34.1745 56.0523 34.607 56.4847 34.6158 57.2039C34.6246 57.954 34.1172 58.2806 33.4376 58.3953C32.7449 58.285 32.2462 57.9099 32.2683 57.1907Z" fill="#FDFDFD"/>
<path fill-rule="evenodd" clip-rule="evenodd" d="M34.6202 71.7597C34.629 72.4965 34.1701 72.9334 33.4685 72.9554C32.7449 72.9819 32.2815 72.5098 32.2639 71.8038C32.2462 71.0846 32.714 70.6875 33.4465 70.5771C34.1172 70.6742 34.607 71.0184 34.6202 71.7597Z" fill="#FDFDFD"/>
<path fill-rule="evenodd" clip-rule="evenodd" d="M36.4338 60.879C36.3632 61.5673 36.0058 62.0041 35.2601 61.9953C34.5144 61.9909 34.1084 61.5497 34.1084 60.8349C34.1084 60.1156 34.5541 59.6788 35.2733 59.6876C35.9882 59.6965 36.3985 60.1112 36.4338 60.879Z" fill="#FDFDFD"/>
<path fill-rule="evenodd" clip-rule="evenodd" d="M37.1222 58.3685C36.4382 58.3773 35.9705 57.9669 35.9175 57.1815C35.9572 56.4888 36.3411 56.0608 37.0648 56.0343C37.8149 56.0078 38.2253 56.4579 38.2474 57.1683C38.2739 57.9008 37.8238 58.3641 37.1222 58.3685Z" fill="#FDFDFD"/>
<path fill-rule="evenodd" clip-rule="evenodd" d="M40.1183 60.8836C39.9859 61.541 39.6373 62.022 38.896 61.9999C38.1723 61.9823 37.7399 61.5366 37.7443 60.8262C37.7443 60.1026 38.2032 59.6746 38.9269 59.6878C39.6505 59.6966 40.03 60.1511 40.1183 60.8836Z" fill="#FDFDFD"/>
<path fill-rule="evenodd" clip-rule="evenodd" d="M41.9054 57.2258C41.8966 57.9847 41.3803 58.2892 40.7405 58.4039C40.0124 58.2804 39.527 57.8788 39.5623 57.1684C39.5932 56.4933 40.0036 55.9947 40.767 56.0344C41.4995 56.0697 41.9098 56.4933 41.9054 57.2258Z" fill="#FDFDFD"/>
<path fill-rule="evenodd" clip-rule="evenodd" d="M42.7174 88.5762C38.6004 88.5365 34.4835 88.5409 30.3665 88.5718C29.4222 88.5806 29.0957 88.2894 29.0957 87.3054C29.131 76.3538 29.1266 65.3978 29.1001 54.4461C29.0957 53.4931 29.3781 53.1401 30.3489 53.1445C34.5011 53.1842 38.6578 53.1798 42.8101 53.1489C43.7323 53.1401 44.0235 53.471 44.0191 54.3756C43.9882 59.9264 44.0015 65.4772 44.0015 71.028C44.0015 76.4288 43.9794 81.834 44.0235 87.2348C44.0324 88.2452 43.7323 88.5894 42.7174 88.5762ZM42.8321 51.8031C38.7152 51.7987 34.6026 51.7987 30.4901 51.8031C28.3411 51.8031 27.6836 52.4562 27.6836 54.6271C27.6792 65.4639 27.6792 76.2964 27.6836 87.1333C27.6836 89.2601 28.4073 89.9881 30.5121 89.9926C34.5541 89.997 38.596 89.997 42.638 89.9926C44.7031 89.9881 45.44 89.2645 45.44 87.226V70.9177C45.44 65.411 45.4444 59.8999 45.44 54.3888C45.4356 52.54 44.6942 51.8031 42.8321 51.8031Z" fill="#FDFDFD"/>
<path fill-rule="evenodd" clip-rule="evenodd" d="M3.9349 76.2612C3.22888 76.2612 2.77438 75.7979 2.78762 75.0787C2.80086 74.3639 3.23329 73.905 3.96137 73.9182C4.6718 73.9315 5.06894 74.3727 5.11748 75.0699C5.06894 75.8376 4.63209 76.2612 3.9349 76.2612Z" fill="#FDFDFD"/>
<path fill-rule="evenodd" clip-rule="evenodd" d="M4.61003 71.4334C4.61444 70.6921 5.06453 70.2818 5.77496 70.2862C6.49421 70.2862 6.93989 70.7274 6.93106 71.451C6.91783 72.157 6.51187 72.5806 5.70877 72.6027C5.04688 72.5409 4.61003 72.1747 4.61003 71.4334Z" fill="#FDFDFD"/>
<path fill-rule="evenodd" clip-rule="evenodd" d="M6.9311 78.7538C6.91345 79.4731 6.48984 79.8878 5.68674 79.8922C5.0072 79.804 4.57035 79.4245 4.61889 78.67C4.66743 77.9199 5.13517 77.5492 5.86766 77.5934C6.57368 77.6331 6.94433 78.092 6.9311 78.7538Z" fill="#FDFDFD"/>
<path fill-rule="evenodd" clip-rule="evenodd" d="M8.77116 75.0781C8.77557 75.7973 8.32548 76.2562 7.60623 76.265C6.88697 76.2739 6.42806 75.8194 6.41482 75.1002C6.40159 74.3765 6.90021 74.0147 7.51798 73.8779C8.29459 73.975 8.76674 74.3545 8.77116 75.0781Z" fill="#FDFDFD"/>
<path fill-rule="evenodd" clip-rule="evenodd" d="M10.5847 71.4603C10.5759 72.206 10.1214 72.5546 9.45952 72.6076C8.66084 72.5634 8.25047 72.1222 8.25929 71.425C8.26371 70.7191 8.71821 70.269 9.44187 70.2866C10.1567 70.3043 10.5936 70.7235 10.5847 71.4603Z" fill="#FDFDFD"/>
<path fill-rule="evenodd" clip-rule="evenodd" d="M14.2428 71.4734C14.2075 72.1662 13.7971 72.603 12.9322 72.603C12.3145 72.5324 11.9041 72.1485 11.9129 71.4116C11.9218 70.6439 12.4116 70.2732 13.1043 70.2865C13.8148 70.2953 14.2781 70.7542 14.2428 71.4734Z" fill="#FDFDFD"/>
<path fill-rule="evenodd" clip-rule="evenodd" d="M16.3741 87.3318C16.3785 88.2231 16.0917 88.5761 15.1739 88.5716C10.9863 88.5408 6.80314 88.5408 2.61557 88.5716C1.68451 88.5805 1.41093 88.2231 1.42417 87.3362C1.46388 84.2122 1.43741 81.0926 1.43741 77.9686C1.43741 74.8843 1.46388 71.8001 1.42417 68.7158C1.41093 67.7759 1.68893 67.4318 2.67294 67.4406C6.8252 67.4891 10.9731 67.4891 15.1253 67.4406C16.1182 67.4274 16.3785 67.7759 16.3741 68.7158C16.3476 74.9196 16.3476 81.1279 16.3741 87.3318ZM17.7552 68.6187C17.7508 66.7831 16.9742 65.9977 15.1518 65.9933C10.9951 65.9801 6.84285 65.9801 2.69059 65.9933C0.801992 65.9977 0.00330946 66.7964 0.00330946 68.6717C-0.00110315 74.8843 -0.00110315 81.0926 0.00330946 87.3053C0.00330946 89.1806 0.810817 89.988 2.68618 89.9924C6.80314 89.9969 10.9201 89.9969 15.0371 89.9924C17.0139 89.988 17.7552 89.2423 17.7596 87.2523C17.7641 84.1681 17.7596 81.0794 17.7596 77.9907C17.7596 74.8667 17.7685 71.7427 17.7552 68.6187Z" fill="#FDFDFD"/>
<path fill-rule="evenodd" clip-rule="evenodd" d="M52.4339 24.2559C52.4163 24.9575 51.9574 25.4031 51.2249 25.3767C50.5012 25.3546 50.0732 24.9222 50.082 24.1941C50.0952 23.4573 50.585 23.1175 51.2469 23.0381C52.0059 23.1263 52.4472 23.5543 52.4339 24.2559Z" fill="#1E1E1C"/>
<path fill-rule="evenodd" clip-rule="evenodd" d="M55.0418 21.3838C55.0241 22.0942 54.6005 22.5045 53.8415 22.5398C53.1444 22.4648 52.7075 22.0986 52.7163 21.3573C52.7252 20.616 53.1752 20.2101 53.8901 20.2189C54.6093 20.2233 55.055 20.6645 55.0418 21.3838Z" fill="#1E1E1C"/>
<path fill-rule="evenodd" clip-rule="evenodd" d="M57.8834 18.5596C57.8658 19.2258 57.4863 19.6627 56.7759 19.6671C56.0301 19.6759 55.5889 19.292 55.5757 18.5419C55.5624 17.783 56.0081 17.4211 56.7494 17.3594C57.4775 17.4211 57.9011 17.8315 57.8834 18.5596Z" fill="#1E1E1C"/>
<path fill-rule="evenodd" clip-rule="evenodd" d="M57.8834 24.2037C57.8879 24.9141 57.4863 25.3377 56.745 25.3994C56.039 25.3332 55.5845 24.9935 55.5712 24.2434C55.5536 23.4889 56.0081 23.0873 56.7097 23.0653C57.4245 23.0432 57.8834 23.4712 57.8834 24.2037Z" fill="#1E1E1C"/>
<path fill-rule="evenodd" clip-rule="evenodd" d="M58.4262 15.656C58.435 14.8927 58.8851 14.5132 59.622 14.5309C60.3192 14.5441 60.7207 14.9545 60.7296 15.6384C60.7384 16.3708 60.3324 16.7856 59.5779 16.8341C58.8366 16.79 58.4174 16.4061 58.4262 15.656Z" fill="#1E1E1C"/>
<path fill-rule="evenodd" clip-rule="evenodd" d="M59.5647 22.0936C58.7925 22.0098 58.4042 21.595 58.4307 20.8537C58.4527 20.1433 58.9072 19.7638 59.5647 19.755C60.2884 19.7462 60.7473 20.1874 60.734 20.9287C60.7208 21.6612 60.2707 22.0406 59.5647 22.0936Z" fill="#1E1E1C"/>
<path fill-rule="evenodd" clip-rule="evenodd" d="M62.1769 24.2785C62.1372 25.0021 61.6651 25.3595 60.9458 25.4081C60.2354 25.2978 59.7985 24.8874 59.8294 24.1682C59.8603 23.4445 60.3501 23.0254 61.0605 23.0607C61.7666 23.096 62.2166 23.5416 62.1769 24.2785Z" fill="#1E1E1C"/>
<path fill-rule="evenodd" clip-rule="evenodd" d="M63.589 12.8326C63.536 13.5827 63.1213 13.9887 62.3888 13.971C61.7136 13.9578 61.2856 13.5739 61.2768 12.8635C61.268 12.1222 61.6563 11.6854 62.4108 11.6722C63.1698 11.6589 63.5316 12.1002 63.589 12.8326Z" fill="#1E1E1C"/>
<path fill-rule="evenodd" clip-rule="evenodd" d="M63.3551 18.1054C63.311 18.8423 62.8874 19.235 62.1549 19.2218C61.3959 19.2041 61.0253 18.7276 61.0517 17.9951C61.0738 17.2936 61.5327 16.9053 62.1902 16.9053C62.9006 16.9097 63.3463 17.3156 63.3551 18.1054Z" fill="#1E1E1C"/>
<path fill-rule="evenodd" clip-rule="evenodd" d="M65.2657 11.129C64.5288 11.1246 64.1052 10.6701 64.1273 9.93327C64.1449 9.24935 64.5465 8.83458 65.2393 8.81693C65.9894 8.79928 66.3733 9.22729 66.4351 9.91121C66.413 10.7231 65.9938 11.1334 65.2657 11.129Z" fill="#1E1E1C"/>
<path fill-rule="evenodd" clip-rule="evenodd" d="M67.9045 14.271C67.7809 14.9902 67.3882 15.4579 66.6601 15.4226C65.9629 15.3873 65.504 14.9461 65.5261 14.2092C65.5526 13.4724 66.0335 13.062 66.7396 13.0796C67.4632 13.0929 67.8251 13.5871 67.9045 14.271Z" fill="#1E1E1C"/>
<path fill-rule="evenodd" clip-rule="evenodd" d="M30.4547 68.1417C30.4371 67.3916 30.918 66.9901 31.6197 66.9768C32.3433 66.9636 32.7978 67.4225 32.7978 68.1329C32.7934 68.8301 32.3654 69.2581 31.6197 69.3022C30.8872 69.2581 30.468 68.8609 30.4547 68.1417Z" fill="#1E1E1C"/>
<path fill-rule="evenodd" clip-rule="evenodd" d="M32.7935 75.3873C32.8288 76.0933 32.3875 76.5124 31.6771 76.5919C30.9357 76.5698 30.4768 76.2124 30.4504 75.4755C30.4239 74.7386 30.8607 74.3195 31.58 74.2798C32.3169 74.24 32.7626 74.6945 32.7935 75.3873Z" fill="#1E1E1C"/>
<path fill-rule="evenodd" clip-rule="evenodd" d="M30.4547 60.8876C30.4194 60.1507 30.8607 59.7271 31.5799 59.6874C32.3257 59.6521 32.7713 60.1198 32.7978 60.8082C32.8287 61.5053 32.3918 61.9422 31.6549 62.0172C30.9357 61.9819 30.4856 61.6024 30.4547 60.8876Z" fill="#1E1E1C"/>
<path fill-rule="evenodd" clip-rule="evenodd" d="M34.6467 64.3961C34.5673 65.2036 34.1613 65.6669 33.4553 65.6713C32.7493 65.6757 32.2639 65.2168 32.2639 64.502C32.2683 63.8048 32.6963 63.3239 33.4332 63.3195C34.1745 63.3106 34.5187 63.8004 34.6467 64.3961Z" fill="#1E1E1C"/>
<path fill-rule="evenodd" clip-rule="evenodd" d="M32.2683 57.1907C32.2859 56.5024 32.7007 56.017 33.4465 56.0346C34.1745 56.0523 34.607 56.4847 34.6158 57.2039C34.6246 57.954 34.1172 58.2806 33.4376 58.3953C32.7449 58.285 32.2462 57.9099 32.2683 57.1907Z" fill="#1E1E1C"/>
<path fill-rule="evenodd" clip-rule="evenodd" d="M34.6202 71.7597C34.629 72.4965 34.1701 72.9334 33.4685 72.9554C32.7449 72.9819 32.2815 72.5098 32.2639 71.8038C32.2462 71.0846 32.714 70.6875 33.4465 70.5771C34.1172 70.6742 34.607 71.0184 34.6202 71.7597Z" fill="#1E1E1C"/>
<path fill-rule="evenodd" clip-rule="evenodd" d="M36.4338 60.879C36.3632 61.5673 36.0058 62.0041 35.2601 61.9953C34.5144 61.9909 34.1084 61.5497 34.1084 60.8349C34.1084 60.1156 34.5541 59.6788 35.2733 59.6876C35.9882 59.6965 36.3985 60.1112 36.4338 60.879Z" fill="#1E1E1C"/>
<path fill-rule="evenodd" clip-rule="evenodd" d="M37.1222 58.3685C36.4382 58.3773 35.9705 57.9669 35.9175 57.1815C35.9572 56.4888 36.3411 56.0608 37.0648 56.0343C37.8149 56.0078 38.2253 56.4579 38.2474 57.1683C38.2739 57.9008 37.8238 58.3641 37.1222 58.3685Z" fill="#1E1E1C"/>
<path fill-rule="evenodd" clip-rule="evenodd" d="M40.1183 60.8836C39.9859 61.541 39.6373 62.022 38.896 61.9999C38.1723 61.9823 37.7399 61.5366 37.7443 60.8262C37.7443 60.1026 38.2032 59.6746 38.9269 59.6878C39.6505 59.6966 40.03 60.1511 40.1183 60.8836Z" fill="#1E1E1C"/>
<path fill-rule="evenodd" clip-rule="evenodd" d="M41.9054 57.2258C41.8966 57.9847 41.3803 58.2892 40.7405 58.4039C40.0124 58.2804 39.527 57.8788 39.5623 57.1684C39.5932 56.4933 40.0036 55.9947 40.767 56.0344C41.4995 56.0697 41.9098 56.4933 41.9054 57.2258Z" fill="#1E1E1C"/>
<path fill-rule="evenodd" clip-rule="evenodd" d="M3.9349 76.2612C3.22888 76.2612 2.77438 75.7979 2.78762 75.0787C2.80086 74.3639 3.23329 73.905 3.96137 73.9182C4.6718 73.9315 5.06894 74.3727 5.11748 75.0699C5.06894 75.8376 4.63209 76.2612 3.9349 76.2612Z" fill="#1E1E1C"/>
<path fill-rule="evenodd" clip-rule="evenodd" d="M4.61003 71.4334C4.61444 70.6921 5.06453 70.2818 5.77496 70.2862C6.49421 70.2862 6.93989 70.7274 6.93106 71.451C6.91783 72.157 6.51187 72.5806 5.70877 72.6027C5.04688 72.5409 4.61003 72.1747 4.61003 71.4334Z" fill="#1E1E1C"/>
<path fill-rule="evenodd" clip-rule="evenodd" d="M6.9311 78.7538C6.91345 79.4731 6.48984 79.8878 5.68674 79.8922C5.0072 79.804 4.57035 79.4245 4.61889 78.67C4.66743 77.9199 5.13517 77.5492 5.86766 77.5934C6.57368 77.6331 6.94433 78.092 6.9311 78.7538Z" fill="#1E1E1C"/>
<path fill-rule="evenodd" clip-rule="evenodd" d="M8.77116 75.0781C8.77557 75.7973 8.32548 76.2562 7.60623 76.265C6.88697 76.2739 6.42806 75.8194 6.41482 75.1002C6.40159 74.3765 6.90021 74.0147 7.51798 73.8779C8.29459 73.975 8.76674 74.3545 8.77116 75.0781Z" fill="#1E1E1C"/>
<path fill-rule="evenodd" clip-rule="evenodd" d="M10.5847 71.4603C10.5759 72.206 10.1214 72.5546 9.45952 72.6076C8.66084 72.5634 8.25047 72.1222 8.25929 71.425C8.26371 70.7191 8.71821 70.269 9.44187 70.2866C10.1567 70.3043 10.5936 70.7235 10.5847 71.4603Z" fill="#1E1E1C"/>
<path fill-rule="evenodd" clip-rule="evenodd" d="M14.2428 71.4734C14.2075 72.1662 13.7971 72.603 12.9322 72.603C12.3145 72.5324 11.9041 72.1485 11.9129 71.4116C11.9218 70.6439 12.4116 70.2732 13.1043 70.2865C13.8148 70.2953 14.2781 70.7542 14.2428 71.4734Z" fill="#1E1E1C"/>
<path fill-rule="evenodd" clip-rule="evenodd" d="M52.4339 24.2559C52.4163 24.9575 51.9574 25.4031 51.2249 25.3767C50.5012 25.3546 50.0732 24.9222 50.082 24.1941C50.0952 23.4573 50.585 23.1175 51.2469 23.0381C52.0059 23.1263 52.4472 23.5543 52.4339 24.2559Z" fill="#F9F9F9"/>
<path fill-rule="evenodd" clip-rule="evenodd" d="M67.9045 14.271C67.7809 14.9902 67.3882 15.4579 66.6601 15.4226C65.9629 15.3873 65.504 14.9461 65.5261 14.2092C65.5526 13.4724 66.0335 13.062 66.7396 13.0796C67.4632 13.0929 67.8251 13.5871 67.9045 14.271Z" fill="#F6F6F6"/>
<path fill-rule="evenodd" clip-rule="evenodd" d="M62.1769 24.2785C62.1372 25.0021 61.6651 25.3595 60.9458 25.4081C60.2354 25.2978 59.7985 24.8874 59.8294 24.1682C59.8603 23.4445 60.3501 23.0254 61.0605 23.0607C61.7666 23.096 62.2166 23.5416 62.1769 24.2785Z" fill="#F8F8F8"/>
<path fill-rule="evenodd" clip-rule="evenodd" d="M60.734 20.9287C60.7208 21.6612 60.2707 22.0406 59.5647 22.0936C58.7925 22.0098 58.4041 21.595 58.4306 20.8537C58.4527 20.1433 58.9072 19.7638 59.5647 19.755C60.2883 19.7462 60.7472 20.1874 60.734 20.9287Z" fill="#FBFBFB"/>
<path fill-rule="evenodd" clip-rule="evenodd" d="M57.8834 18.5596C57.8658 19.2258 57.4863 19.6627 56.7759 19.6671C56.0301 19.6759 55.5889 19.292 55.5757 18.5419C55.5624 17.783 56.0081 17.4211 56.7494 17.3594C57.4775 17.4211 57.9011 17.8315 57.8834 18.5596Z" fill="#FCFCFC"/>
<path fill-rule="evenodd" clip-rule="evenodd" d="M57.8834 24.2037C57.8879 24.9141 57.4863 25.3377 56.745 25.3994C56.039 25.3332 55.5845 24.9935 55.5712 24.2434C55.5536 23.4889 56.0081 23.0873 56.7097 23.0653C57.4245 23.0432 57.8834 23.4712 57.8834 24.2037Z" fill="#FCFCFC"/>
<path fill-rule="evenodd" clip-rule="evenodd" d="M63.3551 18.1054C63.311 18.8423 62.8874 19.235 62.1549 19.2218C61.3959 19.2041 61.0253 18.7276 61.0517 17.9951C61.0738 17.2936 61.5327 16.9053 62.1902 16.9053C62.9006 16.9097 63.3463 17.3156 63.3551 18.1054Z" fill="#FCFCFC"/>
<path fill-rule="evenodd" clip-rule="evenodd" d="M66.4352 9.91121C66.4131 10.7231 65.9939 11.1334 65.2658 11.129C64.5289 11.1246 64.1053 10.6701 64.1274 9.93327C64.145 9.24935 64.5466 8.83458 65.2394 8.81693C65.9895 8.79928 66.3734 9.22729 66.4352 9.91121Z" fill="#FCFCFC"/>
<path fill-rule="evenodd" clip-rule="evenodd" d="M55.0418 21.3838C55.0241 22.0942 54.6005 22.5045 53.8415 22.5398C53.1444 22.4648 52.7075 22.0986 52.7163 21.3573C52.7252 20.616 53.1752 20.2101 53.8901 20.2189C54.6093 20.2233 55.055 20.6645 55.0418 21.3838Z" fill="#FCFCFC"/>
<path fill-rule="evenodd" clip-rule="evenodd" d="M60.7296 15.6384C60.7384 16.3708 60.3325 16.7856 59.5779 16.8341C58.8366 16.79 58.4174 16.4061 58.4262 15.656C58.4351 14.8927 58.8851 14.5132 59.6221 14.5309C60.3192 14.5441 60.7208 14.9545 60.7296 15.6384Z" fill="#FCFCFC"/>
<path fill-rule="evenodd" clip-rule="evenodd" d="M63.589 12.8326C63.536 13.5827 63.1213 13.9887 62.3888 13.971C61.7136 13.9578 61.2856 13.5739 61.2768 12.8635C61.268 12.1222 61.6563 11.6854 62.4108 11.6722C63.1698 11.6589 63.5316 12.1002 63.589 12.8326Z" fill="#FCFCFC"/>
<path fill-rule="evenodd" clip-rule="evenodd" d="M41.9054 57.2258C41.8966 57.9847 41.3803 58.2892 40.7405 58.4039C40.0124 58.2804 39.527 57.8788 39.5623 57.1684C39.5932 56.4933 40.0036 55.9947 40.767 56.0344C41.4995 56.0697 41.9098 56.4933 41.9054 57.2258Z" fill="#F9F9F9"/>
<path fill-rule="evenodd" clip-rule="evenodd" d="M34.6158 57.2039C34.6246 57.954 34.1171 58.2806 33.4376 58.3953C32.7448 58.285 32.2462 57.9099 32.2683 57.1907C32.2859 56.5024 32.7007 56.017 33.4464 56.0346C34.1745 56.0523 34.6069 56.4847 34.6158 57.2039Z" fill="#F9F9F9"/>
<path fill-rule="evenodd" clip-rule="evenodd" d="M32.7978 60.8082C32.8287 61.5053 32.3918 61.9422 31.6549 62.0172C30.9357 61.9819 30.4856 61.6024 30.4547 60.8876C30.4194 60.1507 30.8607 59.7271 31.5799 59.6874C32.3257 59.6521 32.7713 60.1198 32.7978 60.8082Z" fill="#F9F9F9"/>
<path fill-rule="evenodd" clip-rule="evenodd" d="M34.6467 64.3961C34.5673 65.2036 34.1613 65.6669 33.4553 65.6713C32.7493 65.6757 32.2639 65.2168 32.2639 64.502C32.2683 63.8048 32.6963 63.3239 33.4332 63.3195C34.1745 63.3106 34.5187 63.8004 34.6467 64.3961Z" fill="#F6F6F6"/>
<path fill-rule="evenodd" clip-rule="evenodd" d="M34.6202 71.7597C34.629 72.4965 34.1701 72.9334 33.4685 72.9554C32.7449 72.9819 32.2815 72.5098 32.2639 71.8038C32.2462 71.0846 32.714 70.6875 33.4465 70.5771C34.1172 70.6742 34.607 71.0184 34.6202 71.7597Z" fill="#F7F7F7"/>
<path fill-rule="evenodd" clip-rule="evenodd" d="M32.7978 68.1329C32.7934 68.8301 32.3654 69.2581 31.6197 69.3022C30.8872 69.2581 30.468 68.8609 30.4547 68.1417C30.4371 67.3916 30.918 66.9901 31.6197 66.9768C32.3433 66.9636 32.7978 67.4225 32.7978 68.1329Z" fill="#FAFAFA"/>
<path fill-rule="evenodd" clip-rule="evenodd" d="M38.2473 57.1683C38.2738 57.9008 37.8237 58.3641 37.1221 58.3685C36.4382 58.3773 35.9704 57.9669 35.9175 57.1815C35.9572 56.4888 36.3411 56.0608 37.0648 56.0343C37.8149 56.0078 38.2253 56.4579 38.2473 57.1683Z" fill="#FAFAFA"/>
<path fill-rule="evenodd" clip-rule="evenodd" d="M36.4338 60.879C36.3632 61.5673 36.0058 62.0041 35.2601 61.9953C34.5144 61.9909 34.1084 61.5497 34.1084 60.8349C34.1084 60.1156 34.5541 59.6788 35.2733 59.6876C35.9882 59.6965 36.3985 60.1112 36.4338 60.879Z" fill="#FCFCFC"/>
<path fill-rule="evenodd" clip-rule="evenodd" d="M40.1183 60.8836C39.9859 61.541 39.6373 62.022 38.896 61.9999C38.1723 61.9823 37.7399 61.5366 37.7443 60.8262C37.7443 60.1026 38.2032 59.6746 38.9269 59.6878C39.6505 59.6966 40.03 60.1511 40.1183 60.8836Z" fill="#F9F9F9"/>
<path fill-rule="evenodd" clip-rule="evenodd" d="M32.7935 75.3873C32.8288 76.0933 32.3875 76.5124 31.6771 76.5919C30.9357 76.5698 30.4768 76.2124 30.4504 75.4755C30.4239 74.7386 30.8607 74.3195 31.58 74.2798C32.3169 74.24 32.7626 74.6945 32.7935 75.3873Z" fill="#F9F9F9"/>
<path fill-rule="evenodd" clip-rule="evenodd" d="M8.77116 75.0781C8.77557 75.7973 8.32548 76.2562 7.60623 76.265C6.88697 76.2739 6.42806 75.8194 6.41482 75.1002C6.40159 74.3765 6.90021 74.0147 7.51798 73.8779C8.29459 73.975 8.76674 74.3545 8.77116 75.0781Z" fill="#F6F6F6"/>
<path fill-rule="evenodd" clip-rule="evenodd" d="M5.11752 75.0699C5.06898 75.8376 4.63214 76.2612 3.93494 76.2612C3.22893 76.2612 2.77443 75.7979 2.78767 75.0787C2.8009 74.3639 3.23334 73.905 3.96142 73.9182C4.67185 73.9315 5.06898 74.3727 5.11752 75.0699Z" fill="#FAFAFA"/>
<path fill-rule="evenodd" clip-rule="evenodd" d="M14.2428 71.4734C14.2075 72.1662 13.7971 72.603 12.9322 72.603C12.3145 72.5324 11.9041 72.1485 11.9129 71.4116C11.9218 70.6439 12.4116 70.2732 13.1043 70.2865C13.8148 70.2953 14.2781 70.7542 14.2428 71.4734Z" fill="#FAFAFA"/>
<path fill-rule="evenodd" clip-rule="evenodd" d="M6.93111 71.451C6.91787 72.157 6.51191 72.5806 5.70882 72.6027C5.04693 72.5409 4.61008 72.1747 4.61008 71.4334C4.61449 70.6921 5.06458 70.2818 5.77501 70.2862C6.49426 70.2862 6.93993 70.7274 6.93111 71.451Z" fill="#FCFCFC"/>
<path fill-rule="evenodd" clip-rule="evenodd" d="M6.9311 78.7538C6.91345 79.4731 6.48984 79.8878 5.68674 79.8922C5.0072 79.804 4.57035 79.4245 4.61889 78.67C4.66743 77.9199 5.13517 77.5492 5.86766 77.5934C6.57368 77.6331 6.94433 78.092 6.9311 78.7538Z" fill="#FCFCFB"/>
<path fill-rule="evenodd" clip-rule="evenodd" d="M10.5847 71.4603C10.5759 72.206 10.1214 72.5546 9.45952 72.6076C8.66084 72.5634 8.25047 72.1222 8.25929 71.425C8.26371 70.7191 8.71821 70.269 9.44187 70.2866C10.1567 70.3043 10.5936 70.7235 10.5847 71.4603Z" fill="#FAFAFA"/>
</svg>
