<svg width="105" height="102" viewBox="0 0 105 102" fill="none" xmlns="http://www.w3.org/2000/svg">
<path fill-rule="evenodd" clip-rule="evenodd" d="M55.8375 28.0767C52.6872 28.0047 49.9641 25.1826 50.0465 22.0725C50.1288 18.8956 52.888 16.202 56.0177 16.2534C59.2144 16.3048 62.0404 19.2195 61.8963 22.3193C61.7522 25.5116 58.9673 28.1538 55.8375 28.0767ZM56.0898 13.3695C51.5033 13.2153 47.3234 17.2763 47.1895 22.0211C47.0557 26.7093 51.1275 30.8938 55.9045 30.976C60.5373 31.0531 64.6657 26.992 64.7687 22.2627C64.8665 17.6413 60.8565 13.534 56.0898 13.3695Z" fill="#1E1E1C"/>
<mask id="mask0_0_440" style="mask-type:alpha" maskUnits="userSpaceOnUse" x="0" y="0" width="105" height="102">
<path fill-rule="evenodd" clip-rule="evenodd" d="M0 0H105V102H0V0Z" fill="white"/>
</mask>
<g mask="url(#mask0_0_440)">
<path fill-rule="evenodd" clip-rule="evenodd" d="M70.2869 50.3871C69.7516 50.4539 69.1287 50.5105 69.1184 51.1479C69.1133 51.7956 69.7052 51.8727 70.2406 51.883C70.7914 51.8933 71.3782 51.7545 71.3936 51.1633C71.4142 50.5413 70.7811 50.4539 70.2869 50.3871ZM72.0062 52.469C71.4657 52.4845 70.8737 52.6335 70.9098 53.2607C70.9458 53.8827 71.5584 53.9444 72.2173 53.9495C72.6291 53.9393 73.2108 53.8107 73.1747 53.1784C73.1387 52.5719 72.5364 52.4536 72.0062 52.469ZM72.068 47.7654C71.5481 47.7705 70.9458 47.8734 70.9252 48.5159C70.8995 49.1945 71.4966 49.251 71.9239 49.2716C72.5776 49.2819 73.1644 49.1482 73.185 48.5519C73.2108 47.9402 72.6033 47.7654 72.068 47.7654ZM73.2159 45.7143C72.696 45.7195 72.068 45.8531 72.0937 46.4905C72.1195 47.1023 72.7114 47.2205 73.3291 47.2154C73.777 47.1691 74.3896 47.1383 74.369 46.4546C74.3432 45.7914 73.7358 45.704 73.2159 45.7143ZM73.2468 50.418C72.732 50.4282 72.104 50.5053 72.0989 51.1531C72.0937 51.8162 72.7011 51.8727 73.2674 51.8882C73.7564 51.8625 74.3741 51.847 74.3793 51.1685C74.3844 50.5105 73.777 50.4077 73.2468 50.418ZM74.6212 43.8637C74.0807 43.8945 73.5093 44.0231 73.5556 44.6811C73.602 45.3442 74.2454 45.3082 74.7293 45.4007C75.2492 45.2979 75.8772 45.2003 75.8154 44.5577C75.7588 43.9665 75.1668 43.838 74.6212 43.8637ZM75.0073 48.0533C74.5131 48.0841 73.8439 48.2178 73.916 48.8758C73.9829 49.4772 74.6006 49.5595 75.172 49.5698C75.661 49.5081 76.2736 49.4567 76.2015 48.7524C76.1346 48.1047 75.5066 48.0276 75.0073 48.0533ZM76.2478 41.5145C75.7331 41.5761 75.1102 41.6327 75.1463 42.301C75.1771 42.9281 75.7897 43.0618 76.3096 43.0361C76.8089 43.0104 77.4421 42.923 77.4164 42.2444C77.3906 41.5659 76.7575 41.5864 76.2478 41.5145ZM76.3045 50.8806C75.8309 50.8857 75.1514 50.9423 75.136 51.6157C75.1205 52.2891 75.7331 52.3457 76.2839 52.3971C76.7729 52.3457 77.3958 52.3508 77.4164 51.6723C77.4421 50.9886 76.7986 50.8703 76.3045 50.8806ZM76.217 46.2027C75.7022 46.2232 75.069 46.3466 75.1463 47.02C75.2132 47.6266 75.8206 47.6986 76.4743 47.7346C76.8192 47.5803 77.4987 47.6061 77.4164 46.8864C77.3391 46.2438 76.7266 46.177 76.217 46.2027ZM78.1267 39.1806C77.6274 39.2269 76.9994 39.2372 76.9582 39.8849C76.9222 40.5429 77.5708 40.6868 78.0598 40.692C78.5385 40.6971 79.1974 40.6611 79.2283 39.9774C79.2592 39.2886 78.6621 39.2475 78.1267 39.1806ZM78.2091 43.8534C77.6274 43.874 77.0251 43.9562 76.9685 44.5628C76.917 45.2054 77.5348 45.3648 78.0495 45.3802C78.554 45.4007 79.1768 45.3288 79.2283 44.6811C79.2798 44.0179 78.6878 43.9254 78.2091 43.8534ZM78.1628 48.5159C77.6274 48.5725 77.0045 48.6444 76.9685 49.251C76.9325 49.8731 77.509 50.0427 78.065 50.0375C78.5849 50.0375 79.1923 50.0118 79.2335 49.3436C79.2747 48.6702 78.6621 48.6136 78.1628 48.5159ZM80.0108 41.535C79.4548 41.5093 78.8628 41.6224 78.8062 42.2187C78.7393 42.851 79.357 43.0258 79.8769 43.0412C80.3865 43.0618 81.0042 42.9847 81.0609 42.3472C81.1226 41.679 80.5513 41.5607 80.0108 41.535ZM81.8382 39.2012C81.308 39.1858 80.6902 39.2834 80.6388 39.8849C80.5821 40.5275 81.2256 40.6149 81.8124 40.7382C82.2036 40.5891 82.8728 40.656 82.914 39.9877C82.9552 39.3246 82.3735 39.2166 81.8382 39.2012ZM83.6501 41.5402C83.1251 41.5453 82.5228 41.5813 82.4971 42.2547C82.4765 42.9333 83.1148 42.9538 83.5832 43.0721C84.1289 43.0052 84.7517 42.923 84.7672 42.301C84.7826 41.679 84.2009 41.5299 83.6501 41.5402ZM85.6114 39.2063C85.0606 39.2012 84.3965 39.1549 84.3245 39.9003C84.2678 40.5018 84.8444 40.5891 85.4158 40.7331C85.8173 40.6046 86.5276 40.692 86.5894 39.9723C86.6306 39.4377 86.121 39.2166 85.6114 39.2063ZM85.6114 39.2063C85.0606 39.2012 84.3965 39.1549 84.3245 39.9003C84.2678 40.5018 84.8444 40.5891 85.4158 40.7331C85.8173 40.6046 86.5276 40.692 86.5894 39.9723C86.6306 39.4377 86.121 39.2166 85.6114 39.2063ZM83.6501 41.5402C83.1251 41.5453 82.5228 41.5813 82.4971 42.2547C82.4765 42.9333 83.1148 42.9538 83.5832 43.0721C84.1289 43.0052 84.7517 42.923 84.7672 42.301C84.7826 41.679 84.2009 41.5299 83.6501 41.5402ZM81.8382 39.2012C81.308 39.1858 80.6902 39.2834 80.6388 39.8849C80.5821 40.5275 81.2256 40.6149 81.8124 40.7382C82.2036 40.5891 82.8728 40.656 82.914 39.9877C82.9552 39.3246 82.3735 39.2166 81.8382 39.2012ZM80.0108 41.535C79.4548 41.5093 78.8628 41.6224 78.8062 42.2187C78.7393 42.851 79.357 43.0258 79.8769 43.0412C80.3865 43.0618 81.0042 42.9847 81.0609 42.3472C81.1226 41.679 80.5513 41.5607 80.0108 41.535ZM78.1628 48.5159C77.6274 48.5725 77.0045 48.6444 76.9685 49.251C76.9325 49.8731 77.509 50.0427 78.065 50.0375C78.5849 50.0375 79.1923 50.0118 79.2335 49.3436C79.2747 48.6702 78.6621 48.6136 78.1628 48.5159ZM78.2091 43.8534C77.6274 43.874 77.0251 43.9562 76.9685 44.5628C76.917 45.2054 77.5348 45.3648 78.0495 45.3802C78.554 45.4007 79.1768 45.3288 79.2283 44.6811C79.2798 44.0179 78.6878 43.9254 78.2091 43.8534ZM78.1267 39.1806C77.6274 39.2269 76.9994 39.2372 76.9582 39.8849C76.9222 40.5429 77.5708 40.6868 78.0598 40.692C78.5385 40.6971 79.1974 40.6611 79.2283 39.9774C79.2592 39.2886 78.6621 39.2475 78.1267 39.1806ZM76.217 46.2027C75.7022 46.2232 75.069 46.3466 75.1463 47.02C75.2132 47.6266 75.8206 47.6986 76.4743 47.7346C76.8192 47.5803 77.4987 47.6061 77.4164 46.8864C77.3391 46.2438 76.7266 46.177 76.217 46.2027ZM76.3045 50.8806C75.8309 50.8857 75.1514 50.9423 75.136 51.6157C75.1205 52.2891 75.7331 52.3457 76.2839 52.3971C76.7729 52.3457 77.3958 52.3508 77.4164 51.6723C77.4421 50.9886 76.7986 50.8703 76.3045 50.8806ZM76.2478 41.5145C75.7331 41.5761 75.1102 41.6327 75.1463 42.301C75.1771 42.9281 75.7897 43.0618 76.3096 43.0361C76.8089 43.0104 77.4421 42.923 77.4164 42.2444C77.3906 41.5659 76.7575 41.5864 76.2478 41.5145ZM75.0073 48.0533C74.5131 48.0841 73.8439 48.2178 73.916 48.8758C73.9829 49.4772 74.6006 49.5595 75.172 49.5698C75.661 49.5081 76.2736 49.4567 76.2015 48.7524C76.1346 48.1047 75.5066 48.0276 75.0073 48.0533ZM74.6212 43.8637C74.0807 43.8945 73.5093 44.0231 73.5556 44.6811C73.602 45.3442 74.2454 45.3082 74.7293 45.4007C75.2492 45.2979 75.8772 45.2003 75.8154 44.5577C75.7588 43.9665 75.1668 43.838 74.6212 43.8637ZM73.2468 50.418C72.732 50.4282 72.104 50.5053 72.0989 51.1531C72.0937 51.8162 72.7011 51.8727 73.2674 51.8882C73.7564 51.8625 74.3741 51.847 74.3793 51.1685C74.3844 50.5105 73.777 50.4077 73.2468 50.418ZM73.2159 45.7143C72.696 45.7195 72.068 45.8531 72.0937 46.4905C72.1195 47.1023 72.7114 47.2205 73.3291 47.2154C73.777 47.1691 74.3896 47.1383 74.369 46.4546C74.3432 45.7914 73.7358 45.704 73.2159 45.7143ZM72.068 47.7654C71.5481 47.7705 70.9458 47.8734 70.9252 48.5159C70.8995 49.1945 71.4966 49.251 71.9239 49.2716C72.5776 49.2819 73.1644 49.1482 73.185 48.5519C73.2108 47.9402 72.6033 47.7654 72.068 47.7654ZM72.0062 52.469C71.4657 52.4845 70.8737 52.6335 70.9098 53.2607C70.9458 53.8827 71.5584 53.9444 72.2173 53.9495C72.6291 53.9393 73.2108 53.8107 73.1747 53.1784C73.1387 52.5719 72.5364 52.4536 72.0062 52.469ZM70.2869 50.3871C69.7516 50.4539 69.1287 50.5105 69.1184 51.1479C69.1133 51.7956 69.7052 51.8727 70.2406 51.883C70.7914 51.8933 71.3782 51.7545 71.3936 51.1633C71.4142 50.5413 70.7811 50.4539 70.2869 50.3871ZM71.3936 51.1633C71.4142 50.5413 70.7811 50.4539 70.2869 50.3871C69.7516 50.4539 69.1287 50.5105 69.1184 51.1479C69.1133 51.7956 69.7052 51.8727 70.2406 51.883C70.7914 51.8933 71.3782 51.7545 71.3936 51.1633ZM72.0062 52.469C71.4657 52.4845 70.8737 52.6335 70.9098 53.2607C70.9458 53.8827 71.5584 53.9444 72.2173 53.9495C72.6291 53.9393 73.2108 53.8107 73.1747 53.1784C73.1387 52.5719 72.5364 52.4536 72.0062 52.469ZM71.9239 49.2716C72.5776 49.2819 73.1644 49.1482 73.185 48.5519C73.2108 47.9402 72.6033 47.7654 72.068 47.7654C71.5481 47.7705 70.9458 47.8734 70.9252 48.5159C70.8995 49.1945 71.4966 49.251 71.9239 49.2716ZM73.3291 47.2154C73.777 47.1691 74.3896 47.1383 74.369 46.4546C74.3432 45.7914 73.7358 45.704 73.2159 45.7143C72.696 45.7195 72.068 45.8531 72.0937 46.4905C72.1195 47.1023 72.7114 47.2205 73.3291 47.2154ZM73.2468 50.418C72.732 50.4282 72.104 50.5053 72.0989 51.1531C72.0937 51.8162 72.7011 51.8727 73.2674 51.8882C73.7564 51.8625 74.3741 51.847 74.3793 51.1685C74.3844 50.5105 73.777 50.4077 73.2468 50.418ZM74.7293 45.4007C75.2492 45.2979 75.8772 45.2003 75.8154 44.5577C75.7588 43.9665 75.1668 43.838 74.6212 43.8637C74.0807 43.8945 73.5093 44.0231 73.5556 44.6811C73.602 45.3442 74.2454 45.3082 74.7293 45.4007ZM75.0073 48.0533C74.5131 48.0841 73.8439 48.2178 73.916 48.8758C73.9829 49.4772 74.6006 49.5595 75.172 49.5698C75.661 49.5081 76.2736 49.4567 76.2015 48.7524C76.1346 48.1047 75.5066 48.0276 75.0073 48.0533ZM76.3096 43.0361C76.8089 43.0104 77.4421 42.923 77.4164 42.2444C77.3906 41.5659 76.7575 41.5864 76.2478 41.5145C75.7331 41.5761 75.1102 41.6327 75.1463 42.301C75.1771 42.9281 75.7897 43.0618 76.3096 43.0361ZM76.3045 50.8806C75.8309 50.8857 75.1514 50.9423 75.136 51.6157C75.1205 52.2891 75.7331 52.3457 76.2839 52.3971C76.7729 52.3457 77.3958 52.3508 77.4164 51.6723C77.4421 50.9886 76.7986 50.8703 76.3045 50.8806ZM77.4164 46.8864C77.3391 46.2438 76.7266 46.177 76.217 46.2027C75.7022 46.2232 75.069 46.3466 75.1463 47.02C75.2132 47.6266 75.8206 47.6986 76.4743 47.7346C76.8192 47.5803 77.4987 47.6061 77.4164 46.8864ZM78.0598 40.692C78.5385 40.6971 79.1974 40.6611 79.2283 39.9774C79.2592 39.2886 78.6621 39.2475 78.1267 39.1806C77.6274 39.2269 76.9994 39.2372 76.9582 39.8849C76.9222 40.5429 77.5708 40.6868 78.0598 40.692ZM79.2283 44.6811C79.2798 44.0179 78.6878 43.9254 78.2091 43.8534C77.6274 43.874 77.0251 43.9562 76.9685 44.5628C76.917 45.2054 77.5348 45.3648 78.0495 45.3802C78.554 45.4007 79.1768 45.3288 79.2283 44.6811ZM78.1628 48.5159C77.6274 48.5725 77.0045 48.6444 76.9685 49.251C76.9325 49.8731 77.509 50.0427 78.065 50.0375C78.5849 50.0375 79.1923 50.0118 79.2335 49.3436C79.2747 48.6702 78.6621 48.6136 78.1628 48.5159ZM80.0108 41.535C79.4548 41.5093 78.8628 41.6224 78.8062 42.2187C78.7393 42.851 79.357 43.0258 79.8769 43.0412C80.3865 43.0618 81.0042 42.9847 81.0609 42.3472C81.1226 41.679 80.5513 41.5607 80.0108 41.535ZM82.914 39.9877C82.9552 39.3246 82.3735 39.2166 81.8382 39.2012C81.308 39.1858 80.6902 39.2834 80.6388 39.8849C80.5821 40.5275 81.2256 40.6149 81.8124 40.7382C82.2036 40.5891 82.8728 40.656 82.914 39.9877ZM83.6501 41.5402C83.1251 41.5453 82.5228 41.5813 82.4971 42.2547C82.4765 42.9333 83.1148 42.9538 83.5832 43.0721C84.1289 43.0052 84.7517 42.923 84.7672 42.301C84.7826 41.679 84.2009 41.5299 83.6501 41.5402ZM85.6114 39.2063C85.0606 39.2012 84.3965 39.1549 84.3245 39.9003C84.2678 40.5018 84.8444 40.5891 85.4158 40.7331C85.8173 40.6046 86.5276 40.692 86.5894 39.9723C86.6306 39.4377 86.121 39.2166 85.6114 39.2063ZM100.38 53.1527C100.493 54.3248 100.014 54.5047 98.99 54.3659C96.4368 54.0164 93.8681 53.8673 91.3149 54.3916C89.6368 54.7309 89.1787 55.2604 89.1684 56.6124C89.1581 57.9284 89.642 58.5144 91.2532 58.9308C93.0857 59.4088 94.9697 59.5374 96.8589 59.486C97.5538 59.4654 97.9399 59.6093 98.1098 60.3753C98.3672 61.4959 98.7326 62.596 99.1445 63.6704C99.3812 64.2821 99.2371 64.6008 98.7224 64.935C97.9348 65.449 97.2192 66.0762 96.4214 66.5697C95.0264 67.4282 94.0998 68.5539 93.4975 70.1218C92.7871 71.957 90.9134 72.5739 89.2301 73.052C86.7696 73.7459 84.2164 74.1161 81.6992 74.6301C81.2719 74.7175 80.855 74.6815 80.4277 74.589C78.2966 74.1264 76.1655 73.6483 74.0241 73.237C72.3408 72.9132 70.9664 73.8847 69.5817 74.5684C68.8198 74.9488 69.1493 77.1542 69.9523 77.7505C71.7385 79.0819 73.5196 80.4133 75.3367 81.6984C75.9133 82.1045 76.0883 82.5518 76.1655 83.256C76.4023 85.2814 75.7434 86.8544 74.3072 88.2784C73.0563 89.5224 73.1438 89.6149 74.6367 90.5454C74.8992 90.7099 75.1617 90.8384 75.1205 91.2137C75.0793 91.5889 74.7808 91.6815 74.5028 91.7791C73.0872 92.2572 71.6665 92.725 70.2509 93.1979C69.8082 93.347 69.3655 93.4755 69.036 93.8611C68.1249 94.9046 68.3102 95.4495 69.6692 95.7682C70.6164 95.9893 71.9753 95.8248 72.4077 96.529C72.8453 97.2487 71.9444 98.3385 71.7797 99.2998C71.5995 100.323 71.1002 100.719 70.0244 100.631C68.789 100.528 67.5432 100.611 66.2975 100.611C65.4842 100.611 64.6554 100.513 63.8575 100.626C61.9838 100.899 60.5785 100.148 59.271 98.9091C58.6945 98.3694 58.7511 98.1432 59.2813 97.6548C61.1087 95.9739 62.8898 94.2415 64.676 92.5142C64.9643 92.2315 65.4379 92.0002 65.2937 91.481C65.1393 90.9207 64.6297 90.9052 64.1612 90.8178C59.5232 89.9953 54.8955 89.1369 50.2524 88.3452C49.4082 88.2013 48.7338 87.8877 48.0955 87.3428C46.7263 86.1759 45.3055 85.0707 43.9465 83.8935C43.3958 83.4154 42.8347 83.2509 42.1861 83.5388C38.7835 85.045 35.3603 84.7622 31.9526 83.621C30.7789 83.2252 29.8833 83.3794 29.1523 84.3972C28.1382 85.8006 26.7947 86.4278 25.0496 86.1399C24.4268 86.0371 23.8863 86.289 23.3458 86.5871C21.5081 87.5947 19.6292 88.52 17.8275 89.5892C16.7259 90.2421 15.717 90.2884 14.5639 89.7897C13.2719 89.2345 11.8717 88.9055 10.6209 88.2784C8.70596 87.3171 6.83222 87.3634 4.81436 87.8928C1.82874 88.6794 1.6949 88.52 1.489 85.4305C1.36545 83.6313 2.41042 82.3976 4.21209 82.3924C6.00861 82.3924 7.79998 82.5466 9.5965 82.6186C10.4407 82.6546 11.2077 82.5723 11.6144 81.6316C12.0262 80.6857 11.8512 79.8838 11.2077 79.1384C11.1511 79.0767 11.0842 79.0202 11.0224 78.9585C9.28764 77.0822 9.29793 77.1028 11.6813 76.0232C14.0955 74.9283 16.5149 73.859 19.135 73.3296C19.6498 73.2267 20.0822 72.9646 20.4322 72.5533C23.4333 69.0166 27.0418 66.1019 30.4958 63.0381C32.1585 61.5628 33.363 59.7635 34.65 58.0106C37.2083 54.5407 39.4321 50.8086 42.7986 47.9762C43.5811 47.3182 43.926 47.128 44.5694 48.1201C45.6298 49.7702 46.855 51.3227 48.0338 52.8957C48.9191 54.0781 48.878 54.6384 47.6477 55.5637C46.6954 56.2885 45.7019 56.9671 44.6981 57.6199C43.4524 58.4321 44.1267 59.6453 44.0546 60.6786C43.9877 61.5628 44.8783 61.4651 45.4445 61.6913C46.613 62.1488 47.6374 62.0151 48.6824 61.2903C49.7325 60.5603 50.9061 60.0103 51.9871 59.3215C52.5431 58.9616 52.8725 59.0696 53.2689 59.5425C53.9226 60.3341 54.6587 61.0538 55.3125 61.8506C55.817 62.4624 56.1258 62.4366 56.6869 61.8301C60.2902 57.9181 63.4921 53.6874 66.5034 49.3179C69.4376 45.0615 72.3665 40.7896 74.4307 36.014C74.6212 35.5771 74.8786 35.3972 75.3882 35.3715C80.7314 35.1144 86.0747 34.77 91.3561 33.8653C92.0562 33.7419 92.643 33.9167 93.0445 34.5078C94.9234 37.2837 97.7031 38.5997 100.812 39.5199C103.561 40.327 103.458 40.4401 103.561 43.3239C103.618 44.8353 103.304 46.0536 102.182 47.1126C100.431 48.7575 100.153 50.9114 100.38 53.1527ZM49.3927 59.2032C48.7647 59.5631 48.1213 59.9023 47.519 60.293C46.7829 60.766 45.9438 60.5912 45.5783 60.0617C45.1717 59.4757 45.4908 58.7663 46.2166 58.2574C47.4624 57.3989 48.9294 56.7769 49.7376 55.3221C49.9126 55.4249 50.0001 55.4557 50.0516 55.5174C51.8996 57.7484 51.8996 57.7536 49.3927 59.2032ZM41.6147 37.7001C39.4372 33.2535 37.3267 28.7864 36.8737 23.7383C36.3744 18.2224 38.0165 13.488 41.7588 9.42176C44.9092 5.99813 48.6566 3.72599 53.3255 3.12968C54.216 3.01658 55.1169 3.0063 56.0126 2.94462C67.3528 2.58992 78.4099 14.732 74.6675 27.419C73.1438 32.575 70.8531 37.3711 67.9911 41.8949C64.6812 47.1331 61.0727 52.176 57.145 56.9773C55.9817 58.4013 55.9045 58.4218 54.8286 57.0339C50.031 50.8549 45.0842 44.7787 41.6147 37.7001ZM104.987 43.0926C104.791 38.8311 105.605 39.5816 101.502 38.2656C98.4958 37.2992 95.8191 36.0346 93.9145 33.4129C93.2556 32.5081 92.293 32.2357 91.1759 32.4876C90.6354 32.6058 90.0744 32.6212 89.5236 32.7035C84.9061 33.4232 80.2579 33.7624 75.4448 33.8961C75.9184 32.6521 76.3457 31.5828 76.7317 30.5033C80.6439 19.487 76.7523 9.60168 67.708 3.57691C57.6135 -3.15212 43.231 -0.437891 36.2972 12.1514C32.9461 18.2327 33.3733 24.6019 35.5559 30.9197C37.2752 35.8906 39.6946 40.5532 42.4589 45.0306C42.6905 45.4059 43.2619 45.7452 42.567 46.2952C38.6085 49.4361 36.0089 53.7028 33.1005 57.7176C32.1019 59.1004 31.1496 60.5089 29.8575 61.6758C26.3365 64.8579 22.6097 67.8291 19.5005 71.4481C19.0938 71.9159 18.5636 72.0136 18.0334 72.1267C14.8625 72.8001 12.0262 74.332 9.11262 75.6531C7.90293 76.2031 7.68158 77.1953 8.46917 78.2748C8.86553 78.8248 9.38029 79.2926 9.85388 79.7861C10.1627 80.0997 10.4922 80.4287 10.2966 80.8965C10.0958 81.3849 9.62738 81.1381 9.27734 81.1278C7.52201 81.0713 5.77182 80.9633 4.01648 80.9171C2.59059 80.8759 1.62284 81.4414 0.788921 82.7368C-0.595788 84.8805 0.119731 86.8647 0.83525 88.8541C1.13896 89.7075 2.09127 89.9696 3.02814 89.7897C3.70247 89.6612 4.38711 89.5584 5.03056 89.3322C6.86826 88.6794 8.59271 88.8901 10.348 89.7023C11.7019 90.3243 13.1638 90.7048 14.5382 91.2856C15.7942 91.8151 16.9164 91.7072 18.0849 91.0492C19.9844 89.9799 21.925 88.9929 23.84 87.9494C24.2981 87.6975 24.7511 87.461 25.2864 87.5484C27.2683 87.8774 28.7971 87.0961 30.0017 85.5899C30.5422 84.9113 31.1444 84.8805 31.9217 85.0809C35.0206 85.8932 38.1194 86.839 41.2801 85.2763C42.3714 84.7417 43.2619 85.0295 44.1267 85.8983C45.0636 86.8339 46.1909 87.569 47.1741 88.4532C48.008 89.1986 48.9346 89.6047 50.031 89.7794C52.1879 90.1136 54.3344 90.5145 56.481 90.895C58.6018 91.2702 60.7175 91.6609 62.8383 92.0464C62.8898 92.1595 62.9464 92.2726 62.9979 92.3909C62.6273 92.6736 62.2206 92.9203 61.8808 93.2391C60.4807 94.5653 59.1011 95.9122 57.7061 97.2384C57.248 97.6805 56.7332 98.3128 57.2017 98.7806C58.5606 100.138 59.7394 101.896 61.9426 101.963C64.2127 102.029 66.488 101.988 68.7581 101.978C72.6445 101.957 72.2687 102.492 73.5402 98.4053C74.4668 95.4187 74.4101 95.3364 71.3782 94.6527C71.3319 94.6424 71.3113 94.5191 71.2392 94.37C72.4026 93.9793 73.5453 93.5578 74.7139 93.2185C75.7125 92.9255 76.3714 92.3497 76.567 91.3165C76.7575 90.3141 76.1398 89.7332 75.2492 89.1471C77.4267 87.6101 77.8899 85.4768 77.6634 83.0196C77.5759 82.0377 77.3083 81.3335 76.4898 80.7628C74.7344 79.5394 73.0203 78.2542 71.3061 76.9742C70.395 76.2905 70.5237 75.7559 71.4709 75.2213C72.8813 74.4194 74.2557 74.7741 75.6971 75.0208C77.8693 75.3909 79.9747 76.3831 82.25 75.9615C84.7672 75.4886 87.3255 75.1133 89.7706 74.3731C91.6907 73.7922 93.8218 73.0777 94.6609 71.0112C95.3146 69.4022 96.3287 68.3021 97.7186 67.4076C98.5113 66.8987 99.2217 66.2612 100.025 65.778C100.843 65.2845 100.977 64.6677 100.694 63.8246C100.339 62.7708 100.05 61.7015 99.7158 60.6426C98.9077 58.0774 98.9025 58.0826 96.1434 58.0414C94.5116 58.0157 92.8901 57.9386 91.3149 57.4554C90.8825 57.3218 90.5479 57.1007 90.5788 56.5507C90.6097 56.0469 90.9855 55.9338 91.3458 55.8207C91.6289 55.7333 91.9326 55.6973 92.2261 55.6511C94.6712 55.2604 97.0957 55.5791 99.5202 55.8156C100.992 55.9595 101.795 55.2707 101.816 53.8056C101.826 53.1219 101.847 52.4331 101.811 51.7494C101.744 50.3923 102.12 49.1637 103.108 48.2538C104.647 46.8298 105.085 45.1591 104.987 43.0926ZM71.3936 51.1633C71.4142 50.5413 70.7811 50.4539 70.2869 50.3871C69.7516 50.4539 69.1287 50.5105 69.1184 51.1479C69.1133 51.7956 69.7052 51.8727 70.2406 51.883C70.7914 51.8933 71.3782 51.7545 71.3936 51.1633ZM72.0062 52.469C71.4657 52.4845 70.8737 52.6335 70.9098 53.2607C70.9458 53.8827 71.5584 53.9444 72.2173 53.9495C72.6291 53.9393 73.2108 53.8107 73.1747 53.1784C73.1387 52.5719 72.5364 52.4536 72.0062 52.469ZM71.9239 49.2716C72.5776 49.2819 73.1644 49.1482 73.185 48.5519C73.2108 47.9402 72.6033 47.7654 72.068 47.7654C71.5481 47.7705 70.9458 47.8734 70.9252 48.5159C70.8995 49.1945 71.4966 49.251 71.9239 49.2716ZM73.3291 47.2154C73.777 47.1691 74.3896 47.1383 74.369 46.4546C74.3432 45.7914 73.7358 45.704 73.2159 45.7143C72.696 45.7195 72.068 45.8531 72.0937 46.4905C72.1195 47.1023 72.7114 47.2205 73.3291 47.2154ZM73.2468 50.418C72.732 50.4282 72.104 50.5053 72.0989 51.1531C72.0937 51.8162 72.7011 51.8727 73.2674 51.8882C73.7564 51.8625 74.3741 51.847 74.3793 51.1685C74.3844 50.5105 73.777 50.4077 73.2468 50.418ZM74.7293 45.4007C75.2492 45.2979 75.8772 45.2003 75.8154 44.5577C75.7588 43.9665 75.1668 43.838 74.6212 43.8637C74.0807 43.8945 73.5093 44.0231 73.5556 44.6811C73.602 45.3442 74.2454 45.3082 74.7293 45.4007ZM75.0073 48.0533C74.5131 48.0841 73.8439 48.2178 73.916 48.8758C73.9829 49.4772 74.6006 49.5595 75.172 49.5698C75.661 49.5081 76.2736 49.4567 76.2015 48.7524C76.1346 48.1047 75.5066 48.0276 75.0073 48.0533ZM76.3096 43.0361C76.8089 43.0104 77.4421 42.923 77.4164 42.2444C77.3906 41.5659 76.7575 41.5864 76.2478 41.5145C75.7331 41.5761 75.1102 41.6327 75.1463 42.301C75.1771 42.9281 75.7897 43.0618 76.3096 43.0361ZM76.3045 50.8806C75.8309 50.8857 75.1514 50.9423 75.136 51.6157C75.1205 52.2891 75.7331 52.3457 76.2839 52.3971C76.7729 52.3457 77.3958 52.3508 77.4164 51.6723C77.4421 50.9886 76.7986 50.8703 76.3045 50.8806ZM77.4164 46.8864C77.3391 46.2438 76.7266 46.177 76.217 46.2027C75.7022 46.2232 75.069 46.3466 75.1463 47.02C75.2132 47.6266 75.8206 47.6986 76.4743 47.7346C76.8192 47.5803 77.4987 47.6061 77.4164 46.8864ZM78.0598 40.692C78.5385 40.6971 79.1974 40.6611 79.2283 39.9774C79.2592 39.2886 78.6621 39.2475 78.1267 39.1806C77.6274 39.2269 76.9994 39.2372 76.9582 39.8849C76.9222 40.5429 77.5708 40.6868 78.0598 40.692ZM79.2283 44.6811C79.2798 44.0179 78.6878 43.9254 78.2091 43.8534C77.6274 43.874 77.0251 43.9562 76.9685 44.5628C76.917 45.2054 77.5348 45.3648 78.0495 45.3802C78.554 45.4007 79.1768 45.3288 79.2283 44.6811ZM78.1628 48.5159C77.6274 48.5725 77.0045 48.6444 76.9685 49.251C76.9325 49.8731 77.509 50.0427 78.065 50.0375C78.5849 50.0375 79.1923 50.0118 79.2335 49.3436C79.2747 48.6702 78.6621 48.6136 78.1628 48.5159ZM80.0108 41.535C79.4548 41.5093 78.8628 41.6224 78.8062 42.2187C78.7393 42.851 79.357 43.0258 79.8769 43.0412C80.3865 43.0618 81.0042 42.9847 81.0609 42.3472C81.1226 41.679 80.5513 41.5607 80.0108 41.535ZM82.914 39.9877C82.9552 39.3246 82.3735 39.2166 81.8382 39.2012C81.308 39.1858 80.6902 39.2834 80.6388 39.8849C80.5821 40.5275 81.2256 40.6149 81.8124 40.7382C82.2036 40.5891 82.8728 40.656 82.914 39.9877ZM83.6501 41.5402C83.1251 41.5453 82.5228 41.5813 82.4971 42.2547C82.4765 42.9333 83.1148 42.9538 83.5832 43.0721C84.1289 43.0052 84.7517 42.923 84.7672 42.301C84.7826 41.679 84.2009 41.5299 83.6501 41.5402ZM85.6114 39.2063C85.0606 39.2012 84.3965 39.1549 84.3245 39.9003C84.2678 40.5018 84.8444 40.5891 85.4158 40.7331C85.8173 40.6046 86.5276 40.692 86.5894 39.9723C86.6306 39.4377 86.121 39.2166 85.6114 39.2063ZM85.6114 39.2063C85.0606 39.2012 84.3965 39.1549 84.3245 39.9003C84.2678 40.5018 84.8444 40.5891 85.4158 40.7331C85.8173 40.6046 86.5276 40.692 86.5894 39.9723C86.6306 39.4377 86.121 39.2166 85.6114 39.2063ZM83.6501 41.5402C83.1251 41.5453 82.5228 41.5813 82.4971 42.2547C82.4765 42.9333 83.1148 42.9538 83.5832 43.0721C84.1289 43.0052 84.7517 42.923 84.7672 42.301C84.7826 41.679 84.2009 41.5299 83.6501 41.5402ZM81.8382 39.2012C81.308 39.1858 80.6902 39.2834 80.6388 39.8849C80.5821 40.5275 81.2256 40.6149 81.8124 40.7382C82.2036 40.5891 82.8728 40.656 82.914 39.9877C82.9552 39.3246 82.3735 39.2166 81.8382 39.2012ZM80.0108 41.535C79.4548 41.5093 78.8628 41.6224 78.8062 42.2187C78.7393 42.851 79.357 43.0258 79.8769 43.0412C80.3865 43.0618 81.0042 42.9847 81.0609 42.3472C81.1226 41.679 80.5513 41.5607 80.0108 41.535ZM78.1628 48.5159C77.6274 48.5725 77.0045 48.6444 76.9685 49.251C76.9325 49.8731 77.509 50.0427 78.065 50.0375C78.5849 50.0375 79.1923 50.0118 79.2335 49.3436C79.2747 48.6702 78.6621 48.6136 78.1628 48.5159ZM78.2091 43.8534C77.6274 43.874 77.0251 43.9562 76.9685 44.5628C76.917 45.2054 77.5348 45.3648 78.0495 45.3802C78.554 45.4007 79.1768 45.3288 79.2283 44.6811C79.2798 44.0179 78.6878 43.9254 78.2091 43.8534ZM78.1267 39.1806C77.6274 39.2269 76.9994 39.2372 76.9582 39.8849C76.9222 40.5429 77.5708 40.6868 78.0598 40.692C78.5385 40.6971 79.1974 40.6611 79.2283 39.9774C79.2592 39.2886 78.6621 39.2475 78.1267 39.1806ZM76.217 46.2027C75.7022 46.2232 75.069 46.3466 75.1463 47.02C75.2132 47.6266 75.8206 47.6986 76.4743 47.7346C76.8192 47.5803 77.4987 47.6061 77.4164 46.8864C77.3391 46.2438 76.7266 46.177 76.217 46.2027ZM76.3045 50.8806C75.8309 50.8857 75.1514 50.9423 75.136 51.6157C75.1205 52.2891 75.7331 52.3457 76.2839 52.3971C76.7729 52.3457 77.3958 52.3508 77.4164 51.6723C77.4421 50.9886 76.7986 50.8703 76.3045 50.8806ZM76.2478 41.5145C75.7331 41.5761 75.1102 41.6327 75.1463 42.301C75.1771 42.9281 75.7897 43.0618 76.3096 43.0361C76.8089 43.0104 77.4421 42.923 77.4164 42.2444C77.3906 41.5659 76.7575 41.5864 76.2478 41.5145ZM75.0073 48.0533C74.5131 48.0841 73.8439 48.2178 73.916 48.8758C73.9829 49.4772 74.6006 49.5595 75.172 49.5698C75.661 49.5081 76.2736 49.4567 76.2015 48.7524C76.1346 48.1047 75.5066 48.0276 75.0073 48.0533ZM74.6212 43.8637C74.0807 43.8945 73.5093 44.0231 73.5556 44.6811C73.602 45.3442 74.2454 45.3082 74.7293 45.4007C75.2492 45.2979 75.8772 45.2003 75.8154 44.5577C75.7588 43.9665 75.1668 43.838 74.6212 43.8637ZM73.2468 50.418C72.732 50.4282 72.104 50.5053 72.0989 51.1531C72.0937 51.8162 72.7011 51.8727 73.2674 51.8882C73.7564 51.8625 74.3741 51.847 74.3793 51.1685C74.3844 50.5105 73.777 50.4077 73.2468 50.418ZM73.2159 45.7143C72.696 45.7195 72.068 45.8531 72.0937 46.4905C72.1195 47.1023 72.7114 47.2205 73.3291 47.2154C73.777 47.1691 74.3896 47.1383 74.369 46.4546C74.3432 45.7914 73.7358 45.704 73.2159 45.7143ZM72.068 47.7654C71.5481 47.7705 70.9458 47.8734 70.9252 48.5159C70.8995 49.1945 71.4966 49.251 71.9239 49.2716C72.5776 49.2819 73.1644 49.1482 73.185 48.5519C73.2108 47.9402 72.6033 47.7654 72.068 47.7654ZM72.0062 52.469C71.4657 52.4845 70.8737 52.6335 70.9098 53.2607C70.9458 53.8827 71.5584 53.9444 72.2173 53.9495C72.6291 53.9393 73.2108 53.8107 73.1747 53.1784C73.1387 52.5719 72.5364 52.4536 72.0062 52.469ZM70.2869 50.3871C69.7516 50.4539 69.1287 50.5105 69.1184 51.1479C69.1133 51.7956 69.7052 51.8727 70.2406 51.883C70.7914 51.8933 71.3782 51.7545 71.3936 51.1633C71.4142 50.5413 70.7811 50.4539 70.2869 50.3871Z" fill="#1E1E1C"/>
</g>
<path fill-rule="evenodd" clip-rule="evenodd" d="M55.8375 28.0767C52.6872 28.0047 49.9641 25.1826 50.0465 22.0725C50.1288 18.8956 52.888 16.202 56.0177 16.2534C59.2144 16.3048 62.0404 19.2195 61.8963 22.3193C61.7522 25.5116 58.9673 28.1538 55.8375 28.0767ZM56.0898 13.3695C51.5033 13.2153 47.3234 17.2763 47.1895 22.0211C47.0557 26.7093 51.1275 30.8938 55.9045 30.976C60.5373 31.0531 64.6657 26.992 64.7687 22.2627C64.8665 17.6413 60.8565 13.534 56.0898 13.3695Z" fill="#FEFEFE"/>
<mask id="mask1_0_440" style="mask-type:alpha" maskUnits="userSpaceOnUse" x="0" y="0" width="105" height="102">
<path fill-rule="evenodd" clip-rule="evenodd" d="M0 0H105V102H0V0Z" fill="white"/>
</mask>
<g mask="url(#mask1_0_440)">
<path fill-rule="evenodd" clip-rule="evenodd" d="M70.2869 50.3871C69.7516 50.4539 69.1287 50.5105 69.1184 51.1479C69.1133 51.7956 69.7052 51.8727 70.2406 51.883C70.7914 51.8933 71.3782 51.7545 71.3936 51.1633C71.4142 50.5413 70.7811 50.4539 70.2869 50.3871ZM72.0062 52.469C71.4657 52.4845 70.8737 52.6335 70.9098 53.2607C70.9458 53.8827 71.5584 53.9444 72.2173 53.9495C72.6291 53.9393 73.2108 53.8107 73.1747 53.1784C73.1387 52.5719 72.5364 52.4536 72.0062 52.469ZM72.068 47.7654C71.5481 47.7705 70.9458 47.8734 70.9252 48.5159C70.8995 49.1945 71.4966 49.251 71.9239 49.2716C72.5776 49.2819 73.1644 49.1482 73.185 48.5519C73.2108 47.9402 72.6033 47.7654 72.068 47.7654ZM73.2159 45.7143C72.696 45.7195 72.068 45.8531 72.0937 46.4905C72.1195 47.1023 72.7114 47.2205 73.3291 47.2154C73.777 47.1691 74.3896 47.1383 74.369 46.4546C74.3432 45.7914 73.7358 45.704 73.2159 45.7143ZM73.2468 50.418C72.732 50.4282 72.104 50.5053 72.0989 51.1531C72.0937 51.8162 72.7011 51.8727 73.2674 51.8882C73.7564 51.8625 74.3741 51.847 74.3793 51.1685C74.3844 50.5105 73.777 50.4077 73.2468 50.418ZM74.6212 43.8637C74.0807 43.8945 73.5093 44.0231 73.5556 44.6811C73.602 45.3442 74.2454 45.3082 74.7293 45.4007C75.2492 45.2979 75.8772 45.2003 75.8154 44.5577C75.7588 43.9665 75.1668 43.838 74.6212 43.8637ZM75.0073 48.0533C74.5131 48.0841 73.8439 48.2178 73.916 48.8758C73.9829 49.4772 74.6006 49.5595 75.172 49.5698C75.661 49.5081 76.2736 49.4567 76.2015 48.7524C76.1346 48.1047 75.5066 48.0276 75.0073 48.0533ZM76.2478 41.5145C75.7331 41.5761 75.1102 41.6327 75.1463 42.301C75.1771 42.9281 75.7897 43.0618 76.3096 43.0361C76.8089 43.0104 77.4421 42.923 77.4164 42.2444C77.3906 41.5659 76.7575 41.5864 76.2478 41.5145ZM76.3045 50.8806C75.8309 50.8857 75.1514 50.9423 75.136 51.6157C75.1205 52.2891 75.7331 52.3457 76.2839 52.3971C76.7729 52.3457 77.3958 52.3508 77.4164 51.6723C77.4421 50.9886 76.7986 50.8703 76.3045 50.8806ZM76.217 46.2027C75.7022 46.2232 75.069 46.3466 75.1463 47.02C75.2132 47.6266 75.8206 47.6986 76.4743 47.7346C76.8192 47.5803 77.4987 47.6061 77.4164 46.8864C77.3391 46.2438 76.7266 46.177 76.217 46.2027ZM78.1267 39.1806C77.6274 39.2269 76.9994 39.2372 76.9582 39.8849C76.9222 40.5429 77.5708 40.6868 78.0598 40.692C78.5385 40.6971 79.1974 40.6611 79.2283 39.9774C79.2592 39.2886 78.6621 39.2475 78.1267 39.1806ZM78.2091 43.8534C77.6274 43.874 77.0251 43.9562 76.9685 44.5628C76.917 45.2054 77.5348 45.3648 78.0495 45.3802C78.554 45.4007 79.1768 45.3288 79.2283 44.6811C79.2798 44.0179 78.6878 43.9254 78.2091 43.8534ZM78.1628 48.5159C77.6274 48.5725 77.0045 48.6444 76.9685 49.251C76.9325 49.8731 77.509 50.0427 78.065 50.0375C78.5849 50.0375 79.1923 50.0118 79.2335 49.3436C79.2747 48.6702 78.6621 48.6136 78.1628 48.5159ZM80.0108 41.535C79.4548 41.5093 78.8628 41.6224 78.8062 42.2187C78.7393 42.851 79.357 43.0258 79.8769 43.0412C80.3865 43.0618 81.0042 42.9847 81.0609 42.3472C81.1226 41.679 80.5513 41.5607 80.0108 41.535ZM81.8382 39.2012C81.308 39.1858 80.6902 39.2834 80.6388 39.8849C80.5821 40.5275 81.2256 40.6149 81.8124 40.7382C82.2036 40.5891 82.8728 40.656 82.914 39.9877C82.9552 39.3246 82.3735 39.2166 81.8382 39.2012ZM83.6501 41.5402C83.1251 41.5453 82.5228 41.5813 82.4971 42.2547C82.4765 42.9333 83.1148 42.9538 83.5832 43.0721C84.1289 43.0052 84.7517 42.923 84.7672 42.301C84.7826 41.679 84.2009 41.5299 83.6501 41.5402ZM85.6114 39.2063C85.0606 39.2012 84.3965 39.1549 84.3245 39.9003C84.2678 40.5018 84.8444 40.5891 85.4158 40.7331C85.8173 40.6046 86.5276 40.692 86.5894 39.9723C86.6306 39.4377 86.121 39.2166 85.6114 39.2063ZM85.6114 39.2063C85.0606 39.2012 84.3965 39.1549 84.3245 39.9003C84.2678 40.5018 84.8444 40.5891 85.4158 40.7331C85.8173 40.6046 86.5276 40.692 86.5894 39.9723C86.6306 39.4377 86.121 39.2166 85.6114 39.2063ZM83.6501 41.5402C83.1251 41.5453 82.5228 41.5813 82.4971 42.2547C82.4765 42.9333 83.1148 42.9538 83.5832 43.0721C84.1289 43.0052 84.7517 42.923 84.7672 42.301C84.7826 41.679 84.2009 41.5299 83.6501 41.5402ZM81.8382 39.2012C81.308 39.1858 80.6902 39.2834 80.6388 39.8849C80.5821 40.5275 81.2256 40.6149 81.8124 40.7382C82.2036 40.5891 82.8728 40.656 82.914 39.9877C82.9552 39.3246 82.3735 39.2166 81.8382 39.2012ZM80.0108 41.535C79.4548 41.5093 78.8628 41.6224 78.8062 42.2187C78.7393 42.851 79.357 43.0258 79.8769 43.0412C80.3865 43.0618 81.0042 42.9847 81.0609 42.3472C81.1226 41.679 80.5513 41.5607 80.0108 41.535ZM78.1628 48.5159C77.6274 48.5725 77.0045 48.6444 76.9685 49.251C76.9325 49.8731 77.509 50.0427 78.065 50.0375C78.5849 50.0375 79.1923 50.0118 79.2335 49.3436C79.2747 48.6702 78.6621 48.6136 78.1628 48.5159ZM78.2091 43.8534C77.6274 43.874 77.0251 43.9562 76.9685 44.5628C76.917 45.2054 77.5348 45.3648 78.0495 45.3802C78.554 45.4007 79.1768 45.3288 79.2283 44.6811C79.2798 44.0179 78.6878 43.9254 78.2091 43.8534ZM78.1267 39.1806C77.6274 39.2269 76.9994 39.2372 76.9582 39.8849C76.9222 40.5429 77.5708 40.6868 78.0598 40.692C78.5385 40.6971 79.1974 40.6611 79.2283 39.9774C79.2592 39.2886 78.6621 39.2475 78.1267 39.1806ZM76.217 46.2027C75.7022 46.2232 75.069 46.3466 75.1463 47.02C75.2132 47.6266 75.8206 47.6986 76.4743 47.7346C76.8192 47.5803 77.4987 47.6061 77.4164 46.8864C77.3391 46.2438 76.7266 46.177 76.217 46.2027ZM76.3045 50.8806C75.8309 50.8857 75.1514 50.9423 75.136 51.6157C75.1205 52.2891 75.7331 52.3457 76.2839 52.3971C76.7729 52.3457 77.3958 52.3508 77.4164 51.6723C77.4421 50.9886 76.7986 50.8703 76.3045 50.8806ZM76.2478 41.5145C75.7331 41.5761 75.1102 41.6327 75.1463 42.301C75.1771 42.9281 75.7897 43.0618 76.3096 43.0361C76.8089 43.0104 77.4421 42.923 77.4164 42.2444C77.3906 41.5659 76.7575 41.5864 76.2478 41.5145ZM75.0073 48.0533C74.5131 48.0841 73.8439 48.2178 73.916 48.8758C73.9829 49.4772 74.6006 49.5595 75.172 49.5698C75.661 49.5081 76.2736 49.4567 76.2015 48.7524C76.1346 48.1047 75.5066 48.0276 75.0073 48.0533ZM74.6212 43.8637C74.0807 43.8945 73.5093 44.0231 73.5556 44.6811C73.602 45.3442 74.2454 45.3082 74.7293 45.4007C75.2492 45.2979 75.8772 45.2003 75.8154 44.5577C75.7588 43.9665 75.1668 43.838 74.6212 43.8637ZM73.2468 50.418C72.732 50.4282 72.104 50.5053 72.0989 51.1531C72.0937 51.8162 72.7011 51.8727 73.2674 51.8882C73.7564 51.8625 74.3741 51.847 74.3793 51.1685C74.3844 50.5105 73.777 50.4077 73.2468 50.418ZM73.2159 45.7143C72.696 45.7195 72.068 45.8531 72.0937 46.4905C72.1195 47.1023 72.7114 47.2205 73.3291 47.2154C73.777 47.1691 74.3896 47.1383 74.369 46.4546C74.3432 45.7914 73.7358 45.704 73.2159 45.7143ZM72.068 47.7654C71.5481 47.7705 70.9458 47.8734 70.9252 48.5159C70.8995 49.1945 71.4966 49.251 71.9239 49.2716C72.5776 49.2819 73.1644 49.1482 73.185 48.5519C73.2108 47.9402 72.6033 47.7654 72.068 47.7654ZM72.0062 52.469C71.4657 52.4845 70.8737 52.6335 70.9098 53.2607C70.9458 53.8827 71.5584 53.9444 72.2173 53.9495C72.6291 53.9393 73.2108 53.8107 73.1747 53.1784C73.1387 52.5719 72.5364 52.4536 72.0062 52.469ZM70.2869 50.3871C69.7516 50.4539 69.1287 50.5105 69.1184 51.1479C69.1133 51.7956 69.7052 51.8727 70.2406 51.883C70.7914 51.8933 71.3782 51.7545 71.3936 51.1633C71.4142 50.5413 70.7811 50.4539 70.2869 50.3871ZM71.3936 51.1633C71.4142 50.5413 70.7811 50.4539 70.2869 50.3871C69.7516 50.4539 69.1287 50.5105 69.1184 51.1479C69.1133 51.7956 69.7052 51.8727 70.2406 51.883C70.7914 51.8933 71.3782 51.7545 71.3936 51.1633ZM72.0062 52.469C71.4657 52.4845 70.8737 52.6335 70.9098 53.2607C70.9458 53.8827 71.5584 53.9444 72.2173 53.9495C72.6291 53.9393 73.2108 53.8107 73.1747 53.1784C73.1387 52.5719 72.5364 52.4536 72.0062 52.469ZM71.9239 49.2716C72.5776 49.2819 73.1644 49.1482 73.185 48.5519C73.2108 47.9402 72.6033 47.7654 72.068 47.7654C71.5481 47.7705 70.9458 47.8734 70.9252 48.5159C70.8995 49.1945 71.4966 49.251 71.9239 49.2716ZM73.3291 47.2154C73.777 47.1691 74.3896 47.1383 74.369 46.4546C74.3432 45.7914 73.7358 45.704 73.2159 45.7143C72.696 45.7195 72.068 45.8531 72.0937 46.4905C72.1195 47.1023 72.7114 47.2205 73.3291 47.2154ZM73.2468 50.418C72.732 50.4282 72.104 50.5053 72.0989 51.1531C72.0937 51.8162 72.7011 51.8727 73.2674 51.8882C73.7564 51.8625 74.3741 51.847 74.3793 51.1685C74.3844 50.5105 73.777 50.4077 73.2468 50.418ZM74.7293 45.4007C75.2492 45.2979 75.8772 45.2003 75.8154 44.5577C75.7588 43.9665 75.1668 43.838 74.6212 43.8637C74.0807 43.8945 73.5093 44.0231 73.5556 44.6811C73.602 45.3442 74.2454 45.3082 74.7293 45.4007ZM75.0073 48.0533C74.5131 48.0841 73.8439 48.2178 73.916 48.8758C73.9829 49.4772 74.6006 49.5595 75.172 49.5698C75.661 49.5081 76.2736 49.4567 76.2015 48.7524C76.1346 48.1047 75.5066 48.0276 75.0073 48.0533ZM76.3096 43.0361C76.8089 43.0104 77.4421 42.923 77.4164 42.2444C77.3906 41.5659 76.7575 41.5864 76.2478 41.5145C75.7331 41.5761 75.1102 41.6327 75.1463 42.301C75.1771 42.9281 75.7897 43.0618 76.3096 43.0361ZM76.3045 50.8806C75.8309 50.8857 75.1514 50.9423 75.136 51.6157C75.1205 52.2891 75.7331 52.3457 76.2839 52.3971C76.7729 52.3457 77.3958 52.3508 77.4164 51.6723C77.4421 50.9886 76.7986 50.8703 76.3045 50.8806ZM77.4164 46.8864C77.3391 46.2438 76.7266 46.177 76.217 46.2027C75.7022 46.2232 75.069 46.3466 75.1463 47.02C75.2132 47.6266 75.8206 47.6986 76.4743 47.7346C76.8192 47.5803 77.4987 47.6061 77.4164 46.8864ZM78.0598 40.692C78.5385 40.6971 79.1974 40.6611 79.2283 39.9774C79.2592 39.2886 78.6621 39.2475 78.1267 39.1806C77.6274 39.2269 76.9994 39.2372 76.9582 39.8849C76.9222 40.5429 77.5708 40.6868 78.0598 40.692ZM79.2283 44.6811C79.2798 44.0179 78.6878 43.9254 78.2091 43.8534C77.6274 43.874 77.0251 43.9562 76.9685 44.5628C76.917 45.2054 77.5348 45.3648 78.0495 45.3802C78.554 45.4007 79.1768 45.3288 79.2283 44.6811ZM78.1628 48.5159C77.6274 48.5725 77.0045 48.6444 76.9685 49.251C76.9325 49.8731 77.509 50.0427 78.065 50.0375C78.5849 50.0375 79.1923 50.0118 79.2335 49.3436C79.2747 48.6702 78.6621 48.6136 78.1628 48.5159ZM80.0108 41.535C79.4548 41.5093 78.8628 41.6224 78.8062 42.2187C78.7393 42.851 79.357 43.0258 79.8769 43.0412C80.3865 43.0618 81.0042 42.9847 81.0609 42.3472C81.1226 41.679 80.5513 41.5607 80.0108 41.535ZM82.914 39.9877C82.9552 39.3246 82.3735 39.2166 81.8382 39.2012C81.308 39.1858 80.6902 39.2834 80.6388 39.8849C80.5821 40.5275 81.2256 40.6149 81.8124 40.7382C82.2036 40.5891 82.8728 40.656 82.914 39.9877ZM83.6501 41.5402C83.1251 41.5453 82.5228 41.5813 82.4971 42.2547C82.4765 42.9333 83.1148 42.9538 83.5832 43.0721C84.1289 43.0052 84.7517 42.923 84.7672 42.301C84.7826 41.679 84.2009 41.5299 83.6501 41.5402ZM85.6114 39.2063C85.0606 39.2012 84.3965 39.1549 84.3245 39.9003C84.2678 40.5018 84.8444 40.5891 85.4158 40.7331C85.8173 40.6046 86.5276 40.692 86.5894 39.9723C86.6306 39.4377 86.121 39.2166 85.6114 39.2063ZM100.38 53.1527C100.493 54.3248 100.014 54.5047 98.99 54.3659C96.4368 54.0164 93.8681 53.8673 91.3149 54.3916C89.6368 54.7309 89.1787 55.2604 89.1684 56.6124C89.1581 57.9284 89.642 58.5144 91.2532 58.9308C93.0857 59.4088 94.9697 59.5374 96.8589 59.486C97.5538 59.4654 97.9399 59.6093 98.1098 60.3753C98.3672 61.4959 98.7326 62.596 99.1445 63.6704C99.3812 64.2821 99.2371 64.6008 98.7224 64.935C97.9348 65.449 97.2192 66.0762 96.4214 66.5697C95.0264 67.4282 94.0998 68.5539 93.4975 70.1218C92.7871 71.957 90.9134 72.5739 89.2301 73.052C86.7696 73.7459 84.2164 74.1161 81.6992 74.6301C81.2719 74.7175 80.855 74.6815 80.4277 74.589C78.2966 74.1264 76.1655 73.6483 74.0241 73.237C72.3408 72.9132 70.9664 73.8847 69.5817 74.5684C68.8198 74.9488 69.1493 77.1542 69.9523 77.7505C71.7385 79.0819 73.5196 80.4133 75.3367 81.6984C75.9133 82.1045 76.0883 82.5518 76.1655 83.256C76.4023 85.2814 75.7434 86.8544 74.3072 88.2784C73.0563 89.5224 73.1438 89.6149 74.6367 90.5454C74.8992 90.7099 75.1617 90.8384 75.1205 91.2137C75.0793 91.5889 74.7808 91.6815 74.5028 91.7791C73.0872 92.2572 71.6665 92.725 70.2509 93.1979C69.8082 93.347 69.3655 93.4755 69.036 93.8611C68.1249 94.9046 68.3102 95.4495 69.6692 95.7682C70.6164 95.9893 71.9753 95.8248 72.4077 96.529C72.8453 97.2487 71.9444 98.3385 71.7797 99.2998C71.5995 100.323 71.1002 100.719 70.0244 100.631C68.789 100.528 67.5432 100.611 66.2975 100.611C65.4842 100.611 64.6554 100.513 63.8575 100.626C61.9838 100.899 60.5785 100.148 59.271 98.9091C58.6945 98.3694 58.7511 98.1432 59.2813 97.6548C61.1087 95.9739 62.8898 94.2415 64.676 92.5142C64.9643 92.2315 65.4379 92.0002 65.2937 91.481C65.1393 90.9207 64.6297 90.9052 64.1612 90.8178C59.5232 89.9953 54.8955 89.1369 50.2524 88.3452C49.4082 88.2013 48.7338 87.8877 48.0955 87.3428C46.7263 86.1759 45.3055 85.0707 43.9465 83.8935C43.3958 83.4154 42.8347 83.2509 42.1861 83.5388C38.7835 85.045 35.3603 84.7622 31.9526 83.621C30.7789 83.2252 29.8833 83.3794 29.1523 84.3972C28.1382 85.8006 26.7947 86.4278 25.0496 86.1399C24.4268 86.0371 23.8863 86.289 23.3458 86.5871C21.5081 87.5947 19.6292 88.52 17.8275 89.5892C16.7259 90.2421 15.717 90.2884 14.5639 89.7897C13.2719 89.2345 11.8717 88.9055 10.6209 88.2784C8.70596 87.3171 6.83222 87.3634 4.81436 87.8928C1.82874 88.6794 1.6949 88.52 1.489 85.4305C1.36545 83.6313 2.41042 82.3976 4.21209 82.3924C6.00861 82.3924 7.79998 82.5466 9.5965 82.6186C10.4407 82.6546 11.2077 82.5723 11.6144 81.6316C12.0262 80.6857 11.8512 79.8838 11.2077 79.1384C11.1511 79.0767 11.0842 79.0202 11.0224 78.9585C9.28764 77.0822 9.29793 77.1028 11.6813 76.0232C14.0955 74.9283 16.5149 73.859 19.135 73.3296C19.6498 73.2267 20.0822 72.9646 20.4322 72.5533C23.4333 69.0166 27.0418 66.1019 30.4958 63.0381C32.1585 61.5628 33.363 59.7635 34.65 58.0106C37.2083 54.5407 39.4321 50.8086 42.7986 47.9762C43.5811 47.3182 43.926 47.128 44.5694 48.1201C45.6298 49.7702 46.855 51.3227 48.0338 52.8957C48.9191 54.0781 48.878 54.6384 47.6477 55.5637C46.6954 56.2885 45.7019 56.9671 44.6981 57.6199C43.4524 58.4321 44.1267 59.6453 44.0546 60.6786C43.9877 61.5628 44.8783 61.4651 45.4445 61.6913C46.613 62.1488 47.6374 62.0151 48.6824 61.2903C49.7325 60.5603 50.9061 60.0103 51.9871 59.3215C52.5431 58.9616 52.8725 59.0696 53.2689 59.5425C53.9226 60.3341 54.6587 61.0538 55.3125 61.8506C55.817 62.4624 56.1258 62.4366 56.6869 61.8301C60.2902 57.9181 63.4921 53.6874 66.5034 49.3179C69.4376 45.0615 72.3665 40.7896 74.4307 36.014C74.6212 35.5771 74.8786 35.3972 75.3882 35.3715C80.7314 35.1144 86.0747 34.77 91.3561 33.8653C92.0562 33.7419 92.643 33.9167 93.0445 34.5078C94.9234 37.2837 97.7031 38.5997 100.812 39.5199C103.561 40.327 103.458 40.4401 103.561 43.3239C103.618 44.8353 103.304 46.0536 102.182 47.1126C100.431 48.7575 100.153 50.9114 100.38 53.1527ZM49.3927 59.2032C48.7647 59.5631 48.1213 59.9023 47.519 60.293C46.7829 60.766 45.9438 60.5912 45.5783 60.0617C45.1717 59.4757 45.4908 58.7663 46.2166 58.2574C47.4624 57.3989 48.9294 56.7769 49.7376 55.3221C49.9126 55.4249 50.0001 55.4557 50.0516 55.5174C51.8996 57.7484 51.8996 57.7536 49.3927 59.2032ZM41.6147 37.7001C39.4372 33.2535 37.3267 28.7864 36.8737 23.7383C36.3744 18.2224 38.0165 13.488 41.7588 9.42176C44.9092 5.99813 48.6566 3.72599 53.3255 3.12968C54.216 3.01658 55.1169 3.0063 56.0126 2.94462C67.3528 2.58992 78.4099 14.732 74.6675 27.419C73.1438 32.575 70.8531 37.3711 67.9911 41.8949C64.6812 47.1331 61.0727 52.176 57.145 56.9773C55.9817 58.4013 55.9045 58.4218 54.8286 57.0339C50.031 50.8549 45.0842 44.7787 41.6147 37.7001ZM104.987 43.0926C104.791 38.8311 105.605 39.5816 101.502 38.2656C98.4958 37.2992 95.8191 36.0346 93.9145 33.4129C93.2556 32.5081 92.293 32.2357 91.1759 32.4876C90.6354 32.6058 90.0744 32.6212 89.5236 32.7035C84.9061 33.4232 80.2579 33.7624 75.4448 33.8961C75.9184 32.6521 76.3457 31.5828 76.7317 30.5033C80.6439 19.487 76.7523 9.60168 67.708 3.57691C57.6135 -3.15212 43.231 -0.437891 36.2972 12.1514C32.9461 18.2327 33.3733 24.6019 35.5559 30.9197C37.2752 35.8906 39.6946 40.5532 42.4589 45.0306C42.6905 45.4059 43.2619 45.7452 42.567 46.2952C38.6085 49.4361 36.0089 53.7028 33.1005 57.7176C32.1019 59.1004 31.1496 60.5089 29.8575 61.6758C26.3365 64.8579 22.6097 67.8291 19.5005 71.4481C19.0938 71.9159 18.5636 72.0136 18.0334 72.1267C14.8625 72.8001 12.0262 74.332 9.11262 75.6531C7.90293 76.2031 7.68158 77.1953 8.46917 78.2748C8.86553 78.8248 9.38029 79.2926 9.85388 79.7861C10.1627 80.0997 10.4922 80.4287 10.2966 80.8965C10.0958 81.3849 9.62738 81.1381 9.27734 81.1278C7.52201 81.0713 5.77182 80.9633 4.01648 80.9171C2.59059 80.8759 1.62284 81.4414 0.788921 82.7368C-0.595788 84.8805 0.119731 86.8647 0.83525 88.8541C1.13896 89.7075 2.09127 89.9696 3.02814 89.7897C3.70247 89.6612 4.38711 89.5584 5.03056 89.3322C6.86826 88.6794 8.59271 88.8901 10.348 89.7023C11.7019 90.3243 13.1638 90.7048 14.5382 91.2856C15.7942 91.8151 16.9164 91.7072 18.0849 91.0492C19.9844 89.9799 21.925 88.9929 23.84 87.9494C24.2981 87.6975 24.7511 87.461 25.2864 87.5484C27.2683 87.8774 28.7971 87.0961 30.0017 85.5899C30.5422 84.9113 31.1444 84.8805 31.9217 85.0809C35.0206 85.8932 38.1194 86.839 41.2801 85.2763C42.3714 84.7417 43.2619 85.0295 44.1267 85.8983C45.0636 86.8339 46.1909 87.569 47.1741 88.4532C48.008 89.1986 48.9346 89.6047 50.031 89.7794C52.1879 90.1136 54.3344 90.5145 56.481 90.895C58.6018 91.2702 60.7175 91.6609 62.8383 92.0464C62.8898 92.1595 62.9464 92.2726 62.9979 92.3909C62.6273 92.6736 62.2206 92.9203 61.8808 93.2391C60.4807 94.5653 59.1011 95.9122 57.7061 97.2384C57.248 97.6805 56.7332 98.3128 57.2017 98.7806C58.5606 100.138 59.7394 101.896 61.9426 101.963C64.2127 102.029 66.488 101.988 68.7581 101.978C72.6445 101.957 72.2687 102.492 73.5402 98.4053C74.4668 95.4187 74.4101 95.3364 71.3782 94.6527C71.3319 94.6424 71.3113 94.5191 71.2392 94.37C72.4026 93.9793 73.5453 93.5578 74.7139 93.2185C75.7125 92.9255 76.3714 92.3497 76.567 91.3165C76.7575 90.3141 76.1398 89.7332 75.2492 89.1471C77.4267 87.6101 77.8899 85.4768 77.6634 83.0196C77.5759 82.0377 77.3083 81.3335 76.4898 80.7628C74.7344 79.5394 73.0203 78.2542 71.3061 76.9742C70.395 76.2905 70.5237 75.7559 71.4709 75.2213C72.8813 74.4194 74.2557 74.7741 75.6971 75.0208C77.8693 75.3909 79.9747 76.3831 82.25 75.9615C84.7672 75.4886 87.3255 75.1133 89.7706 74.3731C91.6907 73.7922 93.8218 73.0777 94.6609 71.0112C95.3146 69.4022 96.3287 68.3021 97.7186 67.4076C98.5113 66.8987 99.2217 66.2612 100.025 65.778C100.843 65.2845 100.977 64.6677 100.694 63.8246C100.339 62.7708 100.05 61.7015 99.7158 60.6426C98.9077 58.0774 98.9025 58.0826 96.1434 58.0414C94.5116 58.0157 92.8901 57.9386 91.3149 57.4554C90.8825 57.3218 90.5479 57.1007 90.5788 56.5507C90.6097 56.0469 90.9855 55.9338 91.3458 55.8207C91.6289 55.7333 91.9326 55.6973 92.2261 55.6511C94.6712 55.2604 97.0957 55.5791 99.5202 55.8156C100.992 55.9595 101.795 55.2707 101.816 53.8056C101.826 53.1219 101.847 52.4331 101.811 51.7494C101.744 50.3923 102.12 49.1637 103.108 48.2538C104.647 46.8298 105.085 45.1591 104.987 43.0926ZM71.3936 51.1633C71.4142 50.5413 70.7811 50.4539 70.2869 50.3871C69.7516 50.4539 69.1287 50.5105 69.1184 51.1479C69.1133 51.7956 69.7052 51.8727 70.2406 51.883C70.7914 51.8933 71.3782 51.7545 71.3936 51.1633ZM72.0062 52.469C71.4657 52.4845 70.8737 52.6335 70.9098 53.2607C70.9458 53.8827 71.5584 53.9444 72.2173 53.9495C72.6291 53.9393 73.2108 53.8107 73.1747 53.1784C73.1387 52.5719 72.5364 52.4536 72.0062 52.469ZM71.9239 49.2716C72.5776 49.2819 73.1644 49.1482 73.185 48.5519C73.2108 47.9402 72.6033 47.7654 72.068 47.7654C71.5481 47.7705 70.9458 47.8734 70.9252 48.5159C70.8995 49.1945 71.4966 49.251 71.9239 49.2716ZM73.3291 47.2154C73.777 47.1691 74.3896 47.1383 74.369 46.4546C74.3432 45.7914 73.7358 45.704 73.2159 45.7143C72.696 45.7195 72.068 45.8531 72.0937 46.4905C72.1195 47.1023 72.7114 47.2205 73.3291 47.2154ZM73.2468 50.418C72.732 50.4282 72.104 50.5053 72.0989 51.1531C72.0937 51.8162 72.7011 51.8727 73.2674 51.8882C73.7564 51.8625 74.3741 51.847 74.3793 51.1685C74.3844 50.5105 73.777 50.4077 73.2468 50.418ZM74.7293 45.4007C75.2492 45.2979 75.8772 45.2003 75.8154 44.5577C75.7588 43.9665 75.1668 43.838 74.6212 43.8637C74.0807 43.8945 73.5093 44.0231 73.5556 44.6811C73.602 45.3442 74.2454 45.3082 74.7293 45.4007ZM75.0073 48.0533C74.5131 48.0841 73.8439 48.2178 73.916 48.8758C73.9829 49.4772 74.6006 49.5595 75.172 49.5698C75.661 49.5081 76.2736 49.4567 76.2015 48.7524C76.1346 48.1047 75.5066 48.0276 75.0073 48.0533ZM76.3096 43.0361C76.8089 43.0104 77.4421 42.923 77.4164 42.2444C77.3906 41.5659 76.7575 41.5864 76.2478 41.5145C75.7331 41.5761 75.1102 41.6327 75.1463 42.301C75.1771 42.9281 75.7897 43.0618 76.3096 43.0361ZM76.3045 50.8806C75.8309 50.8857 75.1514 50.9423 75.136 51.6157C75.1205 52.2891 75.7331 52.3457 76.2839 52.3971C76.7729 52.3457 77.3958 52.3508 77.4164 51.6723C77.4421 50.9886 76.7986 50.8703 76.3045 50.8806ZM77.4164 46.8864C77.3391 46.2438 76.7266 46.177 76.217 46.2027C75.7022 46.2232 75.069 46.3466 75.1463 47.02C75.2132 47.6266 75.8206 47.6986 76.4743 47.7346C76.8192 47.5803 77.4987 47.6061 77.4164 46.8864ZM78.0598 40.692C78.5385 40.6971 79.1974 40.6611 79.2283 39.9774C79.2592 39.2886 78.6621 39.2475 78.1267 39.1806C77.6274 39.2269 76.9994 39.2372 76.9582 39.8849C76.9222 40.5429 77.5708 40.6868 78.0598 40.692ZM79.2283 44.6811C79.2798 44.0179 78.6878 43.9254 78.2091 43.8534C77.6274 43.874 77.0251 43.9562 76.9685 44.5628C76.917 45.2054 77.5348 45.3648 78.0495 45.3802C78.554 45.4007 79.1768 45.3288 79.2283 44.6811ZM78.1628 48.5159C77.6274 48.5725 77.0045 48.6444 76.9685 49.251C76.9325 49.8731 77.509 50.0427 78.065 50.0375C78.5849 50.0375 79.1923 50.0118 79.2335 49.3436C79.2747 48.6702 78.6621 48.6136 78.1628 48.5159ZM80.0108 41.535C79.4548 41.5093 78.8628 41.6224 78.8062 42.2187C78.7393 42.851 79.357 43.0258 79.8769 43.0412C80.3865 43.0618 81.0042 42.9847 81.0609 42.3472C81.1226 41.679 80.5513 41.5607 80.0108 41.535ZM82.914 39.9877C82.9552 39.3246 82.3735 39.2166 81.8382 39.2012C81.308 39.1858 80.6902 39.2834 80.6388 39.8849C80.5821 40.5275 81.2256 40.6149 81.8124 40.7382C82.2036 40.5891 82.8728 40.656 82.914 39.9877ZM83.6501 41.5402C83.1251 41.5453 82.5228 41.5813 82.4971 42.2547C82.4765 42.9333 83.1148 42.9538 83.5832 43.0721C84.1289 43.0052 84.7517 42.923 84.7672 42.301C84.7826 41.679 84.2009 41.5299 83.6501 41.5402ZM85.6114 39.2063C85.0606 39.2012 84.3965 39.1549 84.3245 39.9003C84.2678 40.5018 84.8444 40.5891 85.4158 40.7331C85.8173 40.6046 86.5276 40.692 86.5894 39.9723C86.6306 39.4377 86.121 39.2166 85.6114 39.2063ZM85.6114 39.2063C85.0606 39.2012 84.3965 39.1549 84.3245 39.9003C84.2678 40.5018 84.8444 40.5891 85.4158 40.7331C85.8173 40.6046 86.5276 40.692 86.5894 39.9723C86.6306 39.4377 86.121 39.2166 85.6114 39.2063ZM83.6501 41.5402C83.1251 41.5453 82.5228 41.5813 82.4971 42.2547C82.4765 42.9333 83.1148 42.9538 83.5832 43.0721C84.1289 43.0052 84.7517 42.923 84.7672 42.301C84.7826 41.679 84.2009 41.5299 83.6501 41.5402ZM81.8382 39.2012C81.308 39.1858 80.6902 39.2834 80.6388 39.8849C80.5821 40.5275 81.2256 40.6149 81.8124 40.7382C82.2036 40.5891 82.8728 40.656 82.914 39.9877C82.9552 39.3246 82.3735 39.2166 81.8382 39.2012ZM80.0108 41.535C79.4548 41.5093 78.8628 41.6224 78.8062 42.2187C78.7393 42.851 79.357 43.0258 79.8769 43.0412C80.3865 43.0618 81.0042 42.9847 81.0609 42.3472C81.1226 41.679 80.5513 41.5607 80.0108 41.535ZM78.1628 48.5159C77.6274 48.5725 77.0045 48.6444 76.9685 49.251C76.9325 49.8731 77.509 50.0427 78.065 50.0375C78.5849 50.0375 79.1923 50.0118 79.2335 49.3436C79.2747 48.6702 78.6621 48.6136 78.1628 48.5159ZM78.2091 43.8534C77.6274 43.874 77.0251 43.9562 76.9685 44.5628C76.917 45.2054 77.5348 45.3648 78.0495 45.3802C78.554 45.4007 79.1768 45.3288 79.2283 44.6811C79.2798 44.0179 78.6878 43.9254 78.2091 43.8534ZM78.1267 39.1806C77.6274 39.2269 76.9994 39.2372 76.9582 39.8849C76.9222 40.5429 77.5708 40.6868 78.0598 40.692C78.5385 40.6971 79.1974 40.6611 79.2283 39.9774C79.2592 39.2886 78.6621 39.2475 78.1267 39.1806ZM76.217 46.2027C75.7022 46.2232 75.069 46.3466 75.1463 47.02C75.2132 47.6266 75.8206 47.6986 76.4743 47.7346C76.8192 47.5803 77.4987 47.6061 77.4164 46.8864C77.3391 46.2438 76.7266 46.177 76.217 46.2027ZM76.3045 50.8806C75.8309 50.8857 75.1514 50.9423 75.136 51.6157C75.1205 52.2891 75.7331 52.3457 76.2839 52.3971C76.7729 52.3457 77.3958 52.3508 77.4164 51.6723C77.4421 50.9886 76.7986 50.8703 76.3045 50.8806ZM76.2478 41.5145C75.7331 41.5761 75.1102 41.6327 75.1463 42.301C75.1771 42.9281 75.7897 43.0618 76.3096 43.0361C76.8089 43.0104 77.4421 42.923 77.4164 42.2444C77.3906 41.5659 76.7575 41.5864 76.2478 41.5145ZM75.0073 48.0533C74.5131 48.0841 73.8439 48.2178 73.916 48.8758C73.9829 49.4772 74.6006 49.5595 75.172 49.5698C75.661 49.5081 76.2736 49.4567 76.2015 48.7524C76.1346 48.1047 75.5066 48.0276 75.0073 48.0533ZM74.6212 43.8637C74.0807 43.8945 73.5093 44.0231 73.5556 44.6811C73.602 45.3442 74.2454 45.3082 74.7293 45.4007C75.2492 45.2979 75.8772 45.2003 75.8154 44.5577C75.7588 43.9665 75.1668 43.838 74.6212 43.8637ZM73.2468 50.418C72.732 50.4282 72.104 50.5053 72.0989 51.1531C72.0937 51.8162 72.7011 51.8727 73.2674 51.8882C73.7564 51.8625 74.3741 51.847 74.3793 51.1685C74.3844 50.5105 73.777 50.4077 73.2468 50.418ZM73.2159 45.7143C72.696 45.7195 72.068 45.8531 72.0937 46.4905C72.1195 47.1023 72.7114 47.2205 73.3291 47.2154C73.777 47.1691 74.3896 47.1383 74.369 46.4546C74.3432 45.7914 73.7358 45.704 73.2159 45.7143ZM72.068 47.7654C71.5481 47.7705 70.9458 47.8734 70.9252 48.5159C70.8995 49.1945 71.4966 49.251 71.9239 49.2716C72.5776 49.2819 73.1644 49.1482 73.185 48.5519C73.2108 47.9402 72.6033 47.7654 72.068 47.7654ZM72.0062 52.469C71.4657 52.4845 70.8737 52.6335 70.9098 53.2607C70.9458 53.8827 71.5584 53.9444 72.2173 53.9495C72.6291 53.9393 73.2108 53.8107 73.1747 53.1784C73.1387 52.5719 72.5364 52.4536 72.0062 52.469ZM70.2869 50.3871C69.7516 50.4539 69.1287 50.5105 69.1184 51.1479C69.1133 51.7956 69.7052 51.8727 70.2406 51.883C70.7914 51.8933 71.3782 51.7545 71.3936 51.1633C71.4142 50.5413 70.7811 50.4539 70.2869 50.3871Z" fill="#FEFEFE"/>
</g>
<path fill-rule="evenodd" clip-rule="evenodd" d="M70.2406 51.8826C69.7052 51.8723 69.1133 51.7952 69.1184 51.1475C69.1287 50.5101 69.7516 50.4535 70.2869 50.3867C70.7811 50.4535 71.4142 50.5409 71.3937 51.1629C71.3782 51.7541 70.7914 51.8929 70.2406 51.8826Z" fill="#1E1E1C"/>
<path fill-rule="evenodd" clip-rule="evenodd" d="M73.1747 53.1784C73.2108 53.8107 72.6291 53.9393 72.2173 53.9495C71.5584 53.9444 70.9458 53.8827 70.9098 53.2607C70.8737 52.6335 71.4657 52.4845 72.0062 52.469C72.5364 52.4536 73.1387 52.5719 73.1747 53.1784Z" fill="#1E1E1C"/>
<path fill-rule="evenodd" clip-rule="evenodd" d="M70.9252 48.5162C70.9458 47.8736 71.5481 47.7708 72.068 47.7656C72.6033 47.7656 73.2108 47.9404 73.185 48.5521C73.1644 49.1484 72.5776 49.2821 71.9239 49.2718C71.4966 49.2513 70.8995 49.1947 70.9252 48.5162Z" fill="#1E1E1C"/>
<path fill-rule="evenodd" clip-rule="evenodd" d="M72.0938 46.4908C72.068 45.8534 72.696 45.7198 73.216 45.7146C73.7359 45.7043 74.3433 45.7917 74.369 46.4549C74.3896 47.1386 73.777 47.1694 73.3292 47.2157C72.7115 47.2208 72.1195 47.1026 72.0938 46.4908Z" fill="#1E1E1C"/>
<path fill-rule="evenodd" clip-rule="evenodd" d="M74.3793 51.1682C74.3742 51.8467 73.7565 51.8622 73.2674 51.8879C72.7012 51.8724 72.0938 51.8159 72.0989 51.1528C72.1041 50.505 72.7321 50.4279 73.2468 50.4177C73.777 50.4074 74.3845 50.5102 74.3793 51.1682Z" fill="#1E1E1C"/>
<path fill-rule="evenodd" clip-rule="evenodd" d="M73.5557 44.6808C73.5093 44.0228 74.0807 43.8942 74.6212 43.8634C75.1669 43.8377 75.7588 43.9662 75.8155 44.5574C75.8772 45.2 75.2492 45.2976 74.7293 45.4004C74.2454 45.3079 73.602 45.3439 73.5557 44.6808Z" fill="#1E1E1C"/>
<path fill-rule="evenodd" clip-rule="evenodd" d="M76.2015 48.7521C76.2736 49.4564 75.661 49.5078 75.172 49.5695C74.6006 49.5592 73.9829 49.4769 73.916 48.8755C73.8439 48.2175 74.5131 48.0838 75.0073 48.053C75.5066 48.0273 76.1346 48.1044 76.2015 48.7521Z" fill="#1E1E1C"/>
<path fill-rule="evenodd" clip-rule="evenodd" d="M75.1463 42.3012C75.1103 41.6329 75.7331 41.5763 76.2479 41.5146C76.7575 41.5866 77.3907 41.5661 77.4164 42.2446C77.4422 42.9232 76.809 43.0106 76.3097 43.0363C75.7898 43.062 75.1772 42.9283 75.1463 42.3012Z" fill="#1E1E1C"/>
<path fill-rule="evenodd" clip-rule="evenodd" d="M77.4164 51.6721C77.3958 52.3507 76.7729 52.3455 76.2839 52.3969C75.7331 52.3455 75.1205 52.289 75.136 51.6156C75.1514 50.9422 75.8309 50.8856 76.3045 50.8805C76.7986 50.8702 77.4421 50.9884 77.4164 51.6721Z" fill="#1E1E1C"/>
<path fill-rule="evenodd" clip-rule="evenodd" d="M76.4744 47.7346C75.8206 47.6986 75.2132 47.6267 75.1463 47.0201C75.0691 46.3467 75.7023 46.2233 76.217 46.2027C76.7266 46.177 77.3392 46.2438 77.4164 46.8864C77.4988 47.6061 76.8193 47.5804 76.4744 47.7346Z" fill="#1E1E1C"/>
<path fill-rule="evenodd" clip-rule="evenodd" d="M76.9583 39.8849C76.9995 39.2372 77.6275 39.2269 78.1268 39.1807C78.6621 39.2475 79.2593 39.2886 79.2284 39.9775C79.1975 40.6612 78.5386 40.6971 78.0599 40.692C77.5708 40.6869 76.9222 40.5429 76.9583 39.8849Z" fill="#1E1E1C"/>
<path fill-rule="evenodd" clip-rule="evenodd" d="M78.0496 45.3803C77.5348 45.3648 76.9171 45.2055 76.9686 44.5629C77.0252 43.9563 77.6275 43.8741 78.2091 43.8535C78.6879 43.9255 79.2798 44.018 79.2284 44.6812C79.1769 45.3289 78.554 45.4008 78.0496 45.3803Z" fill="#1E1E1C"/>
<path fill-rule="evenodd" clip-rule="evenodd" d="M79.2335 49.3433C79.1923 50.0115 78.5849 50.0372 78.065 50.0372C77.5091 50.0424 76.9325 49.8727 76.9686 49.2507C77.0046 48.6441 77.6275 48.5722 78.1628 48.5156C78.6621 48.6133 79.2747 48.6698 79.2335 49.3433Z" fill="#1E1E1C"/>
<path fill-rule="evenodd" clip-rule="evenodd" d="M81.0609 42.3468C81.0043 42.9842 80.3865 43.0613 79.8769 43.0408C79.357 43.0254 78.7393 42.8506 78.8062 42.2183C78.8628 41.622 79.4548 41.5089 80.0108 41.5346C80.5513 41.5603 81.1226 41.6785 81.0609 42.3468Z" fill="#1E1E1C"/>
<path fill-rule="evenodd" clip-rule="evenodd" d="M81.8125 40.7377C81.2257 40.6144 80.5822 40.527 80.6388 39.8844C80.6903 39.2829 81.308 39.1853 81.8382 39.2007C82.3736 39.2161 82.9553 39.3241 82.9141 39.9872C82.8729 40.6555 82.2037 40.5886 81.8125 40.7377Z" fill="#1E1E1C"/>
<path fill-rule="evenodd" clip-rule="evenodd" d="M84.7672 42.3013C84.7518 42.9233 84.1289 43.0056 83.5833 43.0724C83.1148 42.9542 82.4765 42.9336 82.4971 42.2551C82.5229 41.5817 83.1251 41.5457 83.6502 41.5405C84.201 41.5302 84.7827 41.6793 84.7672 42.3013Z" fill="#1E1E1C"/>
<path fill-rule="evenodd" clip-rule="evenodd" d="M86.5894 39.9723C86.5276 40.692 85.8173 40.6046 85.4158 40.7331C84.8444 40.5892 84.2678 40.5018 84.3245 39.9004C84.3965 39.155 85.0606 39.2013 85.6114 39.2064C86.121 39.2167 86.6306 39.4377 86.5894 39.9723Z" fill="#1E1E1C"/>
<path fill-rule="evenodd" clip-rule="evenodd" d="M55.8375 28.0767C52.6872 28.0047 49.9641 25.1826 50.0465 22.0725C50.1288 18.8956 52.888 16.202 56.0177 16.2534C59.2144 16.3048 62.0404 19.2195 61.8963 22.3193C61.7522 25.5116 58.9673 28.1538 55.8375 28.0767ZM56.0898 13.3695C51.5033 13.2153 47.3234 17.2763 47.1895 22.0211C47.0557 26.7093 51.1275 30.8938 55.9045 30.976C60.5373 31.0531 64.6657 26.992 64.7687 22.2627C64.8665 17.6413 60.8565 13.534 56.0898 13.3695Z" fill="#1E1E1C"/>
<path fill-rule="evenodd" clip-rule="evenodd" d="M76.2015 48.7521C76.2736 49.4564 75.661 49.5078 75.172 49.5695C74.6006 49.5592 73.9829 49.4769 73.916 48.8755C73.8439 48.2175 74.5131 48.0838 75.0073 48.053C75.5066 48.0273 76.1346 48.1044 76.2015 48.7521Z" fill="#F1F0F0"/>
<path fill-rule="evenodd" clip-rule="evenodd" d="M79.2283 39.9775C79.1974 40.6612 78.5385 40.6971 78.0598 40.692C77.5708 40.6869 76.9222 40.5429 76.9582 39.8849C76.9994 39.2372 77.6274 39.2269 78.1267 39.1807C78.6621 39.2475 79.2592 39.2886 79.2283 39.9775Z" fill="#F1F1F1"/>
<path fill-rule="evenodd" clip-rule="evenodd" d="M82.914 39.9882C82.8728 40.6565 82.2036 40.5896 81.8124 40.7387C81.2256 40.6153 80.5821 40.5279 80.6388 39.8854C80.6902 39.2839 81.308 39.1862 81.8382 39.2017C82.3735 39.2171 82.9552 39.325 82.914 39.9882Z" fill="#F1F1F1"/>
<path fill-rule="evenodd" clip-rule="evenodd" d="M81.0609 42.3468C81.0043 42.9842 80.3865 43.0613 79.8769 43.0408C79.357 43.0254 78.7393 42.8506 78.8062 42.2183C78.8628 41.622 79.4548 41.5089 80.0108 41.5346C80.5513 41.5603 81.1226 41.6785 81.0609 42.3468Z" fill="#EFEFEF"/>
<path fill-rule="evenodd" clip-rule="evenodd" d="M84.7672 42.3013C84.7518 42.9233 84.1289 43.0056 83.5833 43.0724C83.1148 42.9542 82.4765 42.9336 82.4971 42.2551C82.5229 41.5817 83.1251 41.5457 83.6502 41.5405C84.201 41.5302 84.7827 41.6793 84.7672 42.3013Z" fill="#F1F1F1"/>
<path fill-rule="evenodd" clip-rule="evenodd" d="M75.8155 44.5574C75.8772 45.2 75.2492 45.2976 74.7293 45.4004C74.2454 45.3079 73.602 45.3439 73.5557 44.6808C73.5093 44.0228 74.0807 43.8942 74.6212 43.8634C75.1669 43.8377 75.7588 43.9662 75.8155 44.5574Z" fill="#F4F4F4"/>
<path fill-rule="evenodd" clip-rule="evenodd" d="M79.2283 44.6812C79.1768 45.3289 78.554 45.4008 78.0495 45.3803C77.5348 45.3648 76.917 45.2055 76.9685 44.5629C77.0251 43.9563 77.6274 43.8741 78.2091 43.8535C78.6878 43.9255 79.2798 44.018 79.2283 44.6812Z" fill="#F4F4F4"/>
<path fill-rule="evenodd" clip-rule="evenodd" d="M74.369 46.4549C74.3896 47.1386 73.777 47.1694 73.3292 47.2157C72.7114 47.2208 72.1195 47.1026 72.0937 46.4908C72.068 45.8534 72.696 45.7198 73.2159 45.7146C73.7358 45.7043 74.3432 45.7917 74.369 46.4549Z" fill="#F2F2F2"/>
<path fill-rule="evenodd" clip-rule="evenodd" d="M77.4164 46.8864C77.4987 47.6061 76.8192 47.5804 76.4743 47.7346C75.8206 47.6986 75.2132 47.6267 75.1463 47.0201C75.069 46.3467 75.7022 46.2233 76.217 46.2027C76.7266 46.177 77.3391 46.2438 77.4164 46.8864Z" fill="#F3F3F3"/>
<path fill-rule="evenodd" clip-rule="evenodd" d="M73.1851 48.5521C73.1645 49.1484 72.5777 49.2821 71.9239 49.2718C71.4967 49.2513 70.8995 49.1947 70.9253 48.5162C70.9459 47.8736 71.5481 47.7708 72.068 47.7656C72.6034 47.7656 73.2108 47.9404 73.1851 48.5521Z" fill="#F1F1F1"/>
<path fill-rule="evenodd" clip-rule="evenodd" d="M79.2335 49.3433C79.1923 50.0115 78.5849 50.0372 78.065 50.0372C77.5091 50.0424 76.9325 49.8727 76.9686 49.2507C77.0046 48.6441 77.6275 48.5722 78.1628 48.5156C78.6621 48.6133 79.2747 48.6698 79.2335 49.3433Z" fill="#F3F3F2"/>
<path fill-rule="evenodd" clip-rule="evenodd" d="M74.3793 51.1682C74.3742 51.8467 73.7565 51.8622 73.2674 51.8879C72.7012 51.8724 72.0938 51.8159 72.0989 51.1528C72.1041 50.505 72.7321 50.4279 73.2468 50.4177C73.777 50.4074 74.3845 50.5102 74.3793 51.1682Z" fill="#F0F0F0"/>
<path fill-rule="evenodd" clip-rule="evenodd" d="M77.4164 51.6721C77.3958 52.3507 76.7729 52.3455 76.2839 52.3969C75.7331 52.3455 75.1205 52.289 75.136 51.6156C75.1514 50.9422 75.8309 50.8856 76.3045 50.8805C76.7986 50.8702 77.4421 50.9884 77.4164 51.6721Z" fill="#F1F1F1"/>
<path fill-rule="evenodd" clip-rule="evenodd" d="M77.4164 42.2446C77.4421 42.9232 76.8089 43.0106 76.3096 43.0363C75.7897 43.062 75.1771 42.9283 75.1463 42.3012C75.1102 41.6329 75.7331 41.5763 76.2479 41.5146C76.7575 41.5866 77.3906 41.5661 77.4164 42.2446Z" fill="#F3F3F2"/>
<path fill-rule="evenodd" clip-rule="evenodd" d="M71.3937 51.1629C71.3783 51.7541 70.7914 51.8929 70.2406 51.8826C69.7053 51.8723 69.1133 51.7952 69.1185 51.1475C69.1288 50.5101 69.7516 50.4535 70.287 50.3867C70.7811 50.4535 71.4143 50.5409 71.3937 51.1629Z" fill="#F0F0F0"/>
<path fill-rule="evenodd" clip-rule="evenodd" d="M86.5894 39.9723C86.5276 40.692 85.8173 40.6046 85.4158 40.7331C84.8444 40.5892 84.2678 40.5018 84.3245 39.9004C84.3965 39.155 85.0606 39.2013 85.6114 39.2064C86.121 39.2167 86.6306 39.4377 86.5894 39.9723Z" fill="#F2F2F1"/>
<path fill-rule="evenodd" clip-rule="evenodd" d="M73.1747 53.1784C73.2108 53.8107 72.6291 53.9393 72.2173 53.9495C71.5584 53.9444 70.9458 53.8827 70.9098 53.2607C70.8737 52.6335 71.4657 52.4845 72.0062 52.469C72.5364 52.4536 73.1387 52.5719 73.1747 53.1784Z" fill="#F0F0F0"/>
<path fill-rule="evenodd" clip-rule="evenodd" d="M55.8375 28.0767C52.6872 28.0047 49.9641 25.1826 50.0465 22.0725C50.1288 18.8956 52.888 16.202 56.0177 16.2534C59.2144 16.3048 62.0404 19.2195 61.8963 22.3193C61.7522 25.5116 58.9673 28.1538 55.8375 28.0767ZM56.0898 13.3695C51.5033 13.2153 47.3234 17.2763 47.1895 22.0211C47.0557 26.7093 51.1275 30.8938 55.9045 30.976C60.5373 31.0531 64.6657 26.992 64.7687 22.2627C64.8665 17.6413 60.8565 13.534 56.0898 13.3695Z" fill="#FEFEFE"/>
</svg>
